AimeMX-Oblique.ufo
<glyph name="exclam" format="2">
  <advance width="174"/>
  <unicode hex="0021"/>
  <outline>
    <contour>
      <point x="12.5784" y="40" type="line"/>
      <point x="14.7856" y="61"/>
      <point x="34.6774" y="79"/>
      <point x="56.6774" y="79" type="curve" smooth="yes"/>
      <point x="77.6774" y="79"/>
      <point x="93.7856" y="61"/>
      <point x="91.5784" y="40" type="curve" smooth="yes"/>
      <point x="89.2661" y="18"/>
      <point x="69.3742" y="0"/>
      <point x="48.3742" y="0" type="curve" smooth="yes"/>
      <point x="26.3742" y="0"/>
      <point x="10.2661" y="18"/>
      <point x="12.5784" y="40" type="curve"/>
    </contour>
    <contour>
      <point x="40.9266" y="167" type="line"/>
      <point x="85.6258" y="735" type="line"/>
      <point x="164.626" y="735" type="line"/>
      <point x="89.9266" y="167" type="line"/>
      <point x="40.9266" y="167" type="line"/>
    </contour>
  </outline>
</glyph>
<glyph name="numbersign" format="2">
  <advance width="892"/>
  <unicode hex="0023"/>
  <outline>
    <contour>
      <point x="862.656" y="504" type="line"/>
      <point x="850.188" y="471" type="line"/>
      <point x="672.188" y="471" type="line"/>
      <point x="589.431" y="264" type="line"/>
      <point x="766.431" y="264" type="line"/>
      <point x="752.963" y="231" type="line"/>
      <point x="575.963" y="231" type="line"/>
      <point x="516.407" y="83" type="line"/>
      <point x="440.407" y="83" type="line"/>
      <point x="500.963" y="231" type="line"/>
      <point x="289.963" y="231" type="line"/>
      <point x="230.407" y="83" type="line"/>
      <point x="155.407" y="83" type="line"/>
      <point x="214.963" y="231" type="line"/>
      <point x="36.9625" y="231" type="line"/>
      <point x="50.431" y="264" type="line"/>
      <point x="228.431" y="264" type="line"/>
      <point x="311.188" y="471" type="line"/>
      <point x="134.188" y="471" type="line"/>
      <point x="146.656" y="504" type="line"/>
      <point x="324.656" y="504" type="line"/>
      <point x="384.317" y="653" type="line"/>
      <point x="459.317" y="653" type="line"/>
      <point x="399.656" y="504" type="line"/>
      <point x="610.656" y="504" type="line"/>
      <point x="670.317" y="653" type="line"/>
      <point x="745.317" y="653" type="line"/>
      <point x="685.656" y="504" type="line"/>
      <point x="862.656" y="504" type="line"/>
    </contour>
    <contour>
      <point x="303.431" y="264" type="line"/>
      <point x="513.431" y="264" type="line"/>
      <point x="597.188" y="471" type="line"/>
      <point x="386.188" y="471" type="line"/>
    </contour>
  </outline>
</glyph>
<glyph name="dollar" format="2">
  <advance width="398"/>
  <unicode hex="0024"/>
  <outline>
    <contour>
      <point x="223.099" y="407" type="line"/>
      <point x="290.108" y="350" type="line" smooth="yes"/>
      <point x="325.315" y="319.37"/>
      <point x="340.512" y="275.404"/>
      <point x="335.869" y="231.228" type="curve" smooth="yes"/>
      <point x="332.175" y="196.081"/>
      <point x="315.922" y="160.801"/>
      <point x="287.195" y="132" type="curve" smooth="yes"/>
      <point x="259.252" y="104"/>
      <point x="224.361" y="86"/>
      <point x="188.73" y="80" type="curve"/>
      <point x="180.322" y="0" type="line"/>
      <point x="140.322" y="0" type="line"/>
      <point x="148.415" y="77" type="line"/>
      <point x="113.52" y="78"/>
      <point x="79.781" y="90"/>
      <point x="53.1984" y="113" type="curve" smooth="yes"/>
      <point x="23.826" y="138" type="line"/>
      <point x="47.3485" y="162" type="line"/>
      <point x="92.2495" y="123" type="line" smooth="yes"/>
      <point x="108.778" y="109"/>
      <point x="128.937" y="101"/>
      <point x="150.727" y="99" type="curve"/>
      <point x="176.583" y="345" type="line"/>
      <point x="105.994" y="406" type="line" smooth="yes"/>
      <point x="73.2093" y="434.513"/>
      <point x="58.8978" y="475.217"/>
      <point x="63.2082" y="516.228" type="curve" smooth="yes"/>
      <point x="66.6075" y="548.571"/>
      <point x="81.5888" y="581.104"/>
      <point x="108.225" y="608" type="curve" smooth="yes"/>
      <point x="137.168" y="636"/>
      <point x="172.955" y="653"/>
      <point x="209.48" y="658" type="curve"/>
      <point x="217.678" y="736" type="line"/>
      <point x="257.678" y="736" type="line"/>
      <point x="249.48" y="658" type="line"/>
      <point x="277.165" y="655"/>
      <point x="303.009" y="644"/>
      <point x="325.012" y="625" type="curve" smooth="yes"/>
      <point x="340.645" y="612" type="line"/>
      <point x="317.123" y="588" type="line"/>
      <point x="285.961" y="615" type="line" smooth="yes"/>
      <point x="275.012" y="625"/>
      <point x="260.642" y="631"/>
      <point x="246.958" y="634" type="curve"/>
      <point x="223.099" y="407" type="line"/>
    </contour>
    <contour>
      <point x="248.616" y="136" type="line"/>
      <point x="267.899" y="155.449"/>
      <point x="278.821" y="179"/>
      <point x="281.282" y="202.423" type="curve" smooth="yes"/>
      <point x="284.39" y="231.991"/>
      <point x="274.016" y="261.354"/>
      <point x="249.961" y="282" type="curve" smooth="yes"/>
      <point x="213.324" y="314" type="line"/>
      <point x="191.147" y="103" type="line"/>
      <point x="211.778" y="109"/>
      <point x="231.934" y="120"/>
      <point x="248.616" y="136" type="curve"/>
    </contour>
    <contour>
      <point x="145.141" y="474" type="line"/>
      <point x="186.357" y="438" type="line"/>
      <point x="207.063" y="635" type="line"/>
      <point x="185.642" y="631"/>
      <point x="163.591" y="621"/>
      <point x="146.805" y="604" type="curve" smooth="yes"/>
      <point x="129.559" y="586.799"/>
      <point x="119.902" y="565.901"/>
      <point x="117.714" y="545.082" type="curve" smooth="yes"/>
      <point x="114.941" y="518.7"/>
      <point x="124.163" y="492.445"/>
      <point x="145.141" y="474" type="curve"/>
    </contour>
  </outline>
</glyph>
<glyph name="ampersand" format="2">
  <advance width="549"/>
  <unicode hex="0026"/>
  <outline>
    <contour>
      <point x="426.556" y="183" type="line"/>
      <point x="435.595" y="269" type="line"/>
      <point x="511.595" y="269" type="line"/>
      <point x="502.24" y="180" type="line" smooth="yes"/>
      <point x="491.835" y="81"/>
      <point x="402.322" y="0"/>
      <point x="303.322" y="0" type="curve" smooth="yes"/>
      <point x="200.322" y="0" type="line" smooth="yes"/>
      <point x="94.3216" y="0"/>
      <point x="17.3606" y="86"/>
      <point x="28.5017" y="192" type="curve"/>
      <point x="28.6068" y="193" type="line"/>
      <point x="36.8049" y="271"/>
      <point x="90.952" y="339"/>
      <point x="161" y="368" type="curve"/>
      <point x="97.1531" y="398"/>
      <point x="57.3002" y="466"/>
      <point x="65.4983" y="544" type="curve" smooth="yes"/>
      <point x="76.6394" y="650"/>
      <point x="171.678" y="736"/>
      <point x="277.678" y="736" type="curve" smooth="yes"/>
      <point x="479.678" y="736" type="line"/>
      <point x="458.552" y="535" type="line"/>
      <point x="309.502" y="192" type="line"/>
      <point x="222.502" y="192" type="line"/>
      <point x="293.318" y="352" type="line"/>
      <point x="271.318" y="352" type="line" smooth="yes"/>
      <point x="188.318" y="352"/>
      <point x="114.276" y="285"/>
      <point x="105.553" y="202" type="curve" smooth="yes"/>
      <point x="103.556" y="183" type="line" smooth="yes"/>
      <point x="94.8321" y="100"/>
      <point x="154.79" y="33"/>
      <point x="237.79" y="33" type="curve" smooth="yes"/>
      <point x="260.79" y="33" type="line" smooth="yes"/>
      <point x="343.79" y="33"/>
      <point x="417.832" y="100"/>
      <point x="426.556" y="183" type="curve"/>
    </contour>
    <contour>
      <point x="142.444" y="553" type="line"/>
      <point x="140.552" y="535" type="line" smooth="yes"/>
      <point x="131.829" y="452"/>
      <point x="191.787" y="385"/>
      <point x="274.787" y="385" type="curve" smooth="yes"/>
      <point x="308.787" y="385" type="line"/>
      <point x="434.321" y="666" type="line"/>
      <point x="438.21" y="703" type="line"/>
      <point x="308.21" y="703" type="line" smooth="yes"/>
      <point x="225.21" y="703"/>
      <point x="151.168" y="636"/>
      <point x="142.444" y="553" type="curve"/>
    </contour>
  </outline>
</glyph>
<glyph name="quotesingle" format="2">
  <advance width="140"/>
  <unicode hex="0027"/>
  <outline>
    <contour>
      <point x="131.309" y="772" type="line"/>
      <point x="113.853" y="663" type="line"/>
      <point x="112.012" y="655"/>
      <point x="104.381" y="649"/>
      <point x="96.3812" y="649" type="curve" smooth="yes"/>
      <point x="88.3812" y="649"/>
      <point x="82.0118" y="655"/>
      <point x="81.8526" y="663" type="curve"/>
      <point x="87.309" y="772" type="line"/>
      <point x="87.326" y="772.601"/>
      <point x="87.366" y="773.198"/>
      <point x="87.4281" y="773.789" type="curve"/>
      <point x="88.7109" y="785.994"/>
      <point x="99.4326" y="796"/>
      <point x="111.831" y="796" type="curve" smooth="yes"/>
      <point x="124.231" y="796"/>
      <point x="132.849" y="785.994"/>
      <point x="131.566" y="773.789" type="curve"/>
      <point x="131.504" y="773.198"/>
      <point x="131.418" y="772.601"/>
      <point x="131.309" y="772" type="curve"/>
    </contour>
  </outline>
</glyph>
<glyph name="parenleft" format="2">
  <advance width="261"/>
  <unicode hex="0028"/>
  <outline>
    <contour>
      <point x="139.533" y="-5" type="line"/>
      <point x="135.374" y="3" type="line"/>
      <point x="111.26" y="59"/>
      <point x="86.4612" y="118"/>
      <point x="67.7674" y="178" type="curve" smooth="yes"/>
      <point x="50.1788" y="239"/>
      <point x="39.9055" y="303"/>
      <point x="46.7372" y="368" type="curve" smooth="yes"/>
      <point x="53.569" y="433"/>
      <point x="77.2957" y="497"/>
      <point x="107.707" y="558" type="curve" smooth="yes"/>
      <point x="139.013" y="618"/>
      <point x="176.214" y="677"/>
      <point x="212.1" y="733" type="curve"/>
      <point x="217.941" y="741" type="line"/>
      <point x="251.049" y="723" type="line"/>
      <point x="245.208" y="715" type="line"/>
      <point x="169.911" y="598"/>
      <point x="124.611" y="500"/>
      <point x="110.737" y="368" type="curve" smooth="yes"/>
      <point x="96.8635" y="236"/>
      <point x="121.458" y="137"/>
      <point x="172.266" y="21" type="curve"/>
      <point x="176.425" y="13" type="line"/>
    </contour>
  </outline>
</glyph>
<glyph name="parenright" format="2">
  <advance width="261"/>
  <unicode hex="0029"/>
  <outline>
    <contour>
      <point x="42.5334" y="-5" type="line"/>
      <point x="9.42524" y="13" type="line"/>
      <point x="14.2661" y="21" type="line"/>
      <point x="90.4582" y="137"/>
      <point x="134.863" y="236"/>
      <point x="148.737" y="368" type="curve" smooth="yes"/>
      <point x="162.611" y="500"/>
      <point x="138.911" y="598"/>
      <point x="87.2084" y="715" type="curve"/>
      <point x="84.0492" y="723" type="line"/>
      <point x="120.941" y="741" type="line"/>
      <point x="124.1" y="733" type="line"/>
      <point x="173.539" y="623"/>
      <point x="226.191" y="496"/>
      <point x="212.737" y="368" type="curve" smooth="yes"/>
      <point x="199.284" y="240"/>
      <point x="119.936" y="113"/>
      <point x="47.3742" y="3" type="curve"/>
    </contour>
  </outline>
</glyph>
<glyph name="asterisk" format="2">
  <advance width="437"/>
  <unicode hex="002A"/>
  <outline>
    <contour>
      <point x="334.413" y="419" type="line"/>
      <point x="321.572" y="411" type="line"/>
      <point x="235.974" y="529" type="line"/>
      <point x="125.572" y="411" type="line"/>
      <point x="114.413" y="419" type="line"/>
      <point x="210.076" y="549" type="line"/>
      <point x="73.0674" y="606" type="line"/>
      <point x="79.5388" y="620" type="line"/>
      <point x="224.545" y="582" type="line"/>
      <point x="249.626" y="735" type="line"/>
      <point x="264.626" y="735" type="line"/>
      <point x="258.545" y="582" type="line"/>
      <point x="411.539" y="620" type="line"/>
      <point x="415.067" y="606" type="line"/>
      <point x="266.076" y="549" type="line"/>
    </contour>
  </outline>
</glyph>
<glyph name="plus" format="2">
  <advance width="599"/>
  <unicode hex="002B"/>
  <outline>
    <contour>
      <point x="560.619" y="378" type="line"/>
      <point x="557.15" y="345" type="line"/>
      <point x="342.15" y="345" type="line"/>
      <point x="319.658" y="131" type="line"/>
      <point x="243.658" y="131" type="line"/>
      <point x="266.15" y="345" type="line"/>
      <point x="52.1501" y="345" type="line"/>
      <point x="55.6185" y="378" type="line"/>
      <point x="269.619" y="378" type="line"/>
      <point x="292.111" y="592" type="line"/>
      <point x="368.111" y="592" type="line"/>
      <point x="345.619" y="378" type="line"/>
      <point x="560.619" y="378" type="line"/>
    </contour>
  </outline>
</glyph>
<glyph name="comma" format="2">
  <advance width="162"/>
  <unicode hex="002C"/>
  <outline>
    <contour>
      <point x="92.3633" y="64" type="line"/>
      <point x="106.778" y="64"/>
      <point x="117.257" y="52.9189"/>
      <point x="115.767" y="38.7429" type="curve"/>
      <point x="115.706" y="38.1669"/>
      <point x="115.626" y="37.5858"/>
      <point x="115.526" y="37" type="curve"/>
      <point x="108.637" y="0" type="line"/>
      <point x="69.862" y="-93" type="line"/>
      <point x="66.0211" y="-101"/>
      <point x="58.4956" y="-106"/>
      <point x="50.4956" y="-106" type="curve" smooth="yes"/>
      <point x="40.4956" y="-106"/>
      <point x="33.5467" y="-96"/>
      <point x="35.7028" y="-85" type="curve"/>
      <point x="61.6367" y="0" type="line"/>
      <point x="63.5255" y="37" type="line"/>
      <point x="63.5465" y="37.5449"/>
      <point x="63.5854" y="38.0858"/>
      <point x="63.6418" y="38.6224" type="curve"/>
      <point x="65.1379" y="52.856"/>
      <point x="78.8719" y="64"/>
      <point x="92.3633" y="64" type="curve"/>
    </contour>
  </outline>
</glyph>
<glyph name="hyphen" format="2">
  <advance width="423"/>
  <unicode hex="002D"/>
  <outline>
    <contour>
      <point x="394.865" y="378" type="line"/>
      <point x="391.396" y="345" type="line"/>
      <point x="63.3963" y="345" type="line"/>
      <point x="66.8647" y="378" type="line"/>
      <point x="394.865" y="378" type="line"/>
    </contour>
  </outline>
</glyph>
<glyph name="period" format="2">
  <advance width="173"/>
  <unicode hex="002E"/>
  <outline>
    <contour>
      <point x="47.0526" y="40" type="line"/>
      <point x="49.2597" y="61"/>
      <point x="69.1516" y="79"/>
      <point x="91.1516" y="79" type="curve" smooth="yes"/>
      <point x="112.152" y="79"/>
      <point x="128.26" y="61"/>
      <point x="126.053" y="40" type="curve" smooth="yes"/>
      <point x="123.74" y="18"/>
      <point x="103.848" y="0"/>
      <point x="82.8484" y="0" type="curve" smooth="yes"/>
      <point x="60.8484" y="0"/>
      <point x="44.7403" y="18"/>
      <point x="47.0526" y="40" type="curve"/>
    </contour>
  </outline>
</glyph>
<glyph name="zero" format="2">
  <advance width="619"/>
  <unicode hex="0030"/>
  <outline>
    <contour>
      <point x="348.678" y="736" type="line"/>
      <point x="492.678" y="736"/>
      <point x="599.327" y="628"/>
      <point x="585.348" y="495" type="curve"/>
      <point x="575.94" y="415" type="line"/>
      <point x="562.066" y="283"/>
      <point x="433.715" y="175"/>
      <point x="288.715" y="175" type="curve" smooth="yes"/>
      <point x="144.715" y="175"/>
      <point x="38.0661" y="283"/>
      <point x="51.9399" y="415" type="curve"/>
      <point x="61.3482" y="495" type="line"/>
      <point x="75.3271" y="628"/>
      <point x="203.678" y="736"/>
      <point x="348.678" y="736" type="curve"/>
    </contour>
    <contour>
      <point x="499.94" y="415" type="line"/>
      <point x="509.348" y="495" type="line"/>
      <point x="521.435" y="610"/>
      <point x="447.21" y="703"/>
      <point x="345.21" y="703" type="curve" smooth="yes"/>
      <point x="242.21" y="703"/>
      <point x="149.435" y="610"/>
      <point x="137.348" y="495" type="curve"/>
      <point x="127.94" y="415" type="line"/>
      <point x="115.958" y="301"/>
      <point x="190.183" y="208"/>
      <point x="292.183" y="208" type="curve" smooth="yes"/>
      <point x="395.183" y="208"/>
      <point x="487.958" y="301"/>
      <point x="499.94" y="415" type="curve"/>
    </contour>
  </outline>
</glyph>
<glyph name="one" format="2">
  <advance width="343"/>
  <unicode hex="0031"/>
  <outline>
    <contour>
      <point x="173.79" y="33" type="line"/>
      <point x="260.79" y="33" type="line"/>
      <point x="257.322" y="0" type="line"/>
      <point x="8.32164" y="0" type="line"/>
      <point x="11.7901" y="33" type="line"/>
      <point x="98.7901" y="33" type="line"/>
      <point x="169.21" y="703" type="line"/>
      <point x="82.2099" y="703" type="line"/>
      <point x="95.6784" y="736" type="line"/>
      <point x="247.678" y="736" type="line"/>
      <point x="173.79" y="33" type="line"/>
    </contour>
  </outline>
</glyph>
<glyph name="two" format="2">
  <advance width="619"/>
  <unicode hex="0032"/>
  <outline>
    <contour>
      <point x="82.2099" y="703" type="line"/>
      <point x="85.6784" y="736" type="line"/>
      <point x="460.678" y="736" type="line" smooth="yes"/>
      <point x="542.678" y="736"/>
      <point x="603.531" y="668"/>
      <point x="594.913" y="586" type="curve" smooth="yes"/>
      <point x="577.465" y="420" type="line"/>
      <point x="155.225" y="275" type="line" smooth="yes"/>
      <point x="129.279" y="266"/>
      <point x="109.757" y="242"/>
      <point x="107.024" y="216" type="curve" smooth="yes"/>
      <point x="87.7901" y="33" type="line"/>
      <point x="536.79" y="33" type="line"/>
      <point x="533.322" y="0" type="line"/>
      <point x="8.32164" y="0" type="line"/>
      <point x="30.8139" y="214" type="line" smooth="yes"/>
      <point x="37.2253" y="275"/>
      <point x="81.9009" y="329"/>
      <point x="142.108" y="350" type="curve" smooth="yes"/>
      <point x="507.351" y="476" type="line"/>
      <point x="520.699" y="603" type="line" smooth="yes"/>
      <point x="526.48" y="658"/>
      <point x="486.21" y="703"/>
      <point x="431.21" y="703" type="curve" smooth="yes"/>
      <point x="82.2099" y="703" type="line"/>
    </contour>
  </outline>
</glyph>
<glyph name="three" format="2">
  <advance width="589"/>
  <unicode hex="0033"/>
  <outline>
    <contour>
      <point x="304.322" y="0" type="line"/>
      <point x="-20.6784" y="0" type="line"/>
      <point x="-17.2099" y="33" type="line"/>
      <point x="307.79" y="33" type="line" smooth="yes"/>
      <point x="375.79" y="33"/>
      <point x="437.517" y="97"/>
      <point x="445.925" y="177" type="curve" smooth="yes"/>
      <point x="449.183" y="208" type="line" smooth="yes"/>
      <point x="457.487" y="287"/>
      <point x="409.213" y="351"/>
      <point x="341.213" y="351" type="curve" smooth="yes"/>
      <point x="201.213" y="351" type="line"/>
      <point x="204.682" y="384" type="line"/>
      <point x="344.682" y="384" type="line" smooth="yes"/>
      <point x="412.682" y="384"/>
      <point x="474.513" y="449"/>
      <point x="482.817" y="528" type="curve" smooth="yes"/>
      <point x="486.075" y="559" type="line" smooth="yes"/>
      <point x="494.378" y="638"/>
      <point x="446.21" y="703"/>
      <point x="378.21" y="703" type="curve" smooth="yes"/>
      <point x="53.2099" y="703" type="line"/>
      <point x="56.6784" y="736" type="line"/>
      <point x="381.678" y="736" type="line" smooth="yes"/>
      <point x="491.678" y="736"/>
      <point x="572.27" y="656"/>
      <point x="562.075" y="559" type="curve" smooth="yes"/>
      <point x="558.817" y="528" type="line" smooth="yes"/>
      <point x="551.88" y="462"/>
      <point x="497.363" y="400"/>
      <point x="428" y="368" type="curve"/>
      <point x="490.532" y="335"/>
      <point x="532.015" y="273"/>
      <point x="525.183" y="208" type="curve" smooth="yes"/>
      <point x="521.925" y="177" type="line" smooth="yes"/>
      <point x="511.625" y="79"/>
      <point x="414.322" y="0"/>
      <point x="304.322" y="0" type="curve"/>
    </contour>
  </outline>
</glyph>
<glyph name="four" format="2">
  <advance width="619"/>
  <unicode hex="0034"/>
  <outline>
    <contour>
      <point x="499.678" y="736" type="line"/>
      <point x="610.678" y="736" type="line"/>
      <point x="533.322" y="0" type="line"/>
      <point x="457.322" y="0" type="line"/>
      <point x="475.82" y="176" type="line"/>
      <point x="27.82" y="176" type="line"/>
      <point x="34.5467" y="240" type="line"/>
    </contour>
    <contour>
      <point x="529.423" y="686" type="line"/>
      <point x="109.652" y="241" type="line"/>
      <point x="106.288" y="209" type="line"/>
      <point x="479.288" y="209" type="line"/>
      <point x="529.423" y="686" type="line"/>
    </contour>
  </outline>
</glyph>
<glyph name="five" format="2">
  <advance width="619"/>
  <unicode hex="0035"/>
  <outline>
    <contour>
      <point x="271.322" y="0" type="line"/>
      <point x="9.32164" y="0" type="line"/>
      <point x="12.7901" y="33" type="line"/>
      <point x="274.79" y="33" type="line" smooth="yes"/>
      <point x="376.79" y="33"/>
      <point x="470.565" y="126"/>
      <point x="482.652" y="241" type="curve" smooth="yes"/>
      <point x="485.805" y="271" type="line" smooth="yes"/>
      <point x="497.787" y="385"/>
      <point x="423.667" y="479"/>
      <point x="321.667" y="479" type="curve" smooth="yes"/>
      <point x="59.6666" y="479" type="line"/>
      <point x="86.6784" y="736" type="line"/>
      <point x="590.678" y="736" type="line"/>
      <point x="587.21" y="703" type="line"/>
      <point x="158.21" y="703" type="line"/>
      <point x="138.03" y="511" type="line"/>
      <point x="325.03" y="511" type="line" smooth="yes"/>
      <point x="469.03" y="511"/>
      <point x="575.784" y="404"/>
      <point x="561.805" y="271" type="curve" smooth="yes"/>
      <point x="558.547" y="240" type="line" smooth="yes"/>
      <point x="544.673" y="108"/>
      <point x="415.322" y="0"/>
      <point x="271.322" y="0" type="curve"/>
    </contour>
  </outline>
</glyph>
<glyph name="six" format="2">
  <advance width="619"/>
  <unicode hex="0036"/>
  <outline>
    <contour>
      <point x="325.082" y="511" type="line"/>
      <point x="469.082" y="511"/>
      <point x="575.836" y="404"/>
      <point x="561.857" y="271" type="curve" smooth="yes"/>
      <point x="558.704" y="241" type="line" smooth="yes"/>
      <point x="544.725" y="108"/>
      <point x="415.374" y="0"/>
      <point x="271.374" y="0" type="curve" smooth="yes"/>
      <point x="126.374" y="0"/>
      <point x="19.7255" y="108"/>
      <point x="33.7043" y="241" type="curve" smooth="yes"/>
      <point x="60.4008" y="495" type="line" smooth="yes"/>
      <point x="74.3797" y="628"/>
      <point x="203.626" y="735"/>
      <point x="348.626" y="735" type="curve" smooth="yes"/>
      <point x="544.626" y="735" type="line"/>
      <point x="541.262" y="703" type="line"/>
      <point x="345.262" y="703" type="line" smooth="yes"/>
      <point x="242.262" y="703"/>
      <point x="148.488" y="610"/>
      <point x="136.401" y="495" type="curve" smooth="yes"/>
      <point x="130.725" y="441" type="line"/>
      <point x="183.245" y="484"/>
      <point x="251.082" y="511"/>
      <point x="325.082" y="511" type="curve"/>
    </contour>
    <contour>
      <point x="482.704" y="241" type="line"/>
      <point x="485.857" y="271" type="line" smooth="yes"/>
      <point x="497.839" y="385"/>
      <point x="423.719" y="479"/>
      <point x="321.719" y="479" type="curve" smooth="yes"/>
      <point x="218.719" y="479"/>
      <point x="124.839" y="385"/>
      <point x="112.857" y="271" type="curve" smooth="yes"/>
      <point x="109.704" y="241" type="line" smooth="yes"/>
      <point x="97.6173" y="126"/>
      <point x="171.843" y="33"/>
      <point x="274.843" y="33" type="curve" smooth="yes"/>
      <point x="376.843" y="33"/>
      <point x="470.617" y="126"/>
      <point x="482.704" y="241" type="curve"/>
    </contour>
  </outline>
</glyph>
<glyph name="seven" format="2">
  <advance width="549"/>
  <unicode hex="0037"/>
  <outline>
    <contour>
      <point x="568.261" y="713" type="line"/>
      <point x="192.322" y="0" type="line"/>
      <point x="116.322" y="0" type="line"/>
      <point x="487.21" y="703" type="line"/>
      <point x="52.2099" y="703" type="line"/>
      <point x="55.6784" y="736" type="line"/>
      <point x="570.678" y="736" type="line"/>
      <point x="568.261" y="713" type="line"/>
    </contour>
  </outline>
</glyph>
<glyph name="eight" format="2">
  <advance width="619"/>
  <unicode hex="0038"/>
  <outline>
    <contour>
      <point x="319.322" y="0" type="line"/>
      <point x="222.322" y="0" type="line" smooth="yes"/>
      <point x="104.322" y="0"/>
      <point x="17.3606" y="86"/>
      <point x="28.5017" y="192" type="curve" smooth="yes"/>
      <point x="36.3845" y="267"/>
      <point x="94.5316" y="335"/>
      <point x="175" y="368" type="curve"/>
      <point x="101.468" y="401"/>
      <point x="57.5104" y="468"/>
      <point x="65.3932" y="543" type="curve" smooth="yes"/>
      <point x="76.5343" y="649"/>
      <point x="181.678" y="736"/>
      <point x="299.678" y="736" type="curve" smooth="yes"/>
      <point x="396.678" y="736" type="line" smooth="yes"/>
      <point x="514.678" y="736"/>
      <point x="601.534" y="649"/>
      <point x="590.393" y="543" type="curve" smooth="yes"/>
      <point x="582.51" y="468"/>
      <point x="524.468" y="401"/>
      <point x="445" y="368" type="curve"/>
      <point x="517.532" y="335"/>
      <point x="561.384" y="267"/>
      <point x="553.502" y="192" type="curve" smooth="yes"/>
      <point x="542.361" y="86"/>
      <point x="437.322" y="0"/>
      <point x="319.322" y="0" type="curve"/>
    </contour>
    <contour>
      <point x="356.213" y="351" type="line"/>
      <point x="259.213" y="351" type="line" smooth="yes"/>
      <point x="183.213" y="351"/>
      <point x="113.751" y="280"/>
      <point x="104.502" y="192" type="curve" smooth="yes"/>
      <point x="95.2525" y="104"/>
      <point x="149.79" y="33"/>
      <point x="225.79" y="33" type="curve" smooth="yes"/>
      <point x="322.79" y="33" type="line" smooth="yes"/>
      <point x="398.79" y="33"/>
      <point x="468.252" y="104"/>
      <point x="477.502" y="192" type="curve" smooth="yes"/>
      <point x="486.751" y="280"/>
      <point x="432.213" y="351"/>
      <point x="356.213" y="351" type="curve"/>
    </contour>
    <contour>
      <point x="262.682" y="384" type="line"/>
      <point x="359.682" y="384" type="line" smooth="yes"/>
      <point x="435.682" y="384"/>
      <point x="505.249" y="456"/>
      <point x="514.393" y="543" type="curve" smooth="yes"/>
      <point x="523.642" y="631"/>
      <point x="469.21" y="703"/>
      <point x="393.21" y="703" type="curve" smooth="yes"/>
      <point x="296.21" y="703" type="line" smooth="yes"/>
      <point x="220.21" y="703"/>
      <point x="150.642" y="631"/>
      <point x="141.393" y="543" type="curve" smooth="yes"/>
      <point x="132.249" y="456"/>
      <point x="186.682" y="384"/>
      <point x="262.682" y="384" type="curve"/>
    </contour>
  </outline>
</glyph>
<glyph name="nine" format="2">
  <advance width="619"/>
  <unicode hex="0039"/>
  <outline>
    <contour>
      <point x="294.865" y="224" type="line"/>
      <point x="149.865" y="224"/>
      <point x="43.2162" y="332"/>
      <point x="57.1951" y="465" type="curve" smooth="yes"/>
      <point x="60.3482" y="495" type="line" smooth="yes"/>
      <point x="74.3271" y="628"/>
      <point x="203.678" y="736"/>
      <point x="348.678" y="736" type="curve" smooth="yes"/>
      <point x="492.678" y="736"/>
      <point x="599.327" y="628"/>
      <point x="585.348" y="495" type="curve" smooth="yes"/>
      <point x="558.652" y="241" type="line" smooth="yes"/>
      <point x="544.673" y="108"/>
      <point x="415.322" y="0"/>
      <point x="271.322" y="0" type="curve" smooth="yes"/>
      <point x="74.3216" y="0" type="line"/>
      <point x="77.7901" y="33" type="line"/>
      <point x="274.79" y="33" type="line" smooth="yes"/>
      <point x="376.79" y="33"/>
      <point x="470.565" y="126"/>
      <point x="482.652" y="241" type="curve" smooth="yes"/>
      <point x="488.327" y="295" type="line"/>
      <point x="436.703" y="251"/>
      <point x="367.865" y="224"/>
      <point x="294.865" y="224" type="curve"/>
    </contour>
    <contour>
      <point x="136.348" y="495" type="line"/>
      <point x="133.195" y="465" type="line" smooth="yes"/>
      <point x="121.108" y="350"/>
      <point x="195.333" y="257"/>
      <point x="297.333" y="257" type="curve" smooth="yes"/>
      <point x="400.333" y="257"/>
      <point x="494.108" y="350"/>
      <point x="506.195" y="465" type="curve" smooth="yes"/>
      <point x="509.348" y="495" type="line" smooth="yes"/>
      <point x="521.435" y="610"/>
      <point x="447.21" y="703"/>
      <point x="344.21" y="703" type="curve" smooth="yes"/>
      <point x="242.21" y="703"/>
      <point x="148.435" y="610"/>
      <point x="136.348" y="495" type="curve"/>
    </contour>
  </outline>
</glyph>
<glyph name="colon" format="2">
  <advance width="173"/>
  <unicode hex="003A"/>
  <outline>
    <contour>
      <point x="36.2794" y="186" type="line"/>
      <point x="38.5917" y="208"/>
      <point x="58.3784" y="225"/>
      <point x="80.3784" y="225" type="curve" smooth="yes"/>
      <point x="101.378" y="225"/>
      <point x="117.592" y="208"/>
      <point x="115.279" y="186" type="curve" smooth="yes"/>
      <point x="112.967" y="164"/>
      <point x="93.0752" y="146"/>
      <point x="72.0752" y="146" type="curve" smooth="yes"/>
      <point x="50.0752" y="146"/>
      <point x="33.9671" y="164"/>
      <point x="36.2794" y="186" type="curve"/>
    </contour>
    <contour>
      <point x="73.171" y="537" type="line"/>
      <point x="75.4832" y="559"/>
      <point x="95.27" y="576"/>
      <point x="117.27" y="576" type="curve" smooth="yes"/>
      <point x="138.27" y="576"/>
      <point x="154.483" y="559"/>
      <point x="152.171" y="537" type="curve" smooth="yes"/>
      <point x="149.859" y="515"/>
      <point x="129.967" y="497"/>
      <point x="108.967" y="497" type="curve" smooth="yes"/>
      <point x="86.9668" y="497"/>
      <point x="70.8587" y="515"/>
      <point x="73.171" y="537" type="curve"/>
    </contour>
  </outline>
</glyph>
<glyph name="semicolon" format="2">
  <advance width="174"/>
  <unicode hex="003B"/>
  <outline>
    <contour>
      <point x="55.7252" y="186" type="line"/>
      <point x="58.0375" y="208"/>
      <point x="77.8242" y="225"/>
      <point x="99.8242" y="225" type="curve" smooth="yes"/>
      <point x="120.824" y="225"/>
      <point x="137.037" y="208"/>
      <point x="134.725" y="186" type="curve" smooth="yes"/>
      <point x="132.413" y="164"/>
      <point x="112.521" y="146"/>
      <point x="91.521" y="146" type="curve" smooth="yes"/>
      <point x="69.521" y="146"/>
      <point x="53.4129" y="164"/>
      <point x="55.7252" y="186" type="curve"/>
    </contour>
    <contour>
      <point x="83.9024" y="64" type="line"/>
      <point x="98.3167" y="64"/>
      <point x="108.796" y="52.9189"/>
      <point x="107.306" y="38.7429" type="curve"/>
      <point x="107.246" y="38.1669"/>
      <point x="107.165" y="37.5858"/>
      <point x="107.065" y="37" type="curve"/>
      <point x="100.176" y="0" type="line"/>
      <point x="61.4011" y="-93" type="line"/>
      <point x="57.5602" y="-101"/>
      <point x="50.0347" y="-106"/>
      <point x="42.0347" y="-106" type="curve" smooth="yes"/>
      <point x="32.0347" y="-106"/>
      <point x="25.0858" y="-96"/>
      <point x="27.2419" y="-85" type="curve"/>
      <point x="53.1758" y="0" type="line"/>
      <point x="55.0646" y="37" type="line"/>
      <point x="55.0856" y="37.5449"/>
      <point x="55.1246" y="38.0858"/>
      <point x="55.181" y="38.6224" type="curve"/>
      <point x="56.677" y="52.856"/>
      <point x="70.411" y="64"/>
      <point x="83.9024" y="64" type="curve"/>
    </contour>
  </outline>
</glyph>
<glyph name="less" format="2">
  <advance width="246"/>
  <unicode hex="003C"/>
  <outline>
    <contour>
      <point x="58.09" y="385" type="line"/>
      <point x="214.375" y="578" type="line"/>
      <point x="227.429" y="569" type="line"/>
      <point x="109.568" y="361" type="line"/>
      <point x="183.706" y="153" type="line"/>
      <point x="168.865" y="145" type="line"/>
      <point x="53.045" y="337" type="line"/>
      <point x="58.09" y="385" type="line"/>
    </contour>
  </outline>
</glyph>
<glyph name="equal" format="2">
  <advance width="470"/>
  <unicode hex="003D"/>
  <outline>
    <contour>
      <point x="71.4367" y="465" type="line"/>
      <point x="447.437" y="465" type="line"/>
      <point x="443.968" y="432" type="line"/>
      <point x="67.9683" y="432" type="line"/>
      <point x="71.4367" y="465" type="line"/>
    </contour>
    <contour>
      <point x="49.5751" y="257" type="line"/>
      <point x="53.0435" y="290" type="line"/>
      <point x="429.043" y="290" type="line"/>
      <point x="425.575" y="257" type="line"/>
      <point x="49.5751" y="257" type="line"/>
    </contour>
  </outline>
</glyph>
<glyph name="greater" format="2">
  <advance width="246"/>
  <unicode hex="003E"/>
  <outline>
    <contour>
      <point x="92.3751" y="578" type="line"/>
      <point x="208.09" y="385" type="line"/>
      <point x="203.045" y="337" type="line"/>
      <point x="46.865" y="145" type="line"/>
      <point x="33.7058" y="153" type="line"/>
      <point x="151.568" y="361" type="line"/>
      <point x="77.4292" y="569" type="line"/>
    </contour>
  </outline>
</glyph>
<glyph name="question" format="2">
  <advance width="540"/>
  <unicode hex="003F"/>
  <outline>
    <contour>
      <point x="169.578" y="40" type="line"/>
      <point x="171.786" y="61"/>
      <point x="190.677" y="79"/>
      <point x="212.677" y="79" type="curve" smooth="yes"/>
      <point x="234.677" y="79"/>
      <point x="250.786" y="61"/>
      <point x="248.578" y="40" type="curve" smooth="yes"/>
      <point x="246.266" y="18"/>
      <point x="226.374" y="0"/>
      <point x="204.374" y="0" type="curve" smooth="yes"/>
      <point x="182.374" y="0"/>
      <point x="167.266" y="18"/>
      <point x="169.578" y="40" type="curve"/>
    </contour>
    <contour>
      <point x="265.287" y="218" type="line"/>
      <point x="259.927" y="167" type="line"/>
      <point x="183.927" y="167" type="line"/>
      <point x="189.287" y="218" type="line" smooth="yes"/>
      <point x="194.437" y="267"/>
      <point x="225.797" y="318"/>
      <point x="275.896" y="357" type="curve" smooth="yes"/>
      <point x="378.41" y="438" type="line" smooth="yes"/>
      <point x="409.932" y="462"/>
      <point x="431.347" y="504"/>
      <point x="436.392" y="552" type="curve" smooth="yes"/>
      <point x="445.115" y="635"/>
      <point x="394.262" y="703"/>
      <point x="323.262" y="703" type="curve" smooth="yes"/>
      <point x="287.262" y="703" type="line" smooth="yes"/>
      <point x="216.262" y="703"/>
      <point x="151.115" y="635"/>
      <point x="142.392" y="552" type="curve" smooth="yes"/>
      <point x="137.452" y="505" type="line"/>
      <point x="61.4518" y="505" type="line"/>
      <point x="66.3917" y="552" type="line" smooth="yes"/>
      <point x="77.0073" y="653"/>
      <point x="177.626" y="735"/>
      <point x="290.626" y="735" type="curve" smooth="yes"/>
      <point x="326.626" y="735" type="line" smooth="yes"/>
      <point x="439.626" y="735"/>
      <point x="522.007" y="653"/>
      <point x="511.392" y="552" type="curve" smooth="yes"/>
      <point x="506.242" y="503"/>
      <point x="474.881" y="452"/>
      <point x="425.782" y="413" type="curve" smooth="yes"/>
      <point x="322.269" y="332" type="line" smooth="yes"/>
      <point x="290.746" y="308"/>
      <point x="270.332" y="266"/>
      <point x="265.287" y="218" type="curve"/>
    </contour>
  </outline>
</glyph>
<glyph name="at" format="2">
  <advance width="873"/>
  <unicode hex="0040"/>
  <outline>
    <contour>
      <point x="453.678" y="736" type="line"/>
      <point x="609.678" y="736" type="line" smooth="yes"/>
      <point x="750.678" y="736"/>
      <point x="852.696" y="622"/>
      <point x="837.877" y="481" type="curve" smooth="yes"/>
      <point x="824.949" y="358" type="line" smooth="yes"/>
      <point x="815.279" y="266"/>
      <point x="732.397" y="191"/>
      <point x="639.397" y="191" type="curve" smooth="yes"/>
      <point x="633.397" y="191" type="line" smooth="yes"/>
      <point x="574.397" y="191"/>
      <point x="527.655" y="222"/>
      <point x="504.279" y="266" type="curve"/>
      <point x="465.445" y="220"/>
      <point x="408.397" y="191"/>
      <point x="349.397" y="191" type="curve"/>
      <point x="348.397" y="191" type="line"/>
      <point x="273.397" y="191"/>
      <point x="222.913" y="253"/>
      <point x="230.27" y="323" type="curve" smooth="yes"/>
      <point x="231.847" y="338"/>
      <point x="236.423" y="353"/>
      <point x="243" y="368" type="curve" smooth="yes"/>
      <point x="281.724" y="451" type="line" smooth="yes"/>
      <point x="313.766" y="518"/>
      <point x="382.495" y="563"/>
      <point x="453.495" y="563" type="curve" smooth="yes"/>
      <point x="574.495" y="563" type="line"/>
      <point x="638.868" y="538" type="line"/>
      <point x="552.634" y="355" type="line"/>
      <point x="548.583" y="345"/>
      <point x="545.426" y="334"/>
      <point x="544.375" y="324" type="curve" smooth="yes"/>
      <point x="538.7" y="270"/>
      <point x="576.865" y="224"/>
      <point x="634.865" y="224" type="curve" smooth="yes"/>
      <point x="689.865" y="224"/>
      <point x="739.595" y="269"/>
      <point x="745.375" y="324" type="curve" smooth="yes"/>
      <point x="765.871" y="519" type="line" smooth="yes"/>
      <point x="776.591" y="621"/>
      <point x="703.21" y="703"/>
      <point x="601.21" y="703" type="curve" smooth="yes"/>
      <point x="493.21" y="703" type="line" smooth="yes"/>
      <point x="308.21" y="703"/>
      <point x="142.444" y="553"/>
      <point x="123" y="368" type="curve" smooth="yes"/>
      <point x="103.556" y="183"/>
      <point x="237.79" y="33"/>
      <point x="422.79" y="33" type="curve" smooth="yes"/>
      <point x="557.79" y="33" type="line"/>
      <point x="554.322" y="0" type="line"/>
      <point x="376.322" y="0" type="line" smooth="yes"/>
      <point x="173.322" y="0"/>
      <point x="25.6638" y="165"/>
      <point x="47" y="368" type="curve" smooth="yes"/>
      <point x="68.3362" y="571"/>
      <point x="250.678" y="736"/>
      <point x="453.678" y="736" type="curve"/>
    </contour>
    <contour>
      <point x="361.865" y="224" type="line"/>
      <point x="393.865" y="224"/>
      <point x="424.967" y="244"/>
      <point x="440.225" y="275" type="curve"/>
      <point x="502.309" y="409" type="line"/>
      <point x="503.309" y="409"/>
      <point x="503.414" y="410"/>
      <point x="503.414" y="410" type="curve"/>
      <point x="557.606" y="526" type="line"/>
      <point x="472.606" y="526" type="line" smooth="yes"/>
      <point x="424.606" y="526"/>
      <point x="378.453" y="496"/>
      <point x="357.724" y="451" type="curve" smooth="yes"/>
      <point x="299.796" y="328" type="line" smooth="yes"/>
      <point x="295.85" y="319"/>
      <point x="292.904" y="310"/>
      <point x="291.958" y="301" type="curve" smooth="yes"/>
      <point x="287.649" y="260"/>
      <point x="316.865" y="224"/>
      <point x="361.865" y="224" type="curve"/>
    </contour>
  </outline>
</glyph>
<glyph name="A" format="2">
  <advance width="603"/>
  <unicode hex="0041"/>
  <outline>
    <contour>
      <point x="348.678" y="736" type="line"/>
      <point x="557.322" y="0" type="line"/>
      <point x="481.322" y="0" type="line"/>
      <point x="380.159" y="360" type="line"/>
      <point x="217.592" y="288"/>
      <point x="83.1383" y="160"/>
      <point x="4.32164" y="0" type="curve"/>
      <point x="-30.6784" y="0" type="line"/>
      <point x="327.798" y="728.225" type="line"/>
      <point x="348.678" y="736" type="line"/>
    </contour>
    <contour>
      <point x="307.961" y="615" type="line"/>
      <point x="103.342" y="200" type="line"/>
      <point x="177.961" y="282"/>
      <point x="269.793" y="347"/>
      <point x="371.417" y="391" type="curve"/>
    </contour>
  </outline>
</glyph>
<glyph name="B" format="2">
  <advance width="562"/>
  <unicode hex="0042"/>
  <outline>
    <contour>
      <point x="392.051" y="378" type="line"/>
      <point x="472.739" y="356"/>
      <point x="524.856" y="281"/>
      <point x="515.502" y="192" type="curve" smooth="yes"/>
      <point x="504.361" y="86"/>
      <point x="409.322" y="0"/>
      <point x="303.322" y="0" type="curve" smooth="yes"/>
      <point x="19.3216" y="0" type="line"/>
      <point x="93.2099" y="703" type="line"/>
      <point x="34.2099" y="703" type="line"/>
      <point x="37.6784" y="736" type="line"/>
      <point x="332.678" y="736" type="line" smooth="yes"/>
      <point x="438.678" y="736"/>
      <point x="515.534" y="649"/>
      <point x="504.393" y="543" type="curve" smooth="yes"/>
      <point x="497.036" y="473"/>
      <point x="452.519" y="411"/>
      <point x="392.051" y="378" type="curve"/>
    </contour>
    <contour>
      <point x="439.502" y="192" type="line"/>
      <point x="448.751" y="280"/>
      <point x="385.213" y="351"/>
      <point x="297.213" y="351" type="curve" smooth="yes"/>
      <point x="239.213" y="351" type="line"/>
      <point x="242.682" y="384" type="line"/>
      <point x="252.682" y="384" type="line" smooth="yes"/>
      <point x="340.682" y="384"/>
      <point x="419.144" y="455"/>
      <point x="428.393" y="543" type="curve" smooth="yes"/>
      <point x="437.642" y="631"/>
      <point x="374.21" y="703"/>
      <point x="286.21" y="703" type="curve" smooth="yes"/>
      <point x="169.21" y="703" type="line"/>
      <point x="98.7901" y="33" type="line"/>
      <point x="263.79" y="33" type="line" smooth="yes"/>
      <point x="351.79" y="33"/>
      <point x="430.252" y="104"/>
      <point x="439.502" y="192" type="curve"/>
    </contour>
  </outline>
</glyph>
<glyph name="C" format="2">
  <advance width="690"/>
  <unicode hex="0043"/>
  <outline>
    <contour>
      <point x="338.79" y="33" type="line"/>
      <point x="339.79" y="33" type="line"/>
      <point x="444.79" y="33"/>
      <point x="541.622" y="98"/>
      <point x="588.186" y="189" type="curve"/>
      <point x="640.559" y="164" type="line"/>
      <point x="576.259" y="66"/>
      <point x="466.322" y="0"/>
      <point x="347.322" y="0" type="curve" smooth="yes"/>
      <point x="324.322" y="0" type="line" smooth="yes"/>
      <point x="150.322" y="0"/>
      <point x="24.1413" y="141"/>
      <point x="42.4295" y="315" type="curve" smooth="yes"/>
      <point x="53.5705" y="421" type="line" smooth="yes"/>
      <point x="71.7536" y="594"/>
      <point x="227.678" y="736"/>
      <point x="401.678" y="736" type="curve" smooth="yes"/>
      <point x="424.678" y="736" type="line" smooth="yes"/>
      <point x="543.678" y="736"/>
      <point x="639.636" y="669"/>
      <point x="683.441" y="572" type="curve"/>
      <point x="625.709" y="546" type="line"/>
      <point x="598.378" y="638"/>
      <point x="515.21" y="703"/>
      <point x="410.21" y="703" type="curve"/>
      <point x="409.21" y="703" type="line"/>
      <point x="271.21" y="703"/>
      <point x="147.438" y="591"/>
      <point x="132.934" y="453" type="curve" smooth="yes"/>
      <point x="115.066" y="283" type="line" smooth="yes"/>
      <point x="100.562" y="145"/>
      <point x="200.79" y="33"/>
      <point x="338.79" y="33" type="curve"/>
    </contour>
  </outline>
</glyph>
<glyph name="E" format="2">
  <advance width="533"/>
  <unicode hex="0045"/>
  <outline>
    <contour>
      <point x="571.573" y="735" type="line"/>
      <point x="568.21" y="703" type="line"/>
      <point x="169.21" y="703" type="line"/>
      <point x="135.682" y="384" type="line"/>
      <point x="428.682" y="384" type="line"/>
      <point x="425.213" y="351" type="line"/>
      <point x="132.213" y="351" type="line"/>
      <point x="104.045" y="83" type="line" smooth="yes"/>
      <point x="101.102" y="55"/>
      <point x="121.79" y="33"/>
      <point x="148.79" y="33" type="curve" smooth="yes"/>
      <point x="497.79" y="33" type="line"/>
      <point x="494.322" y="0" type="line"/>
      <point x="101.322" y="0" type="line" smooth="yes"/>
      <point x="56.3216" y="0"/>
      <point x="23.2105" y="37"/>
      <point x="27.9402" y="82" type="curve" smooth="yes"/>
      <point x="93.2099" y="703" type="line"/>
      <point x="34.2099" y="703" type="line"/>
      <point x="37.6784" y="736" type="line"/>
    </contour>
  </outline>
</glyph>
<glyph name="F" format="2">
  <advance width="483"/>
  <unicode hex="0046"/>
  <outline>
    <contour>
      <point x="96.3216" y="0" type="line"/>
      <point x="20.3216" y="0" type="line"/>
      <point x="94.2099" y="703" type="line"/>
      <point x="35.2099" y="703" type="line"/>
      <point x="38.6784" y="736" type="line"/>
      <point x="521.678" y="736" type="line"/>
      <point x="518.21" y="703" type="line"/>
      <point x="170.21" y="703" type="line"/>
      <point x="136.682" y="384" type="line"/>
      <point x="428.682" y="384" type="line"/>
      <point x="425.213" y="351" type="line"/>
      <point x="133.213" y="351" type="line"/>
      <point x="96.3216" y="0" type="line"/>
    </contour>
  </outline>
</glyph>
<glyph name="G" format="2">
  <advance width="709"/>
  <unicode hex="0047"/>
  <outline>
    <contour>
      <point x="505.213" y="351" type="line"/>
      <point x="508.682" y="384" type="line"/>
      <point x="663.682" y="384" type="line"/>
      <point x="623.322" y="0" type="line"/>
      <point x="324.322" y="0" type="line" smooth="yes"/>
      <point x="150.322" y="0"/>
      <point x="24.1413" y="141"/>
      <point x="42.4295" y="315" type="curve" smooth="yes"/>
      <point x="53.5705" y="421" type="line" smooth="yes"/>
      <point x="71.7536" y="594"/>
      <point x="227.678" y="736"/>
      <point x="401.678" y="736" type="curve" smooth="yes"/>
      <point x="423.678" y="736" type="line" smooth="yes"/>
      <point x="542.678" y="736"/>
      <point x="639.636" y="669"/>
      <point x="683.441" y="572" type="curve"/>
      <point x="624.709" y="546" type="line"/>
      <point x="597.378" y="638"/>
      <point x="514.21" y="703"/>
      <point x="409.21" y="703" type="curve"/>
      <point x="408.21" y="703" type="line"/>
      <point x="270.21" y="703"/>
      <point x="146.438" y="591"/>
      <point x="131.934" y="453" type="curve" smooth="yes"/>
      <point x="114.066" y="283" type="line" smooth="yes"/>
      <point x="99.5618" y="145"/>
      <point x="199.79" y="33"/>
      <point x="337.79" y="33" type="curve" smooth="yes"/>
      <point x="550.79" y="33" type="line"/>
      <point x="584.213" y="351" type="line"/>
      <point x="505.213" y="351" type="line"/>
    </contour>
  </outline>
</glyph>
<glyph name="H" format="2">
  <advance width="619"/>
  <unicode hex="0048"/>
  <outline>
    <contour>
      <point x="609.678" y="736" type="line"/>
      <point x="532.322" y="0" type="line"/>
      <point x="456.322" y="0" type="line"/>
      <point x="493.213" y="351" type="line"/>
      <point x="121.213" y="351" type="line"/>
      <point x="84.3216" y="0" type="line"/>
      <point x="8.32164" y="0" type="line"/>
      <point x="85.6784" y="736" type="line"/>
      <point x="161.678" y="736" type="line"/>
      <point x="124.682" y="384" type="line"/>
      <point x="496.682" y="384" type="line"/>
      <point x="533.678" y="736" type="line"/>
      <point x="609.678" y="736" type="line"/>
    </contour>
  </outline>
</glyph>
<glyph name="I" format="2">
  <advance width="343"/>
  <unicode hex="0049"/>
  <outline>
    <contour>
      <point x="244.21" y="703" type="line"/>
      <point x="180.727" y="99" type="line"/>
      <point x="144.79" y="33" type="line"/>
      <point x="260.79" y="33" type="line"/>
      <point x="257.322" y="0" type="line"/>
      <point x="8.32164" y="0" type="line"/>
      <point x="11.7901" y="33" type="line"/>
      <point x="98.7901" y="33" type="line"/>
      <point x="169.21" y="703" type="line"/>
      <point x="82.2099" y="703" type="line"/>
      <point x="85.6784" y="736" type="line"/>
      <point x="334.678" y="736" type="line"/>
      <point x="331.21" y="703" type="line"/>
      <point x="244.21" y="703" type="line"/>
    </contour>
  </outline>
</glyph>
<glyph name="J" format="2">
  <advance width="196"/>
  <unicode hex="004A"/>
  <outline>
    <contour>
      <point x="108.21" y="703" type="line"/>
      <point x="34.2099" y="703" type="line"/>
      <point x="37.6784" y="736" type="line"/>
      <point x="187.678" y="736" type="line"/>
      <point x="107.589" y="-26" type="line" smooth="yes"/>
      <point x="102.859" y="-71"/>
      <point x="80.2347" y="-115"/>
      <point x="44.8713" y="-147" type="curve" smooth="yes"/>
      <point x="-66.6391" y="-247" type="line"/>
      <point x="-62.7502" y="-210" type="line"/>
      <point x="-26.3869" y="-178" type="line" smooth="yes"/>
      <point x="3.4509" y="-151"/>
      <point x="22.2347" y="-115"/>
      <point x="26.2286" y="-77" type="curve" smooth="yes"/>
      <point x="108.21" y="703" type="line"/>
    </contour>
  </outline>
</glyph>
<glyph name="K" format="2">
  <advance width="565"/>
  <unicode hex="004B"/>
  <outline>
    <contour>
      <point x="34.2099" y="703" type="line"/>
      <point x="37.6784" y="736" type="line"/>
      <point x="172.678" y="736" type="line"/>
      <point x="95.3216" y="0" type="line"/>
      <point x="19.3216" y="0" type="line"/>
      <point x="93.2099" y="703" type="line"/>
      <point x="34.2099" y="703" type="line"/>
    </contour>
    <contour>
      <point x="378.856" y="281" type="line"/>
      <point x="498.322" y="0" type="line"/>
      <point x="412.322" y="0" type="line"/>
      <point x="280.694" y="308" type="line" smooth="yes"/>
      <point x="269.532" y="335"/>
      <point x="243.213" y="351"/>
      <point x="213.213" y="351" type="curve" smooth="yes"/>
      <point x="161.213" y="351" type="line"/>
      <point x="164.682" y="384" type="line"/>
      <point x="216.682" y="384" type="line" smooth="yes"/>
      <point x="246.682" y="384"/>
      <point x="276.468" y="401"/>
      <point x="293.306" y="428" type="curve" smooth="yes"/>
      <point x="489.678" y="736" type="line"/>
      <point x="575.678" y="736" type="line"/>
      <point x="397.144" y="455" type="line" smooth="yes"/>
      <point x="371.94" y="415"/>
      <point x="334.787" y="385"/>
      <point x="294" y="368" type="curve"/>
      <point x="331.108" y="350"/>
      <point x="361.955" y="320"/>
      <point x="378.856" y="281" type="curve"/>
    </contour>
  </outline>
</glyph>
<glyph name="L" format="2">
  <advance width="551"/>
  <unicode hex="004C"/>
  <outline>
    <contour>
      <point x="487.79" y="33" type="line"/>
      <point x="484.322" y="0" type="line"/>
      <point x="102.322" y="0" type="line" smooth="yes"/>
      <point x="56.3216" y="0"/>
      <point x="24.2105" y="37"/>
      <point x="28.9402" y="82" type="curve"/>
      <point x="93.2099" y="703" type="line"/>
      <point x="34.2099" y="703" type="line"/>
      <point x="37.6784" y="736" type="line"/>
      <point x="172.678" y="736" type="line"/>
      <point x="104.045" y="83" type="line" smooth="yes"/>
      <point x="101.102" y="55"/>
      <point x="121.79" y="33"/>
      <point x="148.79" y="33" type="curve" smooth="yes"/>
      <point x="487.79" y="33" type="line"/>
    </contour>
  </outline>
</glyph>
<glyph name="M" format="2">
  <advance width="794"/>
  <unicode hex="004D"/>
  <outline>
    <contour>
      <point x="704.678" y="736" type="line"/>
      <point x="785.573" y="735" type="line"/>
      <point x="708.322" y="0" type="line"/>
      <point x="632.322" y="0" type="line"/>
      <point x="702.636" y="669" type="line"/>
      <point x="396.301" y="133" type="line"/>
      <point x="317.301" y="133" type="line"/>
      <point x="123.636" y="669" type="line"/>
      <point x="53.3216" y="0" type="line"/>
      <point x="20.3216" y="0" type="line"/>
      <point x="94.2099" y="703" type="line"/>
      <point x="35.2099" y="703" type="line"/>
      <point x="38.6784" y="736" type="line"/>
      <point x="178.678" y="736" type="line"/>
      <point x="382.4" y="172" type="line"/>
    </contour>
  </outline>
</glyph>
<glyph name="N" format="2">
  <advance width="628"/>
  <unicode hex="004E"/>
  <outline>
    <contour>
      <point x="618.678" y="736" type="line"/>
      <point x="541.322" y="0" type="line"/>
      <point x="491.322" y="0" type="line"/>
      <point x="118.222" y="627" type="line"/>
      <point x="52.3216" y="0" type="line"/>
      <point x="19.3216" y="0" type="line"/>
      <point x="93.2099" y="703" type="line"/>
      <point x="34.2099" y="703" type="line"/>
      <point x="37.6784" y="736" type="line"/>
      <point x="146.678" y="736" type="line"/>
      <point x="519.673" y="108" type="line"/>
      <point x="585.678" y="736" type="line"/>
      <point x="618.678" y="736" type="line"/>
    </contour>
  </outline>
</glyph>
<glyph name="O" format="2">
  <advance width="748"/>
  <unicode hex="004F"/>
  <outline>
    <contour>
      <point x="42.4295" y="315" type="line"/>
      <point x="53.5705" y="421" type="line" smooth="yes"/>
      <point x="71.7536" y="594"/>
      <point x="227.678" y="736"/>
      <point x="401.678" y="736" type="curve" smooth="yes"/>
      <point x="423.678" y="736" type="line" smooth="yes"/>
      <point x="597.678" y="736"/>
      <point x="723.754" y="594"/>
      <point x="705.571" y="421" type="curve" smooth="yes"/>
      <point x="694.429" y="315" type="line" smooth="yes"/>
      <point x="676.141" y="141"/>
      <point x="520.322" y="0"/>
      <point x="346.322" y="0" type="curve" smooth="yes"/>
      <point x="324.322" y="0" type="line" smooth="yes"/>
      <point x="150.322" y="0"/>
      <point x="24.1413" y="141"/>
      <point x="42.4295" y="315" type="curve"/>
    </contour>
    <contour>
      <point x="132.934" y="453" type="line"/>
      <point x="115.066" y="283" type="line" smooth="yes"/>
      <point x="100.562" y="145"/>
      <point x="199.79" y="33"/>
      <point x="338.79" y="33" type="curve" smooth="yes"/>
      <point x="477.79" y="33"/>
      <point x="600.562" y="145"/>
      <point x="615.066" y="283" type="curve" smooth="yes"/>
      <point x="632.934" y="453" type="line" smooth="yes"/>
      <point x="647.438" y="591"/>
      <point x="548.21" y="703"/>
      <point x="409.21" y="703" type="curve" smooth="yes"/>
      <point x="270.21" y="703"/>
      <point x="147.438" y="591"/>
      <point x="132.934" y="453" type="curve"/>
    </contour>
  </outline>
</glyph>
<glyph name="P" format="2">
  <advance width="562"/>
  <unicode hex="0050"/>
  <outline>
    <contour>
      <point x="293.964" y="263" type="line"/>
      <point x="155.964" y="263" type="line"/>
      <point x="159.432" y="296" type="line"/>
      <point x="247.432" y="296" type="line" smooth="yes"/>
      <point x="360.432" y="296"/>
      <point x="460.997" y="387"/>
      <point x="472.769" y="499" type="curve" smooth="yes"/>
      <point x="484.645" y="612"/>
      <point x="403.21" y="703"/>
      <point x="290.21" y="703" type="curve" smooth="yes"/>
      <point x="170.21" y="703" type="line"/>
      <point x="96.3216" y="0" type="line"/>
      <point x="20.3216" y="0" type="line"/>
      <point x="94.2099" y="703" type="line"/>
      <point x="34.2099" y="703" type="line"/>
      <point x="37.6784" y="736" type="line"/>
      <point x="336.678" y="736" type="line" smooth="yes"/>
      <point x="467.678" y="736"/>
      <point x="562.537" y="630"/>
      <point x="548.769" y="499" type="curve" smooth="yes"/>
      <point x="535.315" y="371"/>
      <point x="421.384" y="267"/>
      <point x="293.964" y="263" type="curve"/>
    </contour>
  </outline>
</glyph>
<glyph name="Q" format="2">
  <advance width="754"/>
  <unicode hex="0051"/>
  <outline>
    <contour>
      <point x="542.652" y="-92" type="line"/>
      <point x="669.376" y="-9" type="line"/>
      <point x="692.382" y="-47" type="line"/>
      <point x="583.814" y="-119" type="line" smooth="yes"/>
      <point x="560.133" y="-135"/>
      <point x="528.187" y="-144"/>
      <point x="493.187" y="-144" type="curve" smooth="yes"/>
      <point x="417.187" y="-144"/>
      <point x="364.496" y="-103"/>
      <point x="355.382" y="-47" type="curve"/>
      <point x="355.382" y="-47"/>
      <point x="351.379" y="-28"/>
      <point x="346.322" y="0" type="curve"/>
      <point x="324.322" y="0" type="line" smooth="yes"/>
      <point x="150.322" y="0"/>
      <point x="24.1413" y="141"/>
      <point x="42.4295" y="315" type="curve" smooth="yes"/>
      <point x="53.5705" y="421" type="line" smooth="yes"/>
      <point x="71.7536" y="594"/>
      <point x="227.678" y="736"/>
      <point x="401.678" y="736" type="curve" smooth="yes"/>
      <point x="424.678" y="736" type="line" smooth="yes"/>
      <point x="598.678" y="736"/>
      <point x="724.754" y="594"/>
      <point x="706.571" y="421" type="curve" smooth="yes"/>
      <point x="695.429" y="315" type="line" smooth="yes"/>
      <point x="679.769" y="166"/>
      <point x="562.631" y="41"/>
      <point x="420.162" y="8" type="curve"/>
      <point x="429.223" y="-39" type="line" smooth="yes"/>
      <point x="436.598" y="-83"/>
      <point x="466.655" y="-111"/>
      <point x="496.655" y="-111" type="curve" smooth="yes"/>
      <point x="508.655" y="-111"/>
      <point x="524.286" y="-105"/>
      <point x="542.652" y="-92" type="curve"/>
    </contour>
    <contour>
      <point x="338.79" y="33" type="line"/>
      <point x="340.79" y="33" type="line"/>
      <point x="331.835" y="81"/>
      <point x="322.721" y="137"/>
      <point x="318.718" y="156" type="curve"/>
      <point x="311.237" y="199"/>
      <point x="284.391" y="229"/>
      <point x="252.391" y="229" type="curve" smooth="yes"/>
      <point x="195.391" y="229" type="line"/>
      <point x="198.754" y="261" type="line"/>
      <point x="255.754" y="261" type="line" smooth="yes"/>
      <point x="326.754" y="261"/>
      <point x="382.655" y="222"/>
      <point x="392.664" y="165" type="curve" smooth="yes"/>
      <point x="413.946" y="44" type="line"/>
      <point x="520.204" y="75"/>
      <point x="604.189" y="170"/>
      <point x="616.066" y="283" type="curve" smooth="yes"/>
      <point x="633.934" y="453" type="line" smooth="yes"/>
      <point x="648.438" y="591"/>
      <point x="548.21" y="703"/>
      <point x="410.21" y="703" type="curve"/>
      <point x="409.21" y="703" type="line"/>
      <point x="271.21" y="703"/>
      <point x="147.438" y="591"/>
      <point x="132.934" y="453" type="curve" smooth="yes"/>
      <point x="115.066" y="283" type="line" smooth="yes"/>
      <point x="100.562" y="145"/>
      <point x="200.79" y="33"/>
      <point x="338.79" y="33" type="curve"/>
    </contour>
  </outline>
</glyph>
<glyph name="R" format="2">
  <advance width="623"/>
  <unicode hex="0052"/>
  <outline>
    <contour>
      <point x="533.79" y="33" type="line"/>
      <point x="607.79" y="33" type="line"/>
      <point x="604.322" y="0" type="line"/>
      <point x="507.322" y="0" type="line" smooth="yes"/>
      <point x="451.322" y="0"/>
      <point x="403.58" y="31"/>
      <point x="382.73" y="80" type="curve" smooth="yes"/>
      <point x="284.114" y="312" type="line" smooth="yes"/>
      <point x="273.637" y="336"/>
      <point x="249.213" y="351"/>
      <point x="222.213" y="351" type="curve" smooth="yes"/>
      <point x="165.213" y="351" type="line"/>
      <point x="168.682" y="384" type="line"/>
      <point x="248.682" y="384" type="line" smooth="yes"/>
      <point x="294.682" y="384"/>
      <point x="335.474" y="363"/>
      <point x="359.796" y="328" type="curve"/>
      <point x="420.58" y="364"/>
      <point x="464.201" y="427"/>
      <point x="471.769" y="499" type="curve" smooth="yes"/>
      <point x="483.645" y="612"/>
      <point x="402.21" y="703"/>
      <point x="290.21" y="703" type="curve" smooth="yes"/>
      <point x="169.21" y="703" type="line"/>
      <point x="95.3216" y="0" type="line"/>
      <point x="19.3216" y="0" type="line"/>
      <point x="93.2099" y="703" type="line"/>
      <point x="34.2099" y="703" type="line"/>
      <point x="37.6784" y="736" type="line"/>
      <point x="336.678" y="736" type="line" smooth="yes"/>
      <point x="466.678" y="736"/>
      <point x="561.537" y="630"/>
      <point x="547.769" y="499" type="curve" smooth="yes"/>
      <point x="537.574" y="402"/>
      <point x="469.85" y="319"/>
      <point x="381.961" y="282" type="curve"/>
      <point x="471.994" y="73" type="line" smooth="yes"/>
      <point x="482.367" y="48"/>
      <point x="505.79" y="33"/>
      <point x="533.79" y="33" type="curve"/>
    </contour>
  </outline>
</glyph>
<glyph name="T" format="2">
  <advance width="501"/>
  <unicode hex="0054"/>
  <outline>
    <contour>
      <point x="26.6784" y="736" type="line"/>
      <point x="551.678" y="736" type="line"/>
      <point x="548.21" y="703" type="line"/>
      <point x="323.21" y="703" type="line"/>
      <point x="249.322" y="0" type="line"/>
      <point x="174.322" y="0" type="line"/>
      <point x="248.21" y="703" type="line"/>
      <point x="23.2099" y="703" type="line"/>
      <point x="26.6784" y="736" type="line"/>
    </contour>
  </outline>
</glyph>
<glyph name="U" format="2">
  <advance width="607"/>
  <unicode hex="0055"/>
  <outline>
    <contour>
      <point x="466.078" y="207" type="line"/>
      <point x="521.678" y="736" type="line"/>
      <point x="597.678" y="736" type="line"/>
      <point x="546.598" y="250" type="line" smooth="yes"/>
      <point x="532.093" y="112"/>
      <point x="408.322" y="0"/>
      <point x="270.322" y="0" type="curve" smooth="yes"/>
      <point x="132.322" y="0"/>
      <point x="32.0933" y="112"/>
      <point x="46.5977" y="250" type="curve" smooth="yes"/>
      <point x="94.2099" y="703" type="line"/>
      <point x="35.2099" y="703" type="line"/>
      <point x="38.6784" y="736" type="line"/>
      <point x="173.678" y="736" type="line"/>
      <point x="118.078" y="207" type="line" smooth="yes"/>
      <point x="107.988" y="111"/>
      <point x="177.79" y="33"/>
      <point x="273.79" y="33" type="curve" smooth="yes"/>
      <point x="369.79" y="33"/>
      <point x="455.988" y="111"/>
      <point x="466.078" y="207" type="curve"/>
    </contour>
  </outline>
</glyph>
<glyph name="V" format="2">
  <advance width="532"/>
  <unicode hex="0056"/>
  <outline>
    <contour>
      <point x="518.678" y="736" type="line"/>
      <point x="552.678" y="736" type="line"/>
      <point x="242.322" y="0" type="line"/>
      <point x="211.322" y="0" type="line"/>
      <point x="55.6784" y="736" type="line"/>
      <point x="134.678" y="736" type="line"/>
      <point x="262.985" y="130" type="line"/>
    </contour>
  </outline>
</glyph>
<glyph name="W" format="2">
  <advance width="866"/>
  <unicode hex="0057"/>
  <outline>
    <contour>
      <point x="852.678" y="736" type="line"/>
      <point x="887.678" y="736" type="line"/>
      <point x="577.322" y="0" type="line"/>
      <point x="545.322" y="0" type="line"/>
      <point x="455.411" y="429" type="line"/>
      <point x="274.322" y="0" type="line"/>
      <point x="242.322" y="0" type="line"/>
      <point x="94.2099" y="703" type="line"/>
      <point x="35.2099" y="703" type="line"/>
      <point x="38.6784" y="736" type="line"/>
      <point x="166.573" y="735" type="line"/>
      <point x="293.985" y="130" type="line"/>
      <point x="443.192" y="484" type="line"/>
      <point x="390.678" y="736" type="line"/>
      <point x="469.678" y="736" type="line"/>
      <point x="597.985" y="130" type="line"/>
    </contour>
  </outline>
</glyph>
<glyph name="X" format="2">
  <advance width="583"/>
  <unicode hex="0058"/>
  <outline>
    <contour>
      <point x="527.322" y="0" type="line"/>
      <point x="438.322" y="0" type="line"/>
      <point x="272.745" y="318" type="line"/>
      <point x="40.3216" y="0" type="line"/>
      <point x="0.321641" y="0" type="line"/>
      <point x="256.108" y="350" type="line"/>
      <point x="55.6784" y="736" type="line"/>
      <point x="144.678" y="736" type="line"/>
      <point x="308.571" y="421" type="line"/>
      <point x="537.678" y="736" type="line"/>
      <point x="576.678" y="736" type="line"/>
      <point x="324.312" y="390" type="line"/>
    </contour>
  </outline>
</glyph>
<glyph name="Y" format="2">
  <advance width="601"/>
  <unicode hex="0059"/>
  <outline>
    <contour>
      <point x="312.322" y="0" type="line"/>
      <point x="236.322" y="0" type="line"/>
      <point x="267.222" y="294" type="line"/>
      <point x="94.2099" y="703" type="line"/>
      <point x="35.2099" y="703" type="line"/>
      <point x="38.6784" y="736" type="line"/>
      <point x="165.678" y="736" type="line"/>
      <point x="333.847" y="338" type="line"/>
      <point x="584.678" y="736" type="line"/>
      <point x="621.678" y="736" type="line"/>
      <point x="343.222" y="294" type="line"/>
      <point x="312.322" y="0" type="line"/>
    </contour>
  </outline>
</glyph>
<glyph name="Z" format="2">
  <advance width="596"/>
  <unicode hex="005A"/>
  <outline>
    <contour>
      <point x="542.79" y="33" type="line"/>
      <point x="539.322" y="0" type="line"/>
      <point x="-21.6784" y="0" type="line"/>
      <point x="-18.2099" y="33" type="line"/>
      <point x="522.21" y="703" type="line"/>
      <point x="52.2099" y="703" type="line"/>
      <point x="55.6784" y="736" type="line"/>
      <point x="616.678" y="736" type="line"/>
      <point x="613.21" y="703" type="line"/>
      <point x="73.7901" y="33" type="line"/>
      <point x="542.79" y="33" type="line"/>
    </contour>
  </outline>
</glyph>
<glyph name="bracketleft" format="2">
  <advance width="258"/>
  <unicode hex="005B"/>
  <outline>
    <contour>
      <point x="9.32164" y="0" type="line"/>
      <point x="86.6784" y="736" type="line"/>
      <point x="248.678" y="736" type="line"/>
      <point x="245.21" y="703" type="line"/>
      <point x="159.21" y="703" type="line"/>
      <point x="88.7901" y="33" type="line"/>
      <point x="174.79" y="33" type="line"/>
      <point x="171.322" y="0" type="line"/>
      <point x="9.32164" y="0" type="line"/>
    </contour>
  </outline>
</glyph>
<glyph name="backslash" format="2">
  <advance width="640"/>
  <unicode hex="005C"/>
  <outline>
    <contour>
      <point x="553.374" y="0" type="line"/>
      <point x="491.374" y="0" type="line"/>
      <point x="86.6258" y="735" type="line"/>
      <point x="148.626" y="735" type="line"/>
    </contour>
  </outline>
</glyph>
<glyph name="bracketright" format="2">
  <advance width="258"/>
  <unicode hex="005D"/>
  <outline>
    <contour>
      <point x="248.678" y="736" type="line"/>
      <point x="171.322" y="0" type="line"/>
      <point x="9.32164" y="0" type="line"/>
      <point x="12.7901" y="33" type="line"/>
      <point x="98.7901" y="33" type="line"/>
      <point x="169.21" y="703" type="line"/>
      <point x="83.2099" y="703" type="line"/>
      <point x="86.6784" y="736" type="line"/>
      <point x="248.678" y="736" type="line"/>
    </contour>
  </outline>
</glyph>
<glyph name="asciicircum" format="2">
  <advance width="315"/>
  <unicode hex="005E"/>
  <outline>
    <contour>
      <point x="293.067" y="606" type="line"/>
      <point x="280.121" y="597" type="line"/>
      <point x="194.524" y="715" type="line"/>
      <point x="84.1214" y="597" type="line"/>
      <point x="73.0674" y="606" type="line"/>
      <point x="168.626" y="735" type="line"/>
      <point x="224.626" y="735" type="line"/>
    </contour>
  </outline>
</glyph>
<glyph name="underscore" format="2">
  <advance width="543"/>
  <unicode hex="005F"/>
  <outline>
    <contour>
      <point x="46.949" y="0" type="line"/>
      <point x="49.051" y="20" type="line"/>
      <point x="497.051" y="20" type="line"/>
      <point x="494.949" y="0" type="line"/>
      <point x="46.949" y="0" type="line"/>
    </contour>
  </outline>
</glyph>
<glyph name="grave" format="2">
  <advance width="120"/>
  <unicode hex="0060"/>
  <outline>
    <contour>
      <point x="44.1963" y="841" type="line"/>
      <point x="111.196" y="841" type="line"/>
      <point x="154.473" y="758" type="line"/>
      <point x="121.16" y="736" type="line"/>
    </contour>
  </outline>
</glyph>
<glyph name="a" format="2">
  <advance width="503"/>
  <unicode hex="0061"/>
  <outline>
    <contour>
      <point x="122.482" y="561" type="line"/>
      <point x="310.482" y="561" type="line" smooth="yes"/>
      <point x="407.482" y="561"/>
      <point x="477.179" y="482"/>
      <point x="467.088" y="386" type="curve" smooth="yes"/>
      <point x="428.41" y="18" type="line"/>
      <point x="395.518" y="0" type="line"/>
      <point x="385.404" y="56" type="line"/>
      <point x="349.831" y="22"/>
      <point x="302.518" y="0"/>
      <point x="251.518" y="0" type="curve" smooth="yes"/>
      <point x="142.518" y="0" type="line" smooth="yes"/>
      <point x="81.5183" y="0"/>
      <point x="32.9326" y="42"/>
      <point x="25.1338" y="101" type="curve" smooth="yes"/>
      <point x="18.2839" y="150" type="line" smooth="yes"/>
      <point x="16.4498" y="163.685"/>
      <point x="16.3217" y="177.392"/>
      <point x="17.7408" y="190.894" type="curve" smooth="yes"/>
      <point x="25.8621" y="268.162"/>
      <point x="84.6551" y="338.719"/>
      <point x="164.356" y="360" type="curve" smooth="yes"/>
      <point x="265.194" y="387" type="line" smooth="yes"/>
      <point x="279.614" y="391"/>
      <point x="293.824" y="393"/>
      <point x="307.824" y="393" type="curve" smooth="yes"/>
      <point x="337.824" y="393"/>
      <point x="365.878" y="384"/>
      <point x="389.197" y="368" type="curve"/>
      <point x="395.503" y="428" type="line" smooth="yes"/>
      <point x="401.284" y="483"/>
      <point x="361.013" y="528"/>
      <point x="306.013" y="528" type="curve" smooth="yes"/>
      <point x="119.013" y="528" type="line"/>
      <point x="122.482" y="561" type="line"/>
    </contour>
    <contour>
      <point x="145.987" y="33" type="line"/>
      <point x="253.987" y="33" type="line" smooth="yes"/>
      <point x="308.987" y="33"/>
      <point x="358.716" y="78"/>
      <point x="364.497" y="133" type="curve" smooth="yes"/>
      <point x="377.215" y="254" type="line" smooth="yes"/>
      <point x="383.206" y="311"/>
      <point x="341.725" y="354"/>
      <point x="287.725" y="354" type="curve" smooth="yes"/>
      <point x="278.725" y="354"/>
      <point x="269.62" y="353"/>
      <point x="260.305" y="350" type="curve"/>
      <point x="190.308" y="331" type="line" smooth="yes"/>
      <point x="133.55" y="315.727"/>
      <point x="91.8795" y="265.897"/>
      <point x="86.0918" y="210.831" type="curve" smooth="yes"/>
      <point x="85.0584" y="200.999"/>
      <point x="85.1691" y="191"/>
      <point x="86.5421" y="181" type="curve" smooth="yes"/>
      <point x="100.981" y="71" type="line" smooth="yes"/>
      <point x="103.668" y="49"/>
      <point x="122.987" y="33"/>
      <point x="145.987" y="33" type="curve"/>
    </contour>
  </outline>
</glyph>
<glyph name="b" format="2">
  <advance width="604"/>
  <unicode hex="0062"/>
  <outline>
    <contour>
      <point x="327.338" y="561" type="line"/>
      <point x="465.338" y="561"/>
      <point x="564.566" y="449"/>
      <point x="550.167" y="312" type="curve" smooth="yes"/>
      <point x="543.545" y="249" type="line" smooth="yes"/>
      <point x="529.041" y="111"/>
      <point x="406.374" y="0"/>
      <point x="268.374" y="0" type="curve" smooth="yes"/>
      <point x="191.374" y="0"/>
      <point x="126.053" y="35"/>
      <point x="85.9387" y="91" type="curve"/>
      <point x="50.3742" y="0" type="line"/>
      <point x="21.2661" y="18" type="line"/>
      <point x="93.2625" y="703" type="line"/>
      <point x="34.2625" y="703" type="line"/>
      <point x="37.6258" y="735" type="line"/>
      <point x="172.626" y="735" type="line"/>
      <point x="146.98" y="491" type="line"/>
      <point x="196.5" y="534"/>
      <point x="260.338" y="561"/>
      <point x="327.338" y="561" type="curve"/>
    </contour>
    <contour>
      <point x="463.026" y="206" type="line"/>
      <point x="478.686" y="355" type="line" smooth="yes"/>
      <point x="488.671" y="450"/>
      <point x="419.869" y="528"/>
      <point x="323.869" y="528" type="curve" smooth="yes"/>
      <point x="228.869" y="528"/>
      <point x="142.671" y="450"/>
      <point x="132.686" y="355" type="curve" smooth="yes"/>
      <point x="117.026" y="206" type="line" smooth="yes"/>
      <point x="106.936" y="110"/>
      <point x="176.843" y="33"/>
      <point x="271.843" y="33" type="curve" smooth="yes"/>
      <point x="367.843" y="33"/>
      <point x="452.936" y="110"/>
      <point x="463.026" y="206" type="curve"/>
    </contour>
  </outline>
</glyph>
<glyph name="c" format="2">
  <advance width="541"/>
  <unicode hex="0063"/>
  <outline>
    <contour>
      <point x="447.389" y="151" type="line"/>
      <point x="496.761" y="126" type="line"/>
      <point x="445.879" y="51"/>
      <point x="359.518" y="0"/>
      <point x="267.518" y="0" type="curve" smooth="yes"/>
      <point x="129.518" y="0"/>
      <point x="30.1848" y="111"/>
      <point x="44.6892" y="249" type="curve" smooth="yes"/>
      <point x="51.3108" y="312" type="line" smooth="yes"/>
      <point x="65.7101" y="449"/>
      <point x="188.482" y="561"/>
      <point x="326.482" y="561" type="curve" smooth="yes"/>
      <point x="418.482" y="561"/>
      <point x="494.121" y="510"/>
      <point x="529.239" y="435" type="curve"/>
      <point x="474.611" y="410" type="line"/>
      <point x="458.758" y="478"/>
      <point x="399.013" y="528"/>
      <point x="323.013" y="528" type="curve" smooth="yes"/>
      <point x="227.013" y="528"/>
      <point x="141.815" y="450"/>
      <point x="131.83" y="355" type="curve" smooth="yes"/>
      <point x="116.17" y="206" type="line" smooth="yes"/>
      <point x="106.08" y="110"/>
      <point x="174.987" y="33"/>
      <point x="270.987" y="33" type="curve" smooth="yes"/>
      <point x="346.987" y="33"/>
      <point x="417.137" y="82"/>
      <point x="447.389" y="151" type="curve"/>
    </contour>
  </outline>
</glyph>
<glyph name="e" format="2">
  <advance width="520"/>
  <unicode hex="0065"/>
  <outline>
    <contour>
      <point x="502.482" y="561" type="line"/>
      <point x="483.668" y="382" type="line" smooth="yes"/>
      <point x="477.467" y="323"/>
      <point x="432.107" y="272"/>
      <point x="373.53" y="257" type="curve" smooth="yes"/>
      <point x="191.59" y="210" type="line"/>
      <point x="195.374" y="246" type="line"/>
      <point x="321.842" y="279" type="line" smooth="yes"/>
      <point x="366.998" y="290"/>
      <point x="402.203" y="330"/>
      <point x="407.037" y="376" type="curve" smooth="yes"/>
      <point x="423.013" y="528" type="line"/>
      <point x="286.013" y="528" type="line" smooth="yes"/>
      <point x="210.013" y="528"/>
      <point x="142.497" y="466"/>
      <point x="134.614" y="391" type="curve" smooth="yes"/>
      <point x="111.386" y="170" type="line" smooth="yes"/>
      <point x="103.398" y="94"/>
      <point x="157.987" y="33"/>
      <point x="233.987" y="33" type="curve" smooth="yes"/>
      <point x="409.987" y="33" type="line"/>
      <point x="406.518" y="0" type="line"/>
      <point x="230.518" y="0" type="line" smooth="yes"/>
      <point x="112.518" y="0"/>
      <point x="27.5032" y="95"/>
      <point x="39.9055" y="213" type="curve" smooth="yes"/>
      <point x="54.0945" y="348" type="line" smooth="yes"/>
      <point x="66.3917" y="465"/>
      <point x="171.482" y="561"/>
      <point x="289.482" y="561" type="curve" smooth="yes"/>
      <point x="502.482" y="561" type="line"/>
    </contour>
  </outline>
</glyph>
<glyph name="g" format="2">
  <advance width="592"/>
  <unicode hex="0067"/>
  <outline>
    <contour>
      <point x="543.482" y="561" type="line"/>
      <point x="572.59" y="543" type="line"/>
      <point x="515.308" y="-2" type="line" smooth="yes"/>
      <point x="501.119" y="-137"/>
      <point x="379.558" y="-247"/>
      <point x="243.558" y="-247" type="curve" smooth="yes"/>
      <point x="236.558" y="-247" type="line"/>
      <point x="28.5575" y="-247" type="line"/>
      <point x="32.026" y="-214" type="line"/>
      <point x="244.026" y="-214" type="line" smooth="yes"/>
      <point x="339.026" y="-214"/>
      <point x="425.119" y="-137"/>
      <point x="435.209" y="-41" type="curve" smooth="yes"/>
      <point x="446.876" y="70" type="line"/>
      <point x="397.356" y="27"/>
      <point x="333.518" y="0"/>
      <point x="266.518" y="0" type="curve" smooth="yes"/>
      <point x="129.518" y="0"/>
      <point x="29.1848" y="111"/>
      <point x="43.6892" y="249" type="curve" smooth="yes"/>
      <point x="50.3108" y="312" type="line" smooth="yes"/>
      <point x="64.7101" y="449"/>
      <point x="188.482" y="561"/>
      <point x="325.482" y="561" type="curve" smooth="yes"/>
      <point x="402.482" y="561"/>
      <point x="467.698" y="525"/>
      <point x="507.917" y="470" type="curve"/>
    </contour>
    <contour>
      <point x="461.17" y="206" type="line"/>
      <point x="476.83" y="355" type="line" smooth="yes"/>
      <point x="486.815" y="450"/>
      <point x="417.013" y="528"/>
      <point x="322.013" y="528" type="curve" smooth="yes"/>
      <point x="226.013" y="528"/>
      <point x="140.815" y="450"/>
      <point x="130.83" y="355" type="curve" smooth="yes"/>
      <point x="115.17" y="206" type="line" smooth="yes"/>
      <point x="105.08" y="110"/>
      <point x="173.987" y="33"/>
      <point x="269.987" y="33" type="curve" smooth="yes"/>
      <point x="364.987" y="33"/>
      <point x="451.08" y="110"/>
      <point x="461.17" y="206" type="curve"/>
    </contour>
  </outline>
</glyph>
<glyph name="h" format="2">
  <advance width="534"/>
  <unicode hex="0068"/>
  <outline>
    <contour>
      <point x="499.718" y="489" type="line"/>
      <point x="448.322" y="0" type="line"/>
      <point x="372.322" y="0" type="line"/>
      <point x="424.979" y="501" type="line"/>
      <point x="399.766" y="518"/>
      <point x="369.817" y="528"/>
      <point x="335.817" y="528" type="curve" smooth="yes"/>
      <point x="318.817" y="528" type="line" smooth="yes"/>
      <point x="226.817" y="528"/>
      <point x="143.934" y="453"/>
      <point x="134.264" y="361" type="curve" smooth="yes"/>
      <point x="96.3216" y="0" type="line"/>
      <point x="20.3216" y="0" type="line"/>
      <point x="94.2099" y="703" type="line"/>
      <point x="35.2099" y="703" type="line"/>
      <point x="38.6784" y="736" type="line"/>
      <point x="173.678" y="736" type="line"/>
      <point x="147.718" y="489" type="line"/>
      <point x="200.552" y="535"/>
      <point x="266.285" y="561"/>
      <point x="332.285" y="561" type="curve"/>
      <point x="397.18" y="560"/>
      <point x="457.447" y="534"/>
      <point x="499.718" y="489" type="curve"/>
    </contour>
  </outline>
</glyph>
<glyph name="i" format="2">
  <advance width="170"/>
  <unicode hex="0069"/>
  <outline>
    <contour>
      <point x="8.37419" y="0" type="line"/>
      <point x="67.3377" y="561" type="line"/>
      <point x="143.338" y="561" type="line"/>
      <point x="84.3742" y="0" type="line"/>
      <point x="8.37419" y="0" type="line"/>
    </contour>
    <contour>
      <point x="122.851" y="642" type="line"/>
      <point x="85.6258" y="735" type="line"/>
      <point x="161.626" y="735" type="line"/>
      <point x="151.851" y="642" type="line"/>
      <point x="122.851" y="642" type="line"/>
    </contour>
  </outline>
</glyph>
<glyph name="j" format="2">
  <advance width="196"/>
  <unicode hex="006A"/>
  <outline>
    <contour>
      <point x="89.8692" y="528" type="line"/>
      <point x="15.8692" y="528" type="line"/>
      <point x="19.3377" y="561" type="line"/>
      <point x="169.338" y="561" type="line"/>
      <point x="107.641" y="-26" type="line" smooth="yes"/>
      <point x="102.912" y="-71"/>
      <point x="80.2872" y="-115"/>
      <point x="44.9239" y="-147" type="curve" smooth="yes"/>
      <point x="-65.5866" y="-247" type="line"/>
      <point x="-61.6977" y="-210" type="line"/>
      <point x="-26.3344" y="-178" type="line" smooth="yes"/>
      <point x="3.50345" y="-151"/>
      <point x="22.2872" y="-115"/>
      <point x="26.2812" y="-77" type="curve" smooth="yes"/>
      <point x="89.8692" y="528" type="line"/>
    </contour>
    <contour>
      <point x="148.851" y="642" type="line"/>
      <point x="111.626" y="735" type="line"/>
      <point x="187.626" y="735" type="line"/>
      <point x="177.851" y="642" type="line"/>
      <point x="148.851" y="642" type="line"/>
    </contour>
  </outline>
</glyph>
<glyph name="k" format="2">
  <advance width="516"/>
  <unicode hex="006B"/>
  <outline>
    <contour>
      <point x="34.2625" y="703" type="line"/>
      <point x="37.6258" y="735" type="line"/>
      <point x="170.626" y="735" type="line"/>
      <point x="93.3742" y="0" type="line"/>
      <point x="19.3742" y="0" type="line"/>
      <point x="93.2625" y="703" type="line"/>
      <point x="34.2625" y="703" type="line"/>
    </contour>
    <contour>
      <point x="367.659" y="193" type="line"/>
      <point x="449.374" y="0" type="line"/>
      <point x="363.374" y="0" type="line"/>
      <point x="269.602" y="221" type="line" smooth="yes"/>
      <point x="258.335" y="247"/>
      <point x="232.122" y="264"/>
      <point x="202.122" y="264" type="curve" smooth="yes"/>
      <point x="150.122" y="264" type="line"/>
      <point x="153.59" y="297" type="line"/>
      <point x="205.59" y="297" type="line" smooth="yes"/>
      <point x="235.59" y="297"/>
      <point x="265.377" y="314"/>
      <point x="282.11" y="340" type="curve" smooth="yes"/>
      <point x="422.338" y="561" type="line"/>
      <point x="508.338" y="561" type="line"/>
      <point x="386.053" y="368" type="line" smooth="yes"/>
      <point x="360.848" y="328"/>
      <point x="323.695" y="298"/>
      <point x="282.908" y="281" type="curve"/>
      <point x="320.017" y="263"/>
      <point x="350.863" y="233"/>
      <point x="367.659" y="193" type="curve"/>
    </contour>
  </outline>
</glyph>
<glyph name="l" format="2">
  <advance width="233"/>
  <unicode hex="006C"/>
  <outline>
    <contour>
      <point x="172.573" y="735" type="line"/>
      <point x="105.727" y="99" type="line"/>
      <point x="69.7901" y="33" type="line"/>
      <point x="169.79" y="33" type="line"/>
      <point x="166.322" y="0" type="line"/>
      <point x="20.3216" y="0" type="line"/>
      <point x="94.2099" y="703" type="line"/>
      <point x="34.2099" y="703" type="line"/>
      <point x="37.6784" y="736" type="line"/>
    </contour>
  </outline>
</glyph>
<glyph name="m" format="2">
  <advance width="903"/>
  <unicode hex="006D"/>
  <outline>
    <contour>
      <point x="877.914" y="489" type="line"/>
      <point x="826.518" y="0" type="line"/>
      <point x="750.518" y="0" type="line"/>
      <point x="803.175" y="501" type="line"/>
      <point x="778.962" y="518"/>
      <point x="748.013" y="528"/>
      <point x="715.013" y="528" type="curve" smooth="yes"/>
      <point x="697.013" y="528" type="line" smooth="yes"/>
      <point x="605.013" y="528"/>
      <point x="522.13" y="453"/>
      <point x="512.461" y="361" type="curve" smooth="yes"/>
      <point x="474.518" y="0" type="line"/>
      <point x="398.518" y="0" type="line"/>
      <point x="451.175" y="501" type="line"/>
      <point x="426.962" y="518"/>
      <point x="396.013" y="528"/>
      <point x="363.013" y="528" type="curve" smooth="yes"/>
      <point x="345.013" y="528" type="line" smooth="yes"/>
      <point x="253.013" y="528"/>
      <point x="170.13" y="453"/>
      <point x="160.461" y="361" type="curve" smooth="yes"/>
      <point x="122.518" y="0" type="line"/>
      <point x="46.5183" y="0" type="line"/>
      <point x="102.013" y="528" type="line"/>
      <point x="44.4848" y="542" type="line"/>
      <point x="46.4817" y="561" type="line"/>
      <point x="178.013" y="528" type="line"/>
      <point x="173.914" y="489" type="line"/>
      <point x="226.749" y="535"/>
      <point x="292.482" y="561"/>
      <point x="359.482" y="561" type="curve"/>
      <point x="424.377" y="560"/>
      <point x="483.644" y="534"/>
      <point x="525.914" y="489" type="curve"/>
      <point x="578.749" y="535"/>
      <point x="644.482" y="561"/>
      <point x="710.482" y="561" type="curve"/>
      <point x="775.377" y="560"/>
      <point x="835.644" y="534"/>
      <point x="877.914" y="489" type="curve"/>
    </contour>
  </outline>
</glyph>
<glyph name="n" format="2">
  <advance width="552"/>
  <unicode hex="006E"/>
  <outline>
    <contour>
      <point x="525.914" y="489" type="line"/>
      <point x="474.518" y="0" type="line"/>
      <point x="398.518" y="0" type="line"/>
      <point x="451.175" y="501" type="line"/>
      <point x="426.962" y="518"/>
      <point x="397.013" y="528"/>
      <point x="363.013" y="528" type="curve" smooth="yes"/>
      <point x="346.013" y="528" type="line" smooth="yes"/>
      <point x="253.013" y="528"/>
      <point x="171.13" y="453"/>
      <point x="161.461" y="361" type="curve" smooth="yes"/>
      <point x="123.518" y="0" type="line"/>
      <point x="47.5183" y="0" type="line"/>
      <point x="103.013" y="528" type="line"/>
      <point x="44.4848" y="542" type="line"/>
      <point x="46.4817" y="561" type="line"/>
      <point x="179.013" y="528" type="line"/>
      <point x="174.914" y="489" type="line"/>
      <point x="226.749" y="535"/>
      <point x="293.482" y="561"/>
      <point x="359.482" y="561" type="curve"/>
      <point x="424.377" y="560"/>
      <point x="483.644" y="534"/>
      <point x="525.914" y="489" type="curve"/>
    </contour>
  </outline>
</glyph>
<glyph name="o" format="2">
  <advance width="592"/>
  <unicode hex="006F"/>
  <outline>
    <contour>
      <point x="43.6892" y="249" type="line"/>
      <point x="50.3108" y="312" type="line" smooth="yes"/>
      <point x="64.7101" y="449"/>
      <point x="188.482" y="561"/>
      <point x="325.482" y="561" type="curve" smooth="yes"/>
      <point x="462.482" y="561"/>
      <point x="562.71" y="449"/>
      <point x="548.311" y="312" type="curve" smooth="yes"/>
      <point x="541.689" y="249" type="line" smooth="yes"/>
      <point x="527.185" y="111"/>
      <point x="403.518" y="0"/>
      <point x="266.518" y="0" type="curve" smooth="yes"/>
      <point x="129.518" y="0"/>
      <point x="29.1848" y="111"/>
      <point x="43.6892" y="249" type="curve"/>
    </contour>
    <contour>
      <point x="130.83" y="355" type="line"/>
      <point x="115.17" y="206" type="line" smooth="yes"/>
      <point x="105.08" y="110"/>
      <point x="174.987" y="33"/>
      <point x="269.987" y="33" type="curve" smooth="yes"/>
      <point x="364.987" y="33"/>
      <point x="451.08" y="110"/>
      <point x="461.17" y="206" type="curve" smooth="yes"/>
      <point x="476.83" y="355" type="line" smooth="yes"/>
      <point x="486.815" y="450"/>
      <point x="417.013" y="528"/>
      <point x="322.013" y="528" type="curve" smooth="yes"/>
      <point x="227.013" y="528"/>
      <point x="140.815" y="450"/>
      <point x="130.83" y="355" type="curve"/>
    </contour>
  </outline>
</glyph>
<glyph name="p" format="2">
  <advance width="622"/>
  <unicode hex="0070"/>
  <outline>
    <contour>
      <point x="355.482" y="561" type="line"/>
      <point x="492.482" y="561"/>
      <point x="592.71" y="449"/>
      <point x="578.311" y="312" type="curve" smooth="yes"/>
      <point x="571.689" y="249" type="line" smooth="yes"/>
      <point x="557.185" y="111"/>
      <point x="433.518" y="0"/>
      <point x="296.518" y="0" type="curve" smooth="yes"/>
      <point x="229.518" y="0"/>
      <point x="171.356" y="27"/>
      <point x="130.876" y="70" type="curve"/>
      <point x="97.5575" y="-247" type="line"/>
      <point x="21.5575" y="-247" type="line"/>
      <point x="103.013" y="528" type="line"/>
      <point x="44.0133" y="528" type="line"/>
      <point x="47.4817" y="561" type="line"/>
      <point x="182.482" y="561" type="line"/>
      <point x="175.124" y="491" type="line"/>
      <point x="224.644" y="534"/>
      <point x="288.482" y="561"/>
      <point x="355.482" y="561" type="curve"/>
    </contour>
    <contour>
      <point x="491.17" y="206" type="line"/>
      <point x="506.83" y="355" type="line" smooth="yes"/>
      <point x="516.815" y="450"/>
      <point x="447.013" y="528"/>
      <point x="352.013" y="528" type="curve" smooth="yes"/>
      <point x="256.013" y="528"/>
      <point x="170.815" y="450"/>
      <point x="160.83" y="355" type="curve" smooth="yes"/>
      <point x="145.17" y="206" type="line" smooth="yes"/>
      <point x="135.08" y="110"/>
      <point x="203.987" y="33"/>
      <point x="299.987" y="33" type="curve" smooth="yes"/>
      <point x="394.987" y="33"/>
      <point x="481.08" y="110"/>
      <point x="491.17" y="206" type="curve"/>
    </contour>
  </outline>
</glyph>
<glyph name="q" format="2">
  <advance width="622"/>
  <unicode hex="0071"/>
  <outline>
    <contour>
      <point x="326.482" y="561" type="line"/>
      <point x="393.482" y="561"/>
      <point x="451.644" y="534"/>
      <point x="492.124" y="491" type="curve"/>
      <point x="499.482" y="561" type="line"/>
      <point x="634.482" y="561" type="line"/>
      <point x="631.013" y="528" type="line"/>
      <point x="571.013" y="528" type="line"/>
      <point x="553.356" y="360"/>
      <point x="535.255" y="183.556"/>
      <point x="517.006" y="9.92599" type="curve" smooth="yes"/>
      <point x="507.881" y="-76.8888"/>
      <point x="498.72" y="-163"/>
      <point x="489.558" y="-247" type="curve"/>
      <point x="414.558" y="-247" type="line"/>
      <point x="447.876" y="70" type="line"/>
      <point x="398.356" y="27"/>
      <point x="334.518" y="0"/>
      <point x="267.518" y="0" type="curve" smooth="yes"/>
      <point x="129.518" y="0"/>
      <point x="30.1848" y="111"/>
      <point x="44.6892" y="249" type="curve" smooth="yes"/>
      <point x="51.3108" y="312" type="line" smooth="yes"/>
      <point x="65.7101" y="449"/>
      <point x="188.482" y="561"/>
      <point x="326.482" y="561" type="curve"/>
    </contour>
    <contour>
      <point x="131.83" y="355" type="line"/>
      <point x="116.17" y="206" type="line" smooth="yes"/>
      <point x="106.08" y="110"/>
      <point x="174.987" y="33"/>
      <point x="270.987" y="33" type="curve" smooth="yes"/>
      <point x="365.987" y="33"/>
      <point x="452.08" y="110"/>
      <point x="462.17" y="206" type="curve" smooth="yes"/>
      <point x="477.83" y="355" type="line" smooth="yes"/>
      <point x="487.815" y="450"/>
      <point x="418.013" y="528"/>
      <point x="323.013" y="528" type="curve" smooth="yes"/>
      <point x="227.013" y="528"/>
      <point x="141.815" y="450"/>
      <point x="131.83" y="355" type="curve"/>
    </contour>
  </outline>
</glyph>
<glyph name="r" format="2">
  <advance width="349"/>
  <unicode hex="0072"/>
  <outline>
    <contour>
      <point x="359.482" y="561" type="line"/>
      <point x="360.482" y="561" type="line"/>
      <point x="357.013" y="528" type="line"/>
      <point x="346.013" y="528" type="line" smooth="yes"/>
      <point x="254.013" y="528"/>
      <point x="171.13" y="453"/>
      <point x="161.461" y="361" type="curve" smooth="yes"/>
      <point x="123.518" y="0" type="line"/>
      <point x="47.5183" y="0" type="line"/>
      <point x="103.013" y="528" type="line"/>
      <point x="45.4848" y="542" type="line"/>
      <point x="47.4817" y="561" type="line"/>
      <point x="179.013" y="528" type="line"/>
      <point x="174.914" y="489" type="line"/>
      <point x="227.749" y="535"/>
      <point x="293.482" y="561"/>
      <point x="359.482" y="561" type="curve"/>
    </contour>
  </outline>
</glyph>
<glyph name="t" format="2">
  <advance width="279"/>
  <unicode hex="0074"/>
  <outline>
    <contour>
      <point x="269.603" y="561" type="line"/>
      <point x="266.135" y="528" type="line"/>
      <point x="192.135" y="528" type="line"/>
      <point x="147.045" y="99" type="line"/>
      <point x="110.108" y="33" type="line"/>
      <point x="211.108" y="33" type="line"/>
      <point x="207.64" y="0" type="line"/>
      <point x="60.64" y="0" type="line"/>
      <point x="116.135" y="528" type="line"/>
      <point x="42.135" y="528" type="line"/>
      <point x="45.6034" y="561" type="line"/>
      <point x="119.603" y="561" type="line"/>
      <point x="137.892" y="735" type="line"/>
      <point x="217.36" y="768" type="line"/>
      <point x="195.603" y="561" type="line"/>
      <point x="269.603" y="561" type="line"/>
    </contour>
  </outline>
</glyph>
<glyph name="u" format="2">
  <advance width="522"/>
  <unicode hex="0075"/>
  <outline>
    <contour>
      <point x="504.482" y="561" type="line"/>
      <point x="447.41" y="18" type="line"/>
      <point x="414.518" y="0" type="line"/>
      <point x="401.296" y="74" type="line"/>
      <point x="357.566" y="29"/>
      <point x="296.518" y="0"/>
      <point x="231.518" y="0" type="curve" smooth="yes"/>
      <point x="113.518" y="0"/>
      <point x="27.6083" y="96"/>
      <point x="40.0106" y="214" type="curve" smooth="yes"/>
      <point x="76.4817" y="561" type="line"/>
      <point x="152.482" y="561" type="line"/>
      <point x="111.491" y="171" type="line" smooth="yes"/>
      <point x="103.398" y="94"/>
      <point x="158.987" y="33"/>
      <point x="234.987" y="33" type="curve" smooth="yes"/>
      <point x="310.987" y="33"/>
      <point x="379.398" y="94"/>
      <point x="387.491" y="171" type="curve" smooth="yes"/>
      <point x="428.482" y="561" type="line"/>
      <point x="504.482" y="561" type="line"/>
    </contour>
  </outline>
</glyph>
<glyph name="v" format="2">
  <advance width="468"/>
  <unicode hex="0076"/>
  <outline>
    <contour>
      <point x="480.482" y="561" type="line"/>
      <point x="246.518" y="0" type="line"/>
      <point x="214.518" y="0" type="line"/>
      <point x="103.013" y="528" type="line"/>
      <point x="44.0133" y="528" type="line"/>
      <point x="47.4817" y="561" type="line"/>
      <point x="174.482" y="561" type="line"/>
      <point x="265.972" y="128" type="line"/>
      <point x="448.482" y="561" type="line"/>
      <point x="480.482" y="561" type="line"/>
    </contour>
  </outline>
</glyph>
<glyph name="w" format="2">
  <advance width="777"/>
  <unicode hex="0077"/>
  <outline>
    <contour>
      <point x="754.482" y="561" type="line"/>
      <point x="789.482" y="561" type="line"/>
      <point x="552.518" y="0" type="line"/>
      <point x="520.518" y="0" type="line"/>
      <point x="429.028" y="433" type="line"/>
      <point x="246.518" y="0" type="line"/>
      <point x="214.518" y="0" type="line"/>
      <point x="103.013" y="528" type="line"/>
      <point x="44.0133" y="528" type="line"/>
      <point x="47.4817" y="561" type="line"/>
      <point x="174.482" y="561" type="line"/>
      <point x="265.972" y="128" type="line"/>
      <point x="448.482" y="561" type="line"/>
      <point x="480.482" y="561" type="line"/>
      <point x="571.972" y="128" type="line"/>
    </contour>
  </outline>
</glyph>
<glyph name="x" format="2">
  <advance width="474"/>
  <unicode hex="0078"/>
  <outline>
    <contour>
      <point x="217.797" y="231" type="line"/>
      <point x="49.5183" y="0" type="line"/>
      <point x="10.5183" y="0" type="line"/>
      <point x="202.161" y="263" type="line"/>
      <point x="46.4817" y="561" type="line"/>
      <point x="135.482" y="561" type="line"/>
      <point x="253.623" y="334" type="line"/>
      <point x="419.482" y="561" type="line"/>
      <point x="458.482" y="561" type="line"/>
      <point x="270.26" y="302" type="line"/>
      <point x="426.518" y="0" type="line"/>
      <point x="338.518" y="0" type="line"/>
    </contour>
  </outline>
</glyph>
<glyph name="y" format="2">
  <advance width="607"/>
  <unicode hex="0079"/>
  <outline>
    <contour>
      <point x="174.482" y="561" type="line"/>
      <point x="308.185" y="111" type="line"/>
      <point x="537.482" y="561" type="line"/>
      <point x="619.482" y="561" type="line"/>
      <point x="619.482" y="561"/>
      <point x="368.876" y="70"/>
      <point x="285.638" y="-94" type="curve" smooth="yes"/>
      <point x="238.969" y="-186"/>
      <point x="142.558" y="-247"/>
      <point x="42.5575" y="-247" type="curve" smooth="yes"/>
      <point x="-38.4425" y="-247" type="line"/>
      <point x="-34.974" y="-214" type="line"/>
      <point x="47.026" y="-214" type="line" smooth="yes"/>
      <point x="105.026" y="-214"/>
      <point x="160.705" y="-179"/>
      <point x="188.275" y="-126" type="curve" smooth="yes"/>
      <point x="212.425" y="-77"/>
      <point x="286.665" y="68"/>
      <point x="286.665" y="68" type="curve"/>
      <point x="227.185" y="111" type="line"/>
      <point x="102.013" y="528" type="line"/>
      <point x="43.0133" y="528" type="line"/>
      <point x="46.4817" y="561" type="line"/>
      <point x="174.482" y="561" type="line"/>
    </contour>
  </outline>
</glyph>
<glyph name="z" format="2">
  <advance width="474"/>
  <unicode hex="007A"/>
  <outline>
    <contour>
      <point x="429.987" y="33" type="line"/>
      <point x="426.518" y="0" type="line"/>
      <point x="-11.4817" y="0" type="line"/>
      <point x="-8.0133" y="33" type="line"/>
      <point x="390.013" y="528" type="line"/>
      <point x="63.0133" y="528" type="line"/>
      <point x="66.4817" y="561" type="line"/>
      <point x="485.482" y="561" type="line"/>
      <point x="482.013" y="528" type="line"/>
      <point x="83.9867" y="33" type="line"/>
      <point x="429.987" y="33" type="line"/>
    </contour>
  </outline>
</glyph>
<glyph name="braceleft" format="2">
  <advance width="344"/>
  <unicode hex="007B"/>
  <outline>
    <contour>
      <point x="257.374" y="0" type="line"/>
      <point x="216.374" y="0" type="line"/>
      <point x="140.521" y="68" type="line" smooth="yes"/>
      <point x="118.518" y="87"/>
      <point x="107.671" y="117"/>
      <point x="110.93" y="148" type="curve" smooth="yes"/>
      <point x="121.966" y="253" type="line" smooth="yes"/>
      <point x="124.173" y="274"/>
      <point x="120.275" y="294"/>
      <point x="110.167" y="312" type="curve"/>
      <point x="107.692" y="317" type="line"/>
      <point x="94.8994" y="338"/>
      <point x="72.2658" y="351"/>
      <point x="46.2658" y="351" type="curve"/>
      <point x="49.7342" y="384" type="line"/>
      <point x="75.7342" y="384"/>
      <point x="101.101" y="397"/>
      <point x="118.413" y="419" type="curve"/>
      <point x="121.938" y="424" type="line"/>
      <point x="135.725" y="441"/>
      <point x="143.827" y="461"/>
      <point x="146.034" y="482" type="curve" smooth="yes"/>
      <point x="157.07" y="587" type="line" smooth="yes"/>
      <point x="160.329" y="618"/>
      <point x="177.482" y="648"/>
      <point x="203.584" y="668" type="curve" smooth="yes"/>
      <point x="293.626" y="735" type="line"/>
      <point x="334.626" y="735" type="line"/>
      <point x="331.262" y="703" type="line"/>
      <point x="290.262" y="703" type="line"/>
      <point x="259.058" y="663" type="line" smooth="yes"/>
      <point x="245.272" y="646"/>
      <point x="237.064" y="625"/>
      <point x="234.962" y="605" type="curve" smooth="yes"/>
      <point x="221.929" y="481" type="line" smooth="yes"/>
      <point x="219.827" y="461"/>
      <point x="211.725" y="441"/>
      <point x="198.938" y="424" type="curve" smooth="yes"/>
      <point x="157.053" y="368" type="line"/>
      <point x="187.062" y="311" type="line" smooth="yes"/>
      <point x="196.275" y="294"/>
      <point x="200.278" y="275"/>
      <point x="198.071" y="254" type="curve" smooth="yes"/>
      <point x="185.143" y="131" type="line" smooth="yes"/>
      <point x="182.936" y="110"/>
      <point x="186.834" y="90"/>
      <point x="196.942" y="72" type="curve" smooth="yes"/>
      <point x="219.843" y="33" type="line"/>
      <point x="260.843" y="33" type="line"/>
      <point x="257.374" y="0" type="line"/>
    </contour>
  </outline>
</glyph>
<glyph name="bar" format="2">
  <advance width="170"/>
  <unicode hex="007C"/>
  <outline>
    <contour>
      <point x="161.678" y="736" type="line"/>
      <point x="84.3216" y="0" type="line"/>
      <point x="8.32164" y="0" type="line"/>
      <point x="85.6784" y="736" type="line"/>
      <point x="161.678" y="736" type="line"/>
    </contour>
  </outline>
</glyph>
<glyph name="braceright" format="2">
  <advance width="344"/>
  <unicode hex="007D"/>
  <outline>
    <contour>
      <point x="51.3742" y="0" type="line"/>
      <point x="9.37419" y="0" type="line"/>
      <point x="12.8426" y="33" type="line"/>
      <point x="54.8426" y="33" type="line"/>
      <point x="84.9417" y="72" type="line" smooth="yes"/>
      <point x="98.8336" y="90"/>
      <point x="106.936" y="110"/>
      <point x="109.143" y="131" type="curve" smooth="yes"/>
      <point x="122.071" y="254" type="line" smooth="yes"/>
      <point x="124.278" y="275"/>
      <point x="132.275" y="294"/>
      <point x="145.062" y="311" type="curve" smooth="yes"/>
      <point x="187.053" y="368" type="line"/>
      <point x="156.938" y="424" type="line" smooth="yes"/>
      <point x="147.725" y="441"/>
      <point x="143.827" y="461"/>
      <point x="145.929" y="481" type="curve" smooth="yes"/>
      <point x="158.962" y="605" type="line" smooth="yes"/>
      <point x="161.064" y="625"/>
      <point x="157.272" y="646"/>
      <point x="147.058" y="663" type="curve"/>
      <point x="125.262" y="703" type="line"/>
      <point x="83.2625" y="703" type="line"/>
      <point x="86.6258" y="735" type="line"/>
      <point x="128.626" y="735" type="line"/>
      <point x="203.584" y="668" type="line" smooth="yes"/>
      <point x="225.482" y="648"/>
      <point x="236.329" y="618"/>
      <point x="233.07" y="587" type="curve" smooth="yes"/>
      <point x="222.034" y="482" type="line" smooth="yes"/>
      <point x="219.827" y="461"/>
      <point x="223.725" y="441"/>
      <point x="233.938" y="424" type="curve"/>
      <point x="236.413" y="419" type="line"/>
      <point x="249.101" y="397"/>
      <point x="271.734" y="384"/>
      <point x="297.734" y="384" type="curve"/>
      <point x="294.266" y="351" type="line"/>
      <point x="268.266" y="351"/>
      <point x="242.899" y="338"/>
      <point x="225.692" y="317" type="curve"/>
      <point x="222.167" y="312" type="line"/>
      <point x="208.275" y="294"/>
      <point x="200.173" y="274"/>
      <point x="197.966" y="253" type="curve" smooth="yes"/>
      <point x="186.93" y="148" type="line" smooth="yes"/>
      <point x="183.671" y="117"/>
      <point x="166.518" y="87"/>
      <point x="140.521" y="68" type="curve" smooth="yes"/>
    </contour>
  </outline>
</glyph>
<glyph name="asciitilde" format="2">
  <advance width="497"/>
  <unicode hex="007E"/>
  <outline>
    <contour>
      <point x="110.347" y="346" type="line"/>
      <point x="77.2987" y="317" type="line"/>
      <point x="61.1906" y="335" type="line"/>
      <point x="94.3437" y="365" type="line" smooth="yes"/>
      <point x="127.497" y="395"/>
      <point x="169.179" y="411"/>
      <point x="209.179" y="411" type="curve" smooth="yes"/>
      <point x="225.179" y="411"/>
      <point x="239.968" y="409"/>
      <point x="254.443" y="404" type="curve" smooth="yes"/>
      <point x="352.185" y="373" type="line" smooth="yes"/>
      <point x="357.974" y="371"/>
      <point x="364.869" y="370"/>
      <point x="370.869" y="370" type="curve" smooth="yes"/>
      <point x="388.869" y="370"/>
      <point x="406.605" y="377"/>
      <point x="419.866" y="389" type="curve" smooth="yes"/>
      <point x="452.019" y="419" type="line"/>
      <point x="469.022" y="400" type="line"/>
      <point x="435.869" y="370" type="line" smooth="yes"/>
      <point x="402.821" y="341"/>
      <point x="360.14" y="325"/>
      <point x="319.14" y="325" type="curve" smooth="yes"/>
      <point x="304.14" y="325"/>
      <point x="290.35" y="327"/>
      <point x="275.77" y="331" type="curve"/>
      <point x="178.028" y="362" type="line" smooth="yes"/>
      <point x="171.239" y="364"/>
      <point x="164.344" y="365"/>
      <point x="158.344" y="365" type="curve" smooth="yes"/>
      <point x="141.344" y="365"/>
      <point x="123.608" y="358"/>
      <point x="110.347" y="346" type="curve"/>
    </contour>
  </outline>
</glyph>
<glyph name="exclamdown" format="2">
  <advance width="174"/>
  <unicode hex="00A1"/>
  <outline>
    <contour>
      <point x="1.27966" y="-135" type="line"/>
      <point x="75.9789" y="433" type="line"/>
      <point x="124.979" y="433" type="line"/>
      <point x="80.2797" y="-135" type="line"/>
      <point x="1.27966" y="-135" type="line"/>
    </contour>
    <contour>
      <point x="74.4322" y="561" type="line"/>
      <point x="76.6394" y="582"/>
      <point x="96.5313" y="600"/>
      <point x="118.531" y="600" type="curve" smooth="yes"/>
      <point x="140.531" y="600"/>
      <point x="155.639" y="582"/>
      <point x="153.432" y="561" type="curve" smooth="yes"/>
      <point x="151.12" y="539"/>
      <point x="132.228" y="521"/>
      <point x="110.228" y="521" type="curve" smooth="yes"/>
      <point x="88.228" y="521"/>
      <point x="72.1199" y="539"/>
      <point x="74.4322" y="561" type="curve"/>
    </contour>
  </outline>
</glyph>
<glyph name="cent" format="2">
  <advance width="560"/>
  <unicode hex="00A2"/>
  <outline>
    <contour>
      <point x="220.322" y="0" type="line"/>
      <point x="229.781" y="90" type="line"/>
      <point x="111.778" y="109"/>
      <point x="31.6037" y="212"/>
      <point x="44.6367" y="336" type="curve" smooth="yes"/>
      <point x="51.2582" y="399" type="line" smooth="yes"/>
      <point x="64.3963" y="524"/>
      <point x="166.222" y="627"/>
      <point x="288.114" y="645" type="curve"/>
      <point x="297.678" y="736" type="line"/>
      <point x="372.678" y="736" type="line"/>
      <point x="363.114" y="645" type="line"/>
      <point x="438.853" y="633"/>
      <point x="499.018" y="587"/>
      <point x="529.186" y="522" type="curve"/>
      <point x="473.558" y="497" type="line"/>
      <point x="457.811" y="566"/>
      <point x="398.961" y="615"/>
      <point x="322.961" y="615" type="curve" smooth="yes"/>
      <point x="226.961" y="615"/>
      <point x="141.868" y="538"/>
      <point x="131.778" y="442" type="curve" smooth="yes"/>
      <point x="116.117" y="293" type="line" smooth="yes"/>
      <point x="106.132" y="198"/>
      <point x="174.934" y="120"/>
      <point x="270.934" y="120" type="curve" smooth="yes"/>
      <point x="346.934" y="120"/>
      <point x="416.189" y="170"/>
      <point x="446.336" y="238" type="curve"/>
      <point x="496.814" y="214" type="line"/>
      <point x="452.982" y="149"/>
      <point x="383.042" y="102"/>
      <point x="304.781" y="90" type="curve"/>
      <point x="295.322" y="0" type="line"/>
      <point x="220.322" y="0" type="line"/>
    </contour>
  </outline>
</glyph>
<glyph name="sterling" format="2">
  <advance width="696"/>
  <unicode hex="00A3"/>
  <outline>
    <contour>
      <point x="197.843" y="33" type="line"/>
      <point x="612.843" y="33" type="line"/>
      <point x="609.374" y="0" type="line"/>
      <point x="9.37419" y="0" type="line"/>
      <point x="12.8426" y="33" type="line"/>
      <point x="73.8426" y="33" type="line" smooth="yes"/>
      <point x="153.843" y="33"/>
      <point x="230.515" y="106"/>
      <point x="240.605" y="202" type="curve" smooth="yes"/>
      <point x="242.287" y="218"/>
      <point x="241.758" y="232"/>
      <point x="240.02" y="244" type="curve" smooth="yes"/>
      <point x="224.266" y="351" type="line"/>
      <point x="46.2658" y="351" type="line"/>
      <point x="49.7342" y="384" type="line"/>
      <point x="219.734" y="384" type="line"/>
      <point x="205.245" y="484" type="line"/>
      <point x="203.137" y="502"/>
      <point x="201.818" y="518"/>
      <point x="203.395" y="533" type="curve" smooth="yes"/>
      <point x="214.851" y="642"/>
      <point x="322.626" y="735"/>
      <point x="449.626" y="735" type="curve" smooth="yes"/>
      <point x="573.626" y="735"/>
      <point x="664.166" y="645"/>
      <point x="652.395" y="533" type="curve" smooth="yes"/>
      <point x="645.668" y="469" type="line"/>
      <point x="569.668" y="469" type="line"/>
      <point x="576.395" y="533" type="line" smooth="yes"/>
      <point x="586.169" y="626"/>
      <point x="528.262" y="703"/>
      <point x="446.262" y="703" type="curve" smooth="yes"/>
      <point x="366.262" y="703"/>
      <point x="289.485" y="629"/>
      <point x="279.395" y="533" type="curve" smooth="yes"/>
      <point x="277.818" y="518"/>
      <point x="278.347" y="504"/>
      <point x="279.98" y="491" type="curve" smooth="yes"/>
      <point x="295.734" y="384" type="line"/>
      <point x="451.734" y="384" type="line"/>
      <point x="448.266" y="351" type="line"/>
      <point x="300.266" y="351" type="line"/>
      <point x="304.797" y="318"/>
      <point x="310.329" y="285"/>
      <point x="314.86" y="252" type="curve" smooth="yes"/>
      <point x="316.969" y="234"/>
      <point x="318.182" y="217"/>
      <point x="316.605" y="202" type="curve"/>
      <point x="309.194" y="141"/>
      <point x="263.362" y="76"/>
      <point x="197.843" y="33" type="curve"/>
    </contour>
  </outline>
</glyph>
<glyph name="currency" format="2">
  <advance width="474"/>
  <unicode hex="00A4"/>
  <outline>
    <contour>
      <point x="371.317" y="274" type="line"/>
      <point x="420.536" y="219" type="line"/>
      <point x="377.542" y="181" type="line"/>
      <point x="323.848" y="241" type="line"/>
      <point x="295.377" y="227"/>
      <point x="263.536" y="219"/>
      <point x="230.536" y="219" type="curve" smooth="yes"/>
      <point x="197.536" y="219"/>
      <point x="167.377" y="227"/>
      <point x="141.848" y="241" type="curve"/>
      <point x="74.5421" y="181" type="line"/>
      <point x="40.5361" y="219" type="line"/>
      <point x="101.317" y="274" type="line"/>
      <point x="79.0495" y="300"/>
      <point x="67.6231" y="334"/>
      <point x="71.5119" y="371" type="curve" smooth="yes"/>
      <point x="75.2957" y="407"/>
      <point x="93.8692" y="441"/>
      <point x="121.602" y="467" type="curve"/>
      <point x="72.3827" y="522" type="line"/>
      <point x="115.482" y="561" type="line"/>
      <point x="169.07" y="500" type="line"/>
      <point x="197.542" y="514"/>
      <point x="229.383" y="522"/>
      <point x="262.383" y="522" type="curve" smooth="yes"/>
      <point x="295.383" y="522"/>
      <point x="325.542" y="514"/>
      <point x="351.07" y="500" type="curve"/>
      <point x="418.482" y="561" type="line"/>
      <point x="452.383" y="522" type="line"/>
      <point x="391.602" y="467" type="line"/>
      <point x="413.869" y="441"/>
      <point x="425.296" y="407"/>
      <point x="421.512" y="371" type="curve" smooth="yes"/>
      <point x="417.623" y="334"/>
      <point x="399.05" y="300"/>
      <point x="371.317" y="274" type="curve"/>
    </contour>
    <contour>
      <point x="258.914" y="489" type="line"/>
      <point x="201.914" y="489"/>
      <point x="150.344" y="436"/>
      <point x="143.512" y="371" type="curve" smooth="yes"/>
      <point x="136.575" y="305"/>
      <point x="177.005" y="252"/>
      <point x="234.005" y="252" type="curve" smooth="yes"/>
      <point x="291.005" y="252"/>
      <point x="341.575" y="305"/>
      <point x="348.512" y="371" type="curve" smooth="yes"/>
      <point x="355.344" y="436"/>
      <point x="315.914" y="489"/>
      <point x="258.914" y="489" type="curve"/>
    </contour>
  </outline>
</glyph>
<glyph name="yen" format="2">
  <advance width="637"/>
  <unicode hex="00A5"/>
  <outline>
    <contour>
      <point x="115.918" y="224" type="line"/>
      <point x="119.386" y="257" type="line"/>
      <point x="269.386" y="257" type="line"/>
      <point x="273.275" y="294" type="line"/>
      <point x="86.6258" y="735" type="line"/>
      <point x="171.626" y="735" type="line"/>
      <point x="339.899" y="338" type="line"/>
      <point x="590.626" y="735" type="line"/>
      <point x="627.626" y="735" type="line"/>
      <point x="349.275" y="294" type="line"/>
      <point x="345.386" y="257" type="line"/>
      <point x="494.386" y="257" type="line"/>
      <point x="490.918" y="224" type="line"/>
      <point x="341.918" y="224" type="line"/>
      <point x="326.993" y="82" type="line"/>
      <point x="475.993" y="82" type="line"/>
      <point x="472.524" y="49" type="line"/>
      <point x="323.524" y="49" type="line"/>
      <point x="318.374" y="0" type="line"/>
      <point x="242.374" y="0" type="line"/>
      <point x="247.524" y="49" type="line"/>
      <point x="97.5243" y="49" type="line"/>
      <point x="100.993" y="82" type="line"/>
      <point x="250.993" y="82" type="line"/>
      <point x="265.918" y="224" type="line"/>
      <point x="115.918" y="224" type="line"/>
    </contour>
  </outline>
</glyph>
<glyph name="brokenbar" format="2">
  <advance width="170"/>
  <unicode hex="00A6"/>
  <outline>
    <contour>
      <point x="37.4355" y="277" type="line"/>
      <point x="113.436" y="277" type="line"/>
      <point x="84.3216" y="0" type="line"/>
      <point x="8.32164" y="0" type="line"/>
      <point x="37.4355" y="277" type="line"/>
    </contour>
    <contour>
      <point x="161.678" y="736" type="line"/>
      <point x="132.564" y="459" type="line"/>
      <point x="56.5645" y="459" type="line"/>
      <point x="85.6784" y="736" type="line"/>
      <point x="161.678" y="736" type="line"/>
    </contour>
  </outline>
</glyph>
<glyph name="section" format="2">
  <advance width="500"/>
  <unicode hex="00A7"/>
  <outline>
    <contour>
      <point x="256.338" y="561" type="line"/>
      <point x="386.197" y="455" type="line" smooth="yes"/>
      <point x="416.553" y="429.976"/>
      <point x="429.938" y="394.277"/>
      <point x="426.166" y="358.391" type="curve" smooth="yes"/>
      <point x="423.306" y="331.178"/>
      <point x="410.58" y="303.857"/>
      <point x="387.908" y="281" type="curve" smooth="yes"/>
      <point x="357.212" y="250.019"/>
      <point x="314.678" y="233.142"/>
      <point x="273.776" y="233.142" type="curve" smooth="yes"/>
      <point x="268.47" y="233.142"/>
      <point x="263.191" y="233.426"/>
      <point x="257.969" y="234" type="curve"/>
      <point x="271.707" y="222" type="line" smooth="yes"/>
      <point x="302.228" y="196.84"/>
      <point x="315.593" y="160.89"/>
      <point x="311.801" y="124.807" type="curve" smooth="yes"/>
      <point x="308.961" y="97.7875"/>
      <point x="296.501" y="70.6937"/>
      <point x="274.419" y="48" type="curve" smooth="yes"/>
      <point x="243.056" y="16"/>
      <point x="200.374" y="0"/>
      <point x="158.374" y="0" type="curve" smooth="yes"/>
      <point x="127.374" y="0"/>
      <point x="95.3201" y="9"/>
      <point x="71.4222" y="29" type="curve" smooth="yes"/>
      <point x="41.1549" y="55" type="line"/>
      <point x="57.8366" y="71" type="line"/>
      <point x="100.263" y="37" type="line" smooth="yes"/>
      <point x="117.792" y="23"/>
      <point x="140.056" y="16"/>
      <point x="162.056" y="16" type="curve" smooth="yes"/>
      <point x="192.056" y="16"/>
      <point x="223.317" y="28"/>
      <point x="245.735" y="51" type="curve" smooth="yes"/>
      <point x="261.498" y="67.1925"/>
      <point x="270.323" y="86.4718"/>
      <point x="272.341" y="105.666" type="curve" smooth="yes"/>
      <point x="275.058" y="131.515"/>
      <point x="265.427" y="157.21"/>
      <point x="243.767" y="175" type="curve" smooth="yes"/>
      <point x="113.908" y="281" type="line" smooth="yes"/>
      <point x="83.4924" y="305.455"/>
      <point x="70.0815" y="340.908"/>
      <point x="73.8616" y="376.873" type="curve" smooth="yes"/>
      <point x="76.728" y="404.145"/>
      <point x="89.4794" y="431.712"/>
      <point x="112.197" y="455" type="curve" smooth="yes"/>
      <point x="143.399" y="486.491"/>
      <point x="186.746" y="502.601"/>
      <point x="228.324" y="502.601" type="curve" smooth="yes"/>
      <point x="232.956" y="502.601"/>
      <point x="237.567" y="502.401"/>
      <point x="242.137" y="502" type="curve"/>
      <point x="228.293" y="513" type="line" smooth="yes"/>
      <point x="197.772" y="538.16"/>
      <point x="184.407" y="574.11"/>
      <point x="188.199" y="610.193" type="curve" smooth="yes"/>
      <point x="191.039" y="637.212"/>
      <point x="203.499" y="664.306"/>
      <point x="225.581" y="687" type="curve" smooth="yes"/>
      <point x="256.944" y="719"/>
      <point x="299.626" y="735"/>
      <point x="341.626" y="735" type="curve" smooth="yes"/>
      <point x="373.626" y="735"/>
      <point x="404.68" y="726"/>
      <point x="428.578" y="706" type="curve"/>
      <point x="435.052" y="701" type="line"/>
      <point x="417.265" y="684" type="line"/>
      <point x="399.842" y="699" type="line" smooth="yes"/>
      <point x="383.314" y="713"/>
      <point x="361.049" y="720"/>
      <point x="339.049" y="720" type="curve" smooth="yes"/>
      <point x="308.049" y="720"/>
      <point x="276.788" y="708"/>
      <point x="254.265" y="684" type="curve" smooth="yes"/>
      <point x="238.502" y="667.808"/>
      <point x="229.696" y="648.71"/>
      <point x="227.7" y="629.724" type="curve" smooth="yes"/>
      <point x="225.013" y="604.156"/>
      <point x="234.678" y="578.79"/>
      <point x="256.338" y="561" type="curve"/>
    </contour>
    <contour>
      <point x="359.224" y="284" type="line"/>
      <point x="374.988" y="300.192"/>
      <point x="383.813" y="319.472"/>
      <point x="385.83" y="338.666" type="curve" smooth="yes"/>
      <point x="388.547" y="364.515"/>
      <point x="378.916" y="390.21"/>
      <point x="357.257" y="408" type="curve" smooth="yes"/>
      <point x="286.353" y="466" type="line" smooth="yes"/>
      <point x="268.824" y="480"/>
      <point x="246.56" y="487"/>
      <point x="224.56" y="487" type="curve" smooth="yes"/>
      <point x="193.56" y="487"/>
      <point x="162.299" y="475"/>
      <point x="140.881" y="452" type="curve" smooth="yes"/>
      <point x="125.073" y="435.381"/>
      <point x="116.241" y="416.039"/>
      <point x="114.231" y="396.913" type="curve" smooth="yes"/>
      <point x="111.524" y="371.155"/>
      <point x="121.189" y="345.79"/>
      <point x="142.848" y="328" type="curve" smooth="yes"/>
      <point x="213.752" y="270" type="line" smooth="yes"/>
      <point x="231.281" y="256"/>
      <point x="253.545" y="249"/>
      <point x="276.545" y="249" type="curve" smooth="yes"/>
      <point x="306.545" y="249"/>
      <point x="337.806" y="261"/>
      <point x="359.224" y="284" type="curve"/>
    </contour>
  </outline>
</glyph>
<glyph name="dieresis" format="2">
  <advance width="159"/>
  <unicode hex="00A8"/>
  <outline>
    <contour>
      <point x="74.8315" y="796" type="line"/>
      <point x="93.8315" y="796"/>
      <point x="106.255" y="781"/>
      <point x="104.363" y="763" type="curve" smooth="yes"/>
      <point x="102.471" y="745"/>
      <point x="86.8946" y="730"/>
      <point x="67.8946" y="730" type="curve" smooth="yes"/>
      <point x="49.8946" y="730"/>
      <point x="36.4712" y="745"/>
      <point x="38.363" y="763" type="curve" smooth="yes"/>
      <point x="40.2549" y="781"/>
      <point x="56.8315" y="796"/>
      <point x="74.8315" y="796" type="curve"/>
    </contour>
    <contour>
      <point x="167.831" y="796" type="line"/>
      <point x="185.831" y="796"/>
      <point x="199.255" y="781"/>
      <point x="197.363" y="763" type="curve" smooth="yes"/>
      <point x="195.471" y="745"/>
      <point x="178.895" y="730"/>
      <point x="160.895" y="730" type="curve" smooth="yes"/>
      <point x="141.895" y="730"/>
      <point x="129.471" y="745"/>
      <point x="131.363" y="763" type="curve" smooth="yes"/>
      <point x="133.255" y="781"/>
      <point x="148.831" y="796"/>
      <point x="167.831" y="796" type="curve"/>
    </contour>
  </outline>
</glyph>
<glyph name="copyright" format="2">
  <advance width="838"/>
  <unicode hex="00A9"/>
  <outline>
    <contour>
      <point x="431.974" y="531" type="line"/>
      <point x="368.974" y="531"/>
      <point x="312.614" y="480"/>
      <point x="306.098" y="418" type="curve" smooth="yes"/>
      <point x="295.692" y="319" type="line" smooth="yes"/>
      <point x="289.176" y="257"/>
      <point x="334.815" y="206"/>
      <point x="397.815" y="206" type="curve" smooth="yes"/>
      <point x="447.815" y="206"/>
      <point x="494.179" y="238"/>
      <point x="513.908" y="283" type="curve"/>
      <point x="547.227" y="267" type="line"/>
      <point x="513.077" y="218"/>
      <point x="456.503" y="184"/>
      <point x="395.503" y="184" type="curve" smooth="yes"/>
      <point x="305.503" y="184"/>
      <point x="240.176" y="257"/>
      <point x="249.74" y="348" type="curve" smooth="yes"/>
      <point x="254.05" y="389" type="line" smooth="yes"/>
      <point x="263.614" y="480"/>
      <point x="344.287" y="553"/>
      <point x="434.287" y="553" type="curve" smooth="yes"/>
      <point x="495.287" y="553"/>
      <point x="544.713" y="519"/>
      <point x="568.563" y="470" type="curve"/>
      <point x="531.881" y="454" type="line"/>
      <point x="521.611" y="499"/>
      <point x="481.974" y="531"/>
      <point x="431.974" y="531" type="curve"/>
    </contour>
    <contour>
      <point x="47.0526" y="370" type="line"/>
      <point x="67.9683" y="569"/>
      <point x="247.836" y="739"/>
      <point x="457.836" y="739" type="curve" smooth="yes"/>
      <point x="666.836" y="739"/>
      <point x="810.968" y="569"/>
      <point x="790.053" y="370" type="curve" smooth="yes"/>
      <point x="769.032" y="170"/>
      <point x="590.164" y="0"/>
      <point x="380.164" y="0" type="curve" smooth="yes"/>
      <point x="170.164" y="0"/>
      <point x="26.1368" y="171"/>
      <point x="47.0526" y="370" type="curve"/>
    </contour>
    <contour>
      <point x="383.317" y="30" type="line"/>
      <point x="576.317" y="30"/>
      <point x="740.713" y="186"/>
      <point x="760.053" y="370" type="curve" smooth="yes"/>
      <point x="779.287" y="553"/>
      <point x="646.788" y="710"/>
      <point x="454.788" y="710" type="curve" smooth="yes"/>
      <point x="261.788" y="710"/>
      <point x="96.2866" y="553"/>
      <point x="77.0526" y="370" type="curve" smooth="yes"/>
      <point x="57.7134" y="186"/>
      <point x="190.317" y="30"/>
      <point x="383.317" y="30" type="curve"/>
    </contour>
  </outline>
</glyph>
<glyph name="ordfeminine" format="2">
  <advance width="350"/>
  <unicode hex="00AA"/>
  <outline>
    <contour>
      <point x="112.888" y="719" type="line"/>
      <point x="222.57" y="735" type="line" smooth="yes"/>
      <point x="227.686" y="735.72"/>
      <point x="232.719" y="736.069"/>
      <point x="237.645" y="736.069" type="curve" smooth="yes"/>
      <point x="294.285" y="736.069"/>
      <point x="336.836" y="689.959"/>
      <point x="330.744" y="632" type="curve" smooth="yes"/>
      <point x="307.201" y="408" type="line"/>
      <point x="288.044" y="397" type="line"/>
      <point x="281.143" y="436" type="line"/>
      <point x="256.621" y="412"/>
      <point x="225.044" y="397"/>
      <point x="190.044" y="397" type="curve" smooth="yes"/>
      <point x="166.044" y="397" type="line" smooth="yes"/>
      <point x="102.044" y="397"/>
      <point x="56.5098" y="449"/>
      <point x="63.2365" y="513" type="curve" smooth="yes"/>
      <point x="69.9632" y="577"/>
      <point x="126.323" y="628"/>
      <point x="190.323" y="628" type="curve" smooth="yes"/>
      <point x="214.323" y="628" type="line" smooth="yes"/>
      <point x="241.323" y="628"/>
      <point x="264.378" y="619"/>
      <point x="281.906" y="605" type="curve"/>
      <point x="286.741" y="651" type="line" smooth="yes"/>
      <point x="290.583" y="687.56"/>
      <point x="265.145" y="715.766"/>
      <point x="230.481" y="715.766" type="curve" smooth="yes"/>
      <point x="227.219" y="715.766"/>
      <point x="223.876" y="715.516"/>
      <point x="220.468" y="715" type="curve" smooth="yes"/>
      <point x="155.522" y="706" type="line"/>
      <point x="150.161" y="655" type="line"/>
      <point x="106.161" y="655" type="line"/>
      <point x="112.888" y="719" type="line"/>
    </contour>
    <contour>
      <point x="180.146" y="417" type="line"/>
      <point x="226.146" y="417"/>
      <point x="266.035" y="454"/>
      <point x="270.765" y="499" type="curve" smooth="yes"/>
      <point x="273.603" y="526" type="line" smooth="yes"/>
      <point x="278.438" y="572"/>
      <point x="246.326" y="609"/>
      <point x="200.326" y="609" type="curve" smooth="yes"/>
      <point x="155.326" y="609"/>
      <point x="114.438" y="572"/>
      <point x="109.603" y="526" type="curve" smooth="yes"/>
      <point x="106.765" y="499" type="line" smooth="yes"/>
      <point x="102.035" y="454"/>
      <point x="135.146" y="417"/>
      <point x="180.146" y="417" type="curve"/>
    </contour>
  </outline>
</glyph>
<glyph name="guillemotleft" format="2">
  <advance width="472"/>
  <unicode hex="00AB"/>
  <outline>
    <contour>
      <point x="58.09" y="385" type="line"/>
      <point x="214.375" y="578" type="line"/>
      <point x="227.429" y="569" type="line"/>
      <point x="109.568" y="361" type="line"/>
      <point x="183.706" y="153" type="line"/>
      <point x="168.865" y="145" type="line"/>
      <point x="53.045" y="337" type="line"/>
      <point x="58.09" y="385" type="line"/>
    </contour>
    <contour>
      <point x="440.375" y="578" type="line"/>
      <point x="453.429" y="569" type="line"/>
      <point x="335.568" y="361" type="line"/>
      <point x="409.706" y="153" type="line"/>
      <point x="394.865" y="145" type="line"/>
      <point x="279.045" y="337" type="line"/>
      <point x="284.09" y="385" type="line"/>
    </contour>
  </outline>
</glyph>
<glyph name="logicalnot" format="2">
  <advance width="424"/>
  <unicode hex="00AC"/>
  <outline>
    <contour>
      <point x="396.865" y="378" type="line"/>
      <point x="380.574" y="223" type="line"/>
      <point x="304.574" y="223" type="line"/>
      <point x="317.396" y="345" type="line"/>
      <point x="63.3963" y="345" type="line"/>
      <point x="66.8647" y="378" type="line"/>
      <point x="396.865" y="378" type="line"/>
    </contour>
  </outline>
</glyph>
<glyph name="uni00AD" format="2">
  <advance width="505"/>
  <unicode hex="00AD"/>
  <outline>
    <contour>
      <point x="16.3963" y="345" type="line"/>
      <point x="19.8647" y="378" type="line"/>
      <point x="524.865" y="378" type="line"/>
      <point x="521.396" y="345" type="line"/>
      <point x="16.3963" y="345" type="line"/>
    </contour>
  </outline>
</glyph>
<glyph name="registered" format="2">
  <advance width="415"/>
  <unicode hex="00AE"/>
  <outline>
    <contour>
      <point x="70.0719" y="579" type="line"/>
      <point x="79.1109" y="665"/>
      <point x="155.783" y="738"/>
      <point x="246.783" y="738" type="curve" smooth="yes"/>
      <point x="336.783" y="738"/>
      <point x="398.111" y="665"/>
      <point x="389.072" y="579" type="curve" smooth="yes"/>
      <point x="380.138" y="494"/>
      <point x="303.465" y="421"/>
      <point x="213.465" y="421" type="curve" smooth="yes"/>
      <point x="122.465" y="421"/>
      <point x="61.138" y="494"/>
      <point x="70.0719" y="579" type="curve"/>
    </contour>
    <contour>
      <point x="283.243" y="495" type="line"/>
      <point x="301.243" y="495" type="line"/>
      <point x="300.402" y="487" type="line"/>
      <point x="276.402" y="487" type="line" smooth="yes"/>
      <point x="262.402" y="487"/>
      <point x="250.138" y="494"/>
      <point x="245.504" y="507" type="curve"/>
      <point x="220.6" y="565" type="line"/>
      <point x="218.231" y="571"/>
      <point x="211.651" y="575"/>
      <point x="204.651" y="575" type="curve" smooth="yes"/>
      <point x="196.651" y="575" type="line"/>
      <point x="187.402" y="487" type="line"/>
      <point x="168.402" y="487" type="line"/>
      <point x="186.796" y="662" type="line"/>
      <point x="171.796" y="662" type="line"/>
      <point x="172.741" y="671" type="line"/>
      <point x="247.741" y="671" type="line" smooth="yes"/>
      <point x="279.741" y="671"/>
      <point x="303.904" y="644"/>
      <point x="300.54" y="612" type="curve" smooth="yes"/>
      <point x="297.492" y="583"/>
      <point x="273.97" y="559"/>
      <point x="246.444" y="554" type="curve"/>
      <point x="267.294" y="505" type="line" smooth="yes"/>
      <point x="269.664" y="499"/>
      <point x="276.243" y="495"/>
      <point x="283.243" y="495" type="curve"/>
    </contour>
    <contour>
      <point x="215.357" y="439" type="line"/>
      <point x="294.357" y="439"/>
      <point x="363.084" y="503"/>
      <point x="371.072" y="579" type="curve" smooth="yes"/>
      <point x="379.06" y="655"/>
      <point x="323.892" y="720"/>
      <point x="244.892" y="720" type="curve" smooth="yes"/>
      <point x="164.892" y="720"/>
      <point x="96.0598" y="655"/>
      <point x="88.0719" y="579" type="curve" smooth="yes"/>
      <point x="80.1891" y="504"/>
      <point x="135.357" y="439"/>
      <point x="215.357" y="439" type="curve"/>
    </contour>
    <contour>
      <point x="197.492" y="583" type="line"/>
      <point x="211.492" y="583" type="line" smooth="yes"/>
      <point x="225.492" y="583"/>
      <point x="236.651" y="575"/>
      <point x="242.495" y="564" type="curve"/>
      <point x="263.231" y="571"/>
      <point x="279.123" y="589"/>
      <point x="281.54" y="612" type="curve" smooth="yes"/>
      <point x="284.483" y="640"/>
      <point x="263.796" y="662"/>
      <point x="235.796" y="662" type="curve" smooth="yes"/>
      <point x="205.796" y="662" type="line"/>
      <point x="197.492" y="583" type="line"/>
    </contour>
  </outline>
</glyph>
<glyph name="macron" format="2">
  <advance width="269"/>
  <unicode hex="00AF"/>
  <outline>
    <contour>
      <point x="31.8991" y="640" type="line"/>
      <point x="35.3676" y="673" type="line"/>
      <point x="304.368" y="673" type="line"/>
      <point x="300.899" y="640" type="line"/>
      <point x="31.8991" y="640" type="line"/>
    </contour>
  </outline>
</glyph>
<glyph name="degree" format="2">
  <advance width="276"/>
  <unicode hex="00B0"/>
  <outline>
    <contour>
      <point x="157.549" y="554" type="line"/>
      <point x="107.549" y="554"/>
      <point x="71.8587" y="595"/>
      <point x="77.1139" y="645" type="curve" smooth="yes"/>
      <point x="82.3691" y="695"/>
      <point x="126.678" y="736"/>
      <point x="176.678" y="736" type="curve" smooth="yes"/>
      <point x="226.678" y="736"/>
      <point x="263.369" y="695"/>
      <point x="258.114" y="645" type="curve" smooth="yes"/>
      <point x="252.859" y="595"/>
      <point x="207.654" y="555"/>
      <point x="157.549" y="554" type="curve"/>
    </contour>
    <contour>
      <point x="173.315" y="704" type="line"/>
      <point x="140.315" y="704"/>
      <point x="111.582" y="678"/>
      <point x="108.114" y="645" type="curve" smooth="yes"/>
      <point x="104.645" y="612"/>
      <point x="127.913" y="586"/>
      <point x="160.913" y="586" type="curve" smooth="yes"/>
      <point x="193.913" y="586"/>
      <point x="223.645" y="612"/>
      <point x="227.114" y="645" type="curve" smooth="yes"/>
      <point x="230.582" y="678"/>
      <point x="206.315" y="704"/>
      <point x="173.315" y="704" type="curve"/>
    </contour>
  </outline>
</glyph>
<glyph name="twosuperior" format="2">
  <advance width="410"/>
  <unicode hex="00B2"/>
  <outline>
    <contour>
      <point x="83.6288" y="716" type="line"/>
      <point x="85.6258" y="735" type="line"/>
      <point x="310.626" y="735" type="line" smooth="yes"/>
      <point x="360.626" y="735"/>
      <point x="396.422" y="695"/>
      <point x="391.166" y="645" type="curve" smooth="yes"/>
      <point x="380.761" y="546" type="line"/>
      <point x="127.617" y="459" type="line" smooth="yes"/>
      <point x="112.092" y="454"/>
      <point x="100.515" y="439"/>
      <point x="98.9384" y="424" type="curve" smooth="yes"/>
      <point x="87.3769" y="314" type="line"/>
      <point x="356.377" y="314" type="line"/>
      <point x="354.275" y="294" type="line"/>
      <point x="39.2748" y="294" type="line"/>
      <point x="52.7282" y="422" type="line" smooth="yes"/>
      <point x="56.617" y="459"/>
      <point x="84.0855" y="492"/>
      <point x="119.347" y="504" type="curve" smooth="yes"/>
      <point x="338.335" y="580" type="line"/>
      <point x="346.323" y="656" type="line" smooth="yes"/>
      <point x="349.791" y="689"/>
      <point x="326.629" y="716"/>
      <point x="292.629" y="716" type="curve" smooth="yes"/>
      <point x="83.6288" y="716" type="line"/>
    </contour>
  </outline>
</glyph>
<glyph name="threesuperior" format="2">
  <advance width="410"/>
  <unicode hex="00B3"/>
  <outline>
    <contour>
      <point x="235.222" y="294" type="line"/>
      <point x="40.2223" y="294" type="line"/>
      <point x="42.3244" y="314" type="line"/>
      <point x="237.324" y="314" type="line" smooth="yes"/>
      <point x="278.324" y="314"/>
      <point x="315.423" y="353"/>
      <point x="320.363" y="400" type="curve" smooth="yes"/>
      <point x="322.36" y="419" type="line" smooth="yes"/>
      <point x="327.3" y="466"/>
      <point x="298.399" y="505"/>
      <point x="257.399" y="505" type="curve" smooth="yes"/>
      <point x="173.399" y="505" type="line"/>
      <point x="175.501" y="525" type="line"/>
      <point x="259.501" y="525" type="line" smooth="yes"/>
      <point x="300.501" y="525"/>
      <point x="337.495" y="563"/>
      <point x="342.54" y="611" type="curve" smooth="yes"/>
      <point x="344.537" y="630" type="line" smooth="yes"/>
      <point x="349.477" y="677"/>
      <point x="320.576" y="716"/>
      <point x="279.576" y="716" type="curve" smooth="yes"/>
      <point x="84.5763" y="716" type="line"/>
      <point x="86.6784" y="736" type="line"/>
      <point x="281.678" y="736" type="line" smooth="yes"/>
      <point x="347.678" y="736"/>
      <point x="395.633" y="688"/>
      <point x="389.537" y="630" type="curve" smooth="yes"/>
      <point x="387.54" y="611" type="line" smooth="yes"/>
      <point x="383.336" y="571"/>
      <point x="350.447" y="534"/>
      <point x="309.45" y="515" type="curve"/>
      <point x="346.348" y="495"/>
      <point x="371.459" y="458"/>
      <point x="367.36" y="419" type="curve" smooth="yes"/>
      <point x="365.363" y="400" type="line" smooth="yes"/>
      <point x="359.267" y="342"/>
      <point x="301.222" y="294"/>
      <point x="235.222" y="294" type="curve"/>
    </contour>
  </outline>
</glyph>
<glyph name="acute" format="2">
  <advance width="120"/>
  <unicode hex="00B4"/>
  <outline>
    <contour>
      <point x="97.1963" y="841" type="line"/>
      <point x="163.196" y="841" type="line"/>
      <point x="65.1604" y="736" type="line"/>
      <point x="35.4727" y="758" type="line"/>
    </contour>
  </outline>
</glyph>
<glyph name="uni00B5" format="2">
  <advance width="599"/>
  <unicode hex="00B5"/>
  <outline>
    <contour>
      <point x="498.987" y="33" type="line"/>
      <point x="524.987" y="33" type="line"/>
      <point x="521.518" y="0" type="line"/>
      <point x="495.518" y="0" type="line" smooth="yes"/>
      <point x="448.518" y="0"/>
      <point x="409.251" y="26"/>
      <point x="392.35" y="65" type="curve"/>
      <point x="349.146" y="25"/>
      <point x="292.518" y="0"/>
      <point x="231.518" y="0" type="curve" smooth="yes"/>
      <point x="179.518" y="0"/>
      <point x="133.515" y="19"/>
      <point x="98.7735" y="50" type="curve"/>
      <point x="67.5575" y="-247" type="line"/>
      <point x="-8.44248" y="-247" type="line"/>
      <point x="76.4817" y="561" type="line"/>
      <point x="152.482" y="561" type="line"/>
      <point x="111.491" y="171" type="line" smooth="yes"/>
      <point x="103.398" y="94"/>
      <point x="158.987" y="33"/>
      <point x="234.987" y="33" type="curve" smooth="yes"/>
      <point x="310.987" y="33"/>
      <point x="379.398" y="94"/>
      <point x="387.491" y="171" type="curve" smooth="yes"/>
      <point x="428.482" y="561" type="line"/>
      <point x="504.482" y="561" type="line"/>
      <point x="454.242" y="83" type="line" smooth="yes"/>
      <point x="451.299" y="55"/>
      <point x="471.987" y="33"/>
      <point x="498.987" y="33" type="curve"/>
    </contour>
  </outline>
</glyph>
<glyph name="paragraph" format="2">
  <advance width="247"/>
  <unicode hex="00B6"/>
  <outline>
    <contour>
      <point x="184.653" y="0" type="line"/>
      <point x="165.653" y="0" type="line"/>
      <point x="178.476" y="122" type="line"/>
      <point x="122.476" y="122" type="line" smooth="yes"/>
      <point x="80.476" y="122"/>
      <point x="50.0495" y="156"/>
      <point x="54.4639" y="198" type="curve" smooth="yes"/>
      <point x="58.7732" y="239"/>
      <point x="96.3467" y="273"/>
      <point x="138.347" y="273" type="curve" smooth="yes"/>
      <point x="213.347" y="273" type="line"/>
      <point x="184.653" y="0" type="line"/>
    </contour>
  </outline>
</glyph>
<glyph name="periodcentered" format="2">
  <advance width="174"/>
  <unicode hex="00B7"/>
  <outline>
    <contour>
      <point x="108.073" y="401" type="line"/>
      <point x="130.073" y="401"/>
      <point x="146.182" y="383"/>
      <point x="143.869" y="361" type="curve" smooth="yes"/>
      <point x="141.557" y="339"/>
      <point x="121.77" y="322"/>
      <point x="99.7702" y="322" type="curve" smooth="yes"/>
      <point x="77.7702" y="322"/>
      <point x="61.5569" y="339"/>
      <point x="63.8692" y="361" type="curve" smooth="yes"/>
      <point x="66.1815" y="383"/>
      <point x="86.0734" y="401"/>
      <point x="108.073" y="401" type="curve"/>
    </contour>
  </outline>
</glyph>
<glyph name="cedilla" format="2">
  <advance width="120"/>
  <unicode hex="00B8"/>
  <outline>
    <contour>
      <point x="44.5255" y="10" type="line"/>
      <point x="96.5255" y="10" type="line"/>
      <point x="44.3784" y="-58" type="line"/>
      <point x="112.012" y="-71" type="line"/>
      <point x="106.442" y="-124"/>
      <point x="59.0272" y="-166"/>
      <point x="7.02718" y="-166" type="curve" smooth="yes"/>
      <point x="-15.9728" y="-166" type="line"/>
      <point x="-13.6605" y="-144" type="line"/>
      <point x="-6.66053" y="-144" type="line"/>
      <point x="25.4446" y="-143"/>
      <point x="54.1773" y="-117"/>
      <point x="57.5406" y="-85" type="curve"/>
      <point x="-7.09303" y="-72" type="line"/>
      <point x="-5.20115" y="-54" type="line"/>
    </contour>
  </outline>
</glyph>
<glyph name="onesuperior" format="2">
  <advance width="244"/>
  <unicode hex="00B9"/>
  <outline>
    <contour>
      <point x="138.377" y="314" type="line"/>
      <point x="190.377" y="314" type="line"/>
      <point x="188.275" y="294" type="line"/>
      <point x="39.2748" y="294" type="line"/>
      <point x="41.3769" y="314" type="line"/>
      <point x="93.3769" y="314" type="line"/>
      <point x="135.629" y="716" type="line"/>
      <point x="83.6288" y="716" type="line"/>
      <point x="91.6258" y="735" type="line"/>
      <point x="182.626" y="735" type="line"/>
      <point x="138.377" y="314" type="line"/>
    </contour>
  </outline>
</glyph>
<glyph name="ordmasculine" format="2">
  <advance width="394"/>
  <unicode hex="00BA"/>
  <outline>
    <contour>
      <point x="67.0239" y="549" type="line"/>
      <point x="71.0178" y="587" type="line" smooth="yes"/>
      <point x="79.6364" y="669"/>
      <point x="153.678" y="736"/>
      <point x="235.678" y="736" type="curve" smooth="yes"/>
      <point x="318.678" y="736"/>
      <point x="377.636" y="669"/>
      <point x="369.018" y="587" type="curve" smooth="yes"/>
      <point x="365.024" y="549" type="line" smooth="yes"/>
      <point x="356.3" y="466"/>
      <point x="283.363" y="400"/>
      <point x="200.363" y="400" type="curve" smooth="yes"/>
      <point x="118.363" y="400"/>
      <point x="58.3002" y="466"/>
      <point x="67.0239" y="549" type="curve"/>
    </contour>
    <contour>
      <point x="118.751" y="613" type="line"/>
      <point x="109.291" y="523" type="line" smooth="yes"/>
      <point x="103.3" y="466"/>
      <point x="145.36" y="419"/>
      <point x="202.36" y="419" type="curve" smooth="yes"/>
      <point x="259.36" y="419"/>
      <point x="311.3" y="466"/>
      <point x="317.291" y="523" type="curve" smooth="yes"/>
      <point x="326.751" y="613" type="line" smooth="yes"/>
      <point x="332.741" y="670"/>
      <point x="290.576" y="716"/>
      <point x="233.576" y="716" type="curve" smooth="yes"/>
      <point x="176.576" y="716"/>
      <point x="124.741" y="670"/>
      <point x="118.751" y="613" type="curve"/>
    </contour>
  </outline>
</glyph>
<glyph name="guillemotright" format="2">
  <advance width="472"/>
  <unicode hex="00BB"/>
  <outline>
    <contour>
      <point x="77.4292" y="569" type="line"/>
      <point x="92.3751" y="578" type="line"/>
      <point x="208.09" y="385" type="line"/>
      <point x="203.045" y="337" type="line"/>
      <point x="46.865" y="145" type="line"/>
      <point x="33.7058" y="153" type="line"/>
      <point x="151.568" y="361" type="line"/>
    </contour>
    <contour>
      <point x="318.375" y="578" type="line"/>
      <point x="434.09" y="385" type="line"/>
      <point x="429.045" y="337" type="line"/>
      <point x="272.865" y="145" type="line"/>
      <point x="259.706" y="153" type="line"/>
      <point x="377.568" y="361" type="line"/>
      <point x="303.429" y="569" type="line"/>
    </contour>
  </outline>
</glyph>
<glyph name="onequarter" format="2">
  <advance width="640"/>
  <unicode hex="00BC"/>
  <outline>
    <contour>
      <point x="540.275" y="294" type="line"/>
      <point x="584.275" y="294" type="line"/>
      <point x="553.374" y="0" type="line"/>
      <point x="523.374" y="0" type="line"/>
      <point x="530.731" y="70" type="line"/>
      <point x="351.731" y="70" type="line"/>
      <point x="354.464" y="96" type="line"/>
    </contour>
    <contour>
      <point x="61.3742" y="0" type="line"/>
      <point x="19.3742" y="0" type="line"/>
      <point x="578.626" y="735" type="line"/>
      <point x="620.626" y="735" type="line"/>
    </contour>
    <contour>
      <point x="122.092" y="454" type="line"/>
      <point x="156.092" y="454" type="line"/>
      <point x="154.725" y="441" type="line"/>
      <point x="55.7252" y="441" type="line"/>
      <point x="57.0915" y="454" type="line"/>
      <point x="91.0915" y="454" type="line"/>
      <point x="119.259" y="722" type="line"/>
      <point x="85.2595" y="722" type="line"/>
      <point x="90.6258" y="735" type="line"/>
      <point x="151.626" y="735" type="line"/>
      <point x="122.092" y="454" type="line"/>
    </contour>
    <contour>
      <point x="552.173" y="274" type="line"/>
      <point x="384.464" y="96" type="line"/>
      <point x="383.098" y="83" type="line"/>
      <point x="532.098" y="83" type="line"/>
      <point x="552.173" y="274" type="line"/>
    </contour>
  </outline>
</glyph>
<glyph name="onehalf" format="2">
  <advance width="630"/>
  <unicode hex="00BD"/>
  <outline>
    <contour>
      <point x="363.908" y="281" type="line"/>
      <point x="365.275" y="294" type="line"/>
      <point x="514.275" y="294" type="line" smooth="yes"/>
      <point x="547.275" y="294"/>
      <point x="571.437" y="267"/>
      <point x="567.969" y="234" type="curve" smooth="yes"/>
      <point x="561.032" y="168" type="line"/>
      <point x="392.936" y="110" type="line"/>
      <point x="382.515" y="106"/>
      <point x="374.569" y="97"/>
      <point x="373.413" y="86" type="curve" smooth="yes"/>
      <point x="365.741" y="13" type="line"/>
      <point x="544.741" y="13" type="line"/>
      <point x="543.374" y="0" type="line"/>
      <point x="334.374" y="0" type="line"/>
      <point x="343.308" y="85" type="line" smooth="yes"/>
      <point x="345.936" y="110"/>
      <point x="363.248" y="132"/>
      <point x="387.089" y="140" type="curve" smooth="yes"/>
      <point x="533.344" y="190" type="line"/>
      <point x="538.704" y="241" type="line" smooth="yes"/>
      <point x="541.017" y="263"/>
      <point x="524.908" y="281"/>
      <point x="502.908" y="281" type="curve" smooth="yes"/>
      <point x="363.908" y="281" type="line"/>
    </contour>
    <contour>
      <point x="61.3742" y="0" type="line"/>
      <point x="19.3742" y="0" type="line"/>
      <point x="578.626" y="735" type="line"/>
      <point x="620.626" y="735" type="line"/>
    </contour>
    <contour>
      <point x="122.092" y="454" type="line"/>
      <point x="156.092" y="454" type="line"/>
      <point x="154.725" y="441" type="line"/>
      <point x="55.7252" y="441" type="line"/>
      <point x="57.0915" y="454" type="line"/>
      <point x="91.0915" y="454" type="line"/>
      <point x="119.259" y="722" type="line"/>
      <point x="85.2595" y="722" type="line"/>
      <point x="90.6258" y="735" type="line"/>
      <point x="151.626" y="735" type="line"/>
      <point x="122.092" y="454" type="line"/>
    </contour>
  </outline>
</glyph>
<glyph name="threequarters" format="2">
  <advance width="640"/>
  <unicode hex="00BE"/>
  <outline>
    <contour>
      <point x="540.275" y="294" type="line"/>
      <point x="584.275" y="294" type="line"/>
      <point x="553.374" y="0" type="line"/>
      <point x="523.374" y="0" type="line"/>
      <point x="530.731" y="70" type="line"/>
      <point x="351.731" y="70" type="line"/>
      <point x="354.464" y="96" type="line"/>
    </contour>
    <contour>
      <point x="61.3742" y="0" type="line"/>
      <point x="19.3742" y="0" type="line"/>
      <point x="578.626" y="735" type="line"/>
      <point x="620.626" y="735" type="line"/>
    </contour>
    <contour>
      <point x="185.725" y="441" type="line"/>
      <point x="55.7252" y="441" type="line"/>
      <point x="57.0915" y="454" type="line"/>
      <point x="187.092" y="454" type="line" smooth="yes"/>
      <point x="214.092" y="454"/>
      <point x="238.824" y="480"/>
      <point x="242.188" y="512" type="curve" smooth="yes"/>
      <point x="243.449" y="524" type="line" smooth="yes"/>
      <point x="246.812" y="556"/>
      <point x="227.545" y="582"/>
      <point x="200.545" y="582" type="curve" smooth="yes"/>
      <point x="144.545" y="582" type="line"/>
      <point x="145.911" y="595" type="line"/>
      <point x="201.911" y="595" type="line" smooth="yes"/>
      <point x="228.911" y="595"/>
      <point x="253.644" y="621"/>
      <point x="256.902" y="652" type="curve" smooth="yes"/>
      <point x="258.269" y="665" type="line" smooth="yes"/>
      <point x="261.632" y="697"/>
      <point x="242.259" y="722"/>
      <point x="215.259" y="722" type="curve" smooth="yes"/>
      <point x="85.2595" y="722" type="line"/>
      <point x="86.6258" y="735" type="line"/>
      <point x="216.626" y="735" type="line" smooth="yes"/>
      <point x="260.626" y="735"/>
      <point x="292.368" y="704"/>
      <point x="288.269" y="665" type="curve" smooth="yes"/>
      <point x="286.902" y="652" type="line" smooth="yes"/>
      <point x="284.169" y="626"/>
      <point x="262.542" y="601"/>
      <point x="235.175" y="588" type="curve"/>
      <point x="259.809" y="575"/>
      <point x="276.287" y="551"/>
      <point x="273.449" y="524" type="curve" smooth="yes"/>
      <point x="272.188" y="512" type="line" smooth="yes"/>
      <point x="268.088" y="473"/>
      <point x="229.725" y="441"/>
      <point x="185.725" y="441" type="curve"/>
    </contour>
    <contour>
      <point x="552.173" y="274" type="line"/>
      <point x="384.464" y="96" type="line"/>
      <point x="383.098" y="83" type="line"/>
      <point x="532.098" y="83" type="line"/>
      <point x="552.173" y="274" type="line"/>
    </contour>
  </outline>
</glyph>
<glyph name="questiondown" format="2">
  <advance width="541"/>
  <unicode hex="00BF"/>
  <outline>
    <contour>
      <point x="268.619" y="382" type="line"/>
      <point x="273.979" y="433" type="line"/>
      <point x="349.979" y="433" type="line"/>
      <point x="344.619" y="382" type="line" smooth="yes"/>
      <point x="339.468" y="333"/>
      <point x="307.108" y="282"/>
      <point x="258.009" y="243" type="curve" smooth="yes"/>
      <point x="154.496" y="162" type="line" smooth="yes"/>
      <point x="122.973" y="138"/>
      <point x="102.559" y="96"/>
      <point x="97.5137" y="48" type="curve" smooth="yes"/>
      <point x="88.7901" y="-35"/>
      <point x="139.643" y="-103"/>
      <point x="210.643" y="-103" type="curve" smooth="yes"/>
      <point x="245.643" y="-103" type="line" smooth="yes"/>
      <point x="316.643" y="-103"/>
      <point x="381.79" y="-35"/>
      <point x="390.514" y="48" type="curve" smooth="yes"/>
      <point x="395.454" y="95" type="line"/>
      <point x="471.454" y="95" type="line"/>
      <point x="466.514" y="48" type="line" smooth="yes"/>
      <point x="455.898" y="-53"/>
      <point x="355.28" y="-135"/>
      <point x="242.28" y="-135" type="curve" smooth="yes"/>
      <point x="207.28" y="-135" type="line" smooth="yes"/>
      <point x="94.2797" y="-135"/>
      <point x="10.8982" y="-53"/>
      <point x="21.5137" y="48" type="curve" smooth="yes"/>
      <point x="26.6638" y="97"/>
      <point x="58.0242" y="148"/>
      <point x="108.123" y="187" type="curve" smooth="yes"/>
      <point x="210.637" y="268" type="line" smooth="yes"/>
      <point x="242.159" y="292"/>
      <point x="263.574" y="334"/>
      <point x="268.619" y="382" type="curve"/>
    </contour>
    <contour>
      <point x="364.432" y="561" type="line"/>
      <point x="362.12" y="539"/>
      <point x="342.228" y="521"/>
      <point x="320.228" y="521" type="curve" smooth="yes"/>
      <point x="299.228" y="521"/>
      <point x="283.12" y="539"/>
      <point x="285.432" y="561" type="curve" smooth="yes"/>
      <point x="287.639" y="582"/>
      <point x="307.531" y="600"/>
      <point x="328.531" y="600" type="curve" smooth="yes"/>
      <point x="350.531" y="600"/>
      <point x="366.639" y="582"/>
      <point x="364.432" y="561" type="curve"/>
    </contour>
  </outline>
</glyph>
<glyph name="Agrave" format="2">
  <advance width="603"/>
  <unicode hex="00C0"/>
  <outline>
    <contour>
      <point x="337.312" y="815" type="line"/>
      <point x="260.348" y="920" type="line"/>
      <point x="327.348" y="920" type="line"/>
      <point x="370.624" y="837" type="line"/>
    </contour>
    <contour>
      <point x="339.009" y="736" type="line"/>
      <point x="547.652" y="0" type="line"/>
      <point x="471.652" y="0" type="line"/>
      <point x="370.49" y="360" type="line"/>
      <point x="207.922" y="288"/>
      <point x="73.4687" y="160"/>
      <point x="-5.34795" y="0" type="curve"/>
      <point x="-40.3479" y="0" type="line"/>
      <point x="318.128" y="728.225" type="line"/>
      <point x="339.009" y="736" type="line"/>
    </contour>
    <contour>
      <point x="298.291" y="615" type="line"/>
      <point x="93.6729" y="200" type="line"/>
      <point x="168.291" y="282"/>
      <point x="260.123" y="347"/>
      <point x="361.748" y="391" type="curve"/>
    </contour>
  </outline>
</glyph>
<glyph name="Aacute" format="2">
  <advance width="603"/>
  <unicode hex="00C1"/>
  <outline>
    <contour>
      <point x="310.887" y="836" type="line"/>
      <point x="367.98" y="913" type="line"/>
      <point x="428.98" y="913" type="line"/>
      <point x="337.68" y="815" type="line"/>
    </contour>
    <contour>
      <point x="339.377" y="736" type="line"/>
      <point x="548.02" y="0" type="line"/>
      <point x="472.02" y="0" type="line"/>
      <point x="370.857" y="360" type="line"/>
      <point x="208.29" y="288"/>
      <point x="73.8366" y="160"/>
      <point x="-4.98008" y="0" type="curve"/>
      <point x="-39.9801" y="0" type="line"/>
      <point x="318.496" y="728.225" type="line"/>
      <point x="339.377" y="736" type="line"/>
    </contour>
    <contour>
      <point x="298.659" y="615" type="line"/>
      <point x="94.0408" y="200" type="line"/>
      <point x="168.659" y="282"/>
      <point x="260.491" y="347"/>
      <point x="362.116" y="391" type="curve"/>
    </contour>
  </outline>
</glyph>
<glyph name="Acircumflex" format="2">
  <advance width="603"/>
  <unicode hex="00C2"/>
  <outline>
    <contour>
      <point x="261.887" y="836" type="line"/>
      <point x="318.98" y="913" type="line"/>
      <point x="380.98" y="913" type="line"/>
      <point x="421.887" y="836" type="line"/>
      <point x="390.68" y="815" type="line"/>
      <point x="346.091" y="876" type="line"/>
      <point x="288.68" y="815" type="line"/>
    </contour>
    <contour>
      <point x="339.377" y="736" type="line"/>
      <point x="548.02" y="0" type="line"/>
      <point x="472.02" y="0" type="line"/>
      <point x="370.857" y="360" type="line"/>
      <point x="208.29" y="288"/>
      <point x="73.8366" y="160"/>
      <point x="-4.98008" y="0" type="curve"/>
      <point x="-39.9801" y="0" type="line"/>
      <point x="318.496" y="728.225" type="line"/>
      <point x="339.377" y="736" type="line"/>
    </contour>
    <contour>
      <point x="298.659" y="615" type="line"/>
      <point x="94.0408" y="200" type="line"/>
      <point x="168.659" y="282"/>
      <point x="260.491" y="347"/>
      <point x="362.116" y="391" type="curve"/>
    </contour>
  </outline>
</glyph>
<glyph name="Atilde" format="2">
  <advance width="603"/>
  <unicode hex="00C3"/>
  <outline>
    <contour>
      <point x="246.202" y="811" type="line"/>
      <point x="226.31" y="793" type="line"/>
      <point x="215.467" y="804" type="line"/>
      <point x="236.464" y="823" type="line"/>
      <point x="256.461" y="842"/>
      <point x="282.512" y="852"/>
      <point x="307.512" y="852" type="curve" smooth="yes"/>
      <point x="317.512" y="852"/>
      <point x="326.301" y="850"/>
      <point x="335.986" y="847" type="curve" smooth="yes"/>
      <point x="397.989" y="828" type="line" smooth="yes"/>
      <point x="401.884" y="827"/>
      <point x="405.779" y="826"/>
      <point x="408.779" y="826" type="curve" smooth="yes"/>
      <point x="419.779" y="826"/>
      <point x="431.304" y="831"/>
      <point x="440.04" y="838" type="curve"/>
      <point x="460.037" y="857" type="line"/>
      <point x="470.776" y="845" type="line"/>
      <point x="449.779" y="826" type="line" smooth="yes"/>
      <point x="429.887" y="808"/>
      <point x="402.836" y="798"/>
      <point x="377.836" y="798" type="curve" smooth="yes"/>
      <point x="368.836" y="798"/>
      <point x="358.941" y="799"/>
      <point x="350.256" y="802" type="curve" smooth="yes"/>
      <point x="288.359" y="822" type="line" smooth="yes"/>
      <point x="285.464" y="823"/>
      <point x="281.569" y="824"/>
      <point x="277.569" y="824" type="curve" smooth="yes"/>
      <point x="266.569" y="824"/>
      <point x="255.043" y="819"/>
      <point x="246.202" y="811" type="curve"/>
    </contour>
    <contour>
      <point x="342.32" y="736" type="line"/>
      <point x="550.963" y="0" type="line"/>
      <point x="474.963" y="0" type="line"/>
      <point x="373.8" y="360" type="line"/>
      <point x="211.233" y="288"/>
      <point x="76.7795" y="160"/>
      <point x="-2.03716" y="0" type="curve"/>
      <point x="-37.0372" y="0" type="line"/>
      <point x="321.439" y="728.225" type="line"/>
      <point x="342.32" y="736" type="line"/>
    </contour>
    <contour>
      <point x="301.602" y="615" type="line"/>
      <point x="96.9837" y="200" type="line"/>
      <point x="171.602" y="282"/>
      <point x="263.434" y="347"/>
      <point x="365.059" y="391" type="curve"/>
    </contour>
  </outline>
</glyph>
<glyph name="Adieresis" format="2">
  <advance width="603"/>
  <unicode hex="00C4"/>
  <outline>
    <contour>
      <point x="302.298" y="881" type="line"/>
      <point x="320.298" y="881"/>
      <point x="333.722" y="866"/>
      <point x="331.83" y="848" type="curve" smooth="yes"/>
      <point x="329.938" y="830"/>
      <point x="313.362" y="815"/>
      <point x="295.362" y="815" type="curve" smooth="yes"/>
      <point x="276.362" y="815"/>
      <point x="262.938" y="830"/>
      <point x="264.83" y="848" type="curve" smooth="yes"/>
      <point x="266.722" y="866"/>
      <point x="283.298" y="881"/>
      <point x="302.298" y="881" type="curve"/>
    </contour>
    <contour>
      <point x="394.298" y="881" type="line"/>
      <point x="412.298" y="881"/>
      <point x="425.722" y="866"/>
      <point x="423.83" y="848" type="curve" smooth="yes"/>
      <point x="421.938" y="830"/>
      <point x="405.362" y="815"/>
      <point x="387.362" y="815" type="curve" smooth="yes"/>
      <point x="369.362" y="815"/>
      <point x="355.938" y="830"/>
      <point x="357.83" y="848" type="curve" smooth="yes"/>
      <point x="359.722" y="866"/>
      <point x="376.298" y="881"/>
      <point x="394.298" y="881" type="curve"/>
    </contour>
    <contour>
      <point x="341.058" y="736" type="line"/>
      <point x="549.702" y="0" type="line"/>
      <point x="473.702" y="0" type="line"/>
      <point x="372.539" y="360" type="line"/>
      <point x="209.972" y="288"/>
      <point x="75.5183" y="160"/>
      <point x="-3.29842" y="0" type="curve"/>
      <point x="-38.2984" y="0" type="line"/>
      <point x="320.177" y="728.225" type="line"/>
      <point x="341.058" y="736" type="line"/>
    </contour>
    <contour>
      <point x="300.341" y="615" type="line"/>
      <point x="95.7224" y="200" type="line"/>
      <point x="170.341" y="282"/>
      <point x="262.173" y="347"/>
      <point x="363.797" y="391" type="curve"/>
    </contour>
  </outline>
</glyph>
<glyph name="Aring" format="2">
  <advance width="603"/>
  <unicode hex="00C5"/>
  <outline>
    <contour>
      <point x="338.103" y="796" type="line"/>
      <point x="308.103" y="796"/>
      <point x="286.626" y="820"/>
      <point x="289.779" y="850" type="curve" smooth="yes"/>
      <point x="292.932" y="880"/>
      <point x="319.56" y="905"/>
      <point x="349.56" y="905" type="curve" smooth="yes"/>
      <point x="379.56" y="905"/>
      <point x="400.932" y="880"/>
      <point x="397.779" y="850" type="curve" smooth="yes"/>
      <point x="394.626" y="820"/>
      <point x="368.103" y="796"/>
      <point x="338.103" y="796" type="curve"/>
    </contour>
    <contour>
      <point x="347.563" y="886" type="line"/>
      <point x="327.563" y="886"/>
      <point x="309.881" y="870"/>
      <point x="307.779" y="850" type="curve" smooth="yes"/>
      <point x="305.782" y="831"/>
      <point x="320.1" y="815"/>
      <point x="340.1" y="815" type="curve" smooth="yes"/>
      <point x="360.1" y="815"/>
      <point x="377.782" y="831"/>
      <point x="379.779" y="850" type="curve" smooth="yes"/>
      <point x="381.881" y="870"/>
      <point x="367.563" y="886"/>
      <point x="347.563" y="886" type="curve"/>
    </contour>
    <contour>
      <point x="339.797" y="736" type="line"/>
      <point x="548.44" y="0" type="line"/>
      <point x="472.44" y="0" type="line"/>
      <point x="371.278" y="360" type="line"/>
      <point x="208.71" y="288"/>
      <point x="74.257" y="160"/>
      <point x="-4.55967" y="0" type="curve"/>
      <point x="-39.5597" y="0" type="line"/>
      <point x="318.916" y="728.225" type="line"/>
      <point x="339.797" y="736" type="line"/>
    </contour>
    <contour>
      <point x="299.079" y="615" type="line"/>
      <point x="94.4612" y="200" type="line"/>
      <point x="169.08" y="282"/>
      <point x="260.912" y="347"/>
      <point x="362.536" y="391" type="curve"/>
    </contour>
  </outline>
</glyph>
<glyph name="AE" format="2">
  <advance width="901"/>
  <unicode hex="00C6"/>
  <outline>
    <contour>
      <point x="892.678" y="736" type="line"/>
      <point x="889.21" y="703" type="line"/>
      <point x="490.21" y="703" type="line"/>
      <point x="456.682" y="384" type="line"/>
      <point x="748.682" y="384" type="line"/>
      <point x="745.213" y="351" type="line"/>
      <point x="453.213" y="351" type="line"/>
      <point x="425.045" y="83" type="line" smooth="yes"/>
      <point x="422.102" y="55"/>
      <point x="441.79" y="33"/>
      <point x="469.79" y="33" type="curve" smooth="yes"/>
      <point x="818.79" y="33" type="line"/>
      <point x="815.322" y="0" type="line"/>
      <point x="422.322" y="0" type="line" smooth="yes"/>
      <point x="377.322" y="0"/>
      <point x="344.21" y="37"/>
      <point x="348.94" y="82" type="curve" smooth="yes"/>
      <point x="414.21" y="703" type="line"/>
      <point x="350.21" y="703" type="line"/>
      <point x="4.32164" y="0" type="line"/>
      <point x="-31.6784" y="0" type="line"/>
      <point x="331.678" y="736" type="line"/>
      <point x="892.678" y="736" type="line"/>
    </contour>
  </outline>
</glyph>
<glyph name="Ccedilla" format="2">
  <advance width="690"/>
  <unicode hex="00C7"/>
  <outline>
    <contour>
      <point x="338.79" y="33" type="line"/>
      <point x="339.79" y="33" type="line"/>
      <point x="444.79" y="33"/>
      <point x="541.622" y="98"/>
      <point x="588.186" y="189" type="curve"/>
      <point x="640.559" y="164" type="line"/>
      <point x="576.259" y="66"/>
      <point x="466.322" y="0"/>
      <point x="347.322" y="0" type="curve" smooth="yes"/>
      <point x="335.322" y="0" type="line"/>
      <point x="291.226" y="-58" type="line"/>
      <point x="358.859" y="-71" type="line"/>
      <point x="353.289" y="-124"/>
      <point x="305.874" y="-166"/>
      <point x="252.874" y="-166" type="curve" smooth="yes"/>
      <point x="229.874" y="-166" type="line"/>
      <point x="232.187" y="-144" type="line"/>
      <point x="239.187" y="-144" type="line"/>
      <point x="272.292" y="-143"/>
      <point x="301.024" y="-117"/>
      <point x="304.388" y="-85" type="curve"/>
      <point x="238.754" y="-72" type="line"/>
      <point x="240.646" y="-54" type="line"/>
      <point x="284.637" y="3" type="line"/>
      <point x="131.634" y="22"/>
      <point x="25.6128" y="155"/>
      <point x="42.4295" y="315" type="curve" smooth="yes"/>
      <point x="53.5705" y="421" type="line" smooth="yes"/>
      <point x="71.7536" y="594"/>
      <point x="227.678" y="736"/>
      <point x="401.678" y="736" type="curve" smooth="yes"/>
      <point x="424.678" y="736" type="line" smooth="yes"/>
      <point x="543.678" y="736"/>
      <point x="639.636" y="669"/>
      <point x="683.441" y="572" type="curve"/>
      <point x="625.709" y="546" type="line"/>
      <point x="598.378" y="638"/>
      <point x="515.21" y="703"/>
      <point x="410.21" y="703" type="curve"/>
      <point x="409.21" y="703" type="line"/>
      <point x="271.21" y="703"/>
      <point x="147.438" y="591"/>
      <point x="132.934" y="453" type="curve" smooth="yes"/>
      <point x="115.066" y="283" type="line" smooth="yes"/>
      <point x="100.562" y="145"/>
      <point x="200.79" y="33"/>
      <point x="338.79" y="33" type="curve"/>
    </contour>
  </outline>
</glyph>
<glyph name="Egrave" format="2">
  <advance width="533"/>
  <unicode hex="00C8"/>
  <outline>
    <contour>
      <point x="561.904" y="735" type="line"/>
      <point x="558.54" y="703" type="line"/>
      <point x="159.54" y="703" type="line"/>
      <point x="126.012" y="384" type="line"/>
      <point x="419.012" y="384" type="line"/>
      <point x="415.544" y="351" type="line"/>
      <point x="122.544" y="351" type="line"/>
      <point x="94.3757" y="83" type="line" smooth="yes"/>
      <point x="91.4328" y="55"/>
      <point x="112.12" y="33"/>
      <point x="139.12" y="33" type="curve" smooth="yes"/>
      <point x="488.12" y="33" type="line"/>
      <point x="484.652" y="0" type="line"/>
      <point x="91.6521" y="0" type="line" smooth="yes"/>
      <point x="46.6521" y="0"/>
      <point x="13.5409" y="37"/>
      <point x="18.2706" y="82" type="curve" smooth="yes"/>
      <point x="83.5403" y="703" type="line"/>
      <point x="24.5403" y="703" type="line"/>
      <point x="28.0088" y="736" type="line"/>
    </contour>
    <contour>
      <point x="252.348" y="920" type="line"/>
      <point x="318.348" y="920" type="line"/>
      <point x="362.624" y="837" type="line"/>
      <point x="328.312" y="815" type="line"/>
    </contour>
  </outline>
</glyph>
<glyph name="Ecircumflex" format="2">
  <advance width="533"/>
  <unicode hex="00CA"/>
  <outline>
    <contour>
      <point x="562.272" y="735" type="line"/>
      <point x="558.908" y="703" type="line"/>
      <point x="159.908" y="703" type="line"/>
      <point x="126.38" y="384" type="line"/>
      <point x="419.38" y="384" type="line"/>
      <point x="415.912" y="351" type="line"/>
      <point x="122.912" y="351" type="line"/>
      <point x="94.7436" y="83" type="line" smooth="yes"/>
      <point x="91.8006" y="55"/>
      <point x="112.488" y="33"/>
      <point x="139.488" y="33" type="curve" smooth="yes"/>
      <point x="488.488" y="33" type="line"/>
      <point x="485.02" y="0" type="line"/>
      <point x="92.0199" y="0" type="line" smooth="yes"/>
      <point x="47.0199" y="0"/>
      <point x="13.9088" y="37"/>
      <point x="18.6385" y="82" type="curve" smooth="yes"/>
      <point x="83.9082" y="703" type="line"/>
      <point x="24.9082" y="703" type="line"/>
      <point x="28.3766" y="736" type="line"/>
    </contour>
    <contour>
      <point x="312.98" y="913" type="line"/>
      <point x="374.98" y="913" type="line"/>
      <point x="415.887" y="836" type="line"/>
      <point x="384.68" y="815" type="line"/>
      <point x="340.091" y="876" type="line"/>
      <point x="282.68" y="815" type="line"/>
      <point x="255.887" y="836" type="line"/>
    </contour>
  </outline>
</glyph>
<glyph name="Edieresis" format="2">
  <advance width="533"/>
  <unicode hex="00CB"/>
  <outline>
    <contour>
      <point x="563.901" y="735" type="line"/>
      <point x="560.537" y="703" type="line"/>
      <point x="161.537" y="703" type="line"/>
      <point x="128.009" y="384" type="line"/>
      <point x="421.009" y="384" type="line"/>
      <point x="417.541" y="351" type="line"/>
      <point x="124.541" y="351" type="line"/>
      <point x="96.3727" y="83" type="line" smooth="yes"/>
      <point x="93.4298" y="55"/>
      <point x="114.117" y="33"/>
      <point x="141.117" y="33" type="curve" smooth="yes"/>
      <point x="490.117" y="33" type="line"/>
      <point x="486.649" y="0" type="line"/>
      <point x="93.649" y="0" type="line" smooth="yes"/>
      <point x="48.649" y="0"/>
      <point x="15.5379" y="37"/>
      <point x="20.2676" y="82" type="curve" smooth="yes"/>
      <point x="85.5373" y="703" type="line"/>
      <point x="26.5373" y="703" type="line"/>
      <point x="30.0057" y="736" type="line"/>
    </contour>
    <contour>
      <point x="291.351" y="882" type="line"/>
      <point x="310.351" y="882"/>
      <point x="323.774" y="867"/>
      <point x="321.883" y="849" type="curve" smooth="yes"/>
      <point x="319.991" y="831"/>
      <point x="303.414" y="816"/>
      <point x="284.414" y="816" type="curve" smooth="yes"/>
      <point x="266.414" y="816"/>
      <point x="252.991" y="831"/>
      <point x="254.883" y="849" type="curve" smooth="yes"/>
      <point x="256.774" y="867"/>
      <point x="273.351" y="882"/>
      <point x="291.351" y="882" type="curve"/>
    </contour>
    <contour>
      <point x="384.351" y="882" type="line"/>
      <point x="402.351" y="882"/>
      <point x="415.774" y="867"/>
      <point x="413.883" y="849" type="curve" smooth="yes"/>
      <point x="411.991" y="831"/>
      <point x="395.414" y="816"/>
      <point x="377.414" y="816" type="curve" smooth="yes"/>
      <point x="359.414" y="816"/>
      <point x="345.991" y="831"/>
      <point x="347.883" y="849" type="curve" smooth="yes"/>
      <point x="349.774" y="867"/>
      <point x="366.351" y="882"/>
      <point x="384.351" y="882" type="curve"/>
    </contour>
  </outline>
</glyph>
<glyph name="Igrave" format="2">
  <advance width="343"/>
  <unicode hex="00CC"/>
  <outline>
    <contour>
      <point x="234.54" y="703" type="line"/>
      <point x="171.057" y="99" type="line"/>
      <point x="135.12" y="33" type="line"/>
      <point x="251.12" y="33" type="line"/>
      <point x="247.652" y="0" type="line"/>
      <point x="-1.34795" y="0" type="line"/>
      <point x="2.12049" y="33" type="line"/>
      <point x="89.1205" y="33" type="line"/>
      <point x="159.54" y="703" type="line"/>
      <point x="72.5403" y="703" type="line"/>
      <point x="76.0088" y="736" type="line"/>
      <point x="325.009" y="736" type="line"/>
      <point x="321.54" y="703" type="line"/>
      <point x="234.54" y="703" type="line"/>
    </contour>
    <contour>
      <point x="158.348" y="920" type="line"/>
      <point x="224.348" y="920" type="line"/>
      <point x="267.624" y="837" type="line"/>
      <point x="234.312" y="815" type="line"/>
    </contour>
  </outline>
</glyph>
<glyph name="Icircumflex" format="2">
  <advance width="343"/>
  <unicode hex="00CE"/>
  <outline>
    <contour>
      <point x="234.908" y="703" type="line"/>
      <point x="171.425" y="99" type="line"/>
      <point x="135.488" y="33" type="line"/>
      <point x="251.488" y="33" type="line"/>
      <point x="248.02" y="0" type="line"/>
      <point x="-0.980083" y="0" type="line"/>
      <point x="2.48836" y="33" type="line"/>
      <point x="89.4884" y="33" type="line"/>
      <point x="159.908" y="703" type="line"/>
      <point x="72.9082" y="703" type="line"/>
      <point x="76.3766" y="736" type="line"/>
      <point x="325.377" y="736" type="line"/>
      <point x="321.908" y="703" type="line"/>
      <point x="234.908" y="703" type="line"/>
    </contour>
    <contour>
      <point x="186.98" y="913" type="line"/>
      <point x="248.98" y="913" type="line"/>
      <point x="289.887" y="836" type="line"/>
      <point x="258.68" y="815" type="line"/>
      <point x="214.091" y="876" type="line"/>
      <point x="156.68" y="815" type="line"/>
      <point x="129.887" y="836" type="line"/>
    </contour>
  </outline>
</glyph>
<glyph name="Idieresis" format="2">
  <advance width="343"/>
  <unicode hex="00CF"/>
  <outline>
    <contour>
      <point x="236.59" y="703" type="line"/>
      <point x="173.107" y="99" type="line"/>
      <point x="137.17" y="33" type="line"/>
      <point x="253.17" y="33" type="line"/>
      <point x="249.702" y="0" type="line"/>
      <point x="0.701584" y="0" type="line"/>
      <point x="4.17002" y="33" type="line"/>
      <point x="91.17" y="33" type="line"/>
      <point x="161.59" y="703" type="line"/>
      <point x="74.5899" y="703" type="line"/>
      <point x="78.0583" y="736" type="line"/>
      <point x="327.058" y="736" type="line"/>
      <point x="323.59" y="703" type="line"/>
      <point x="236.59" y="703" type="line"/>
    </contour>
    <contour>
      <point x="171.298" y="881" type="line"/>
      <point x="190.298" y="881"/>
      <point x="202.722" y="866"/>
      <point x="200.83" y="848" type="curve" smooth="yes"/>
      <point x="198.938" y="830"/>
      <point x="183.362" y="815"/>
      <point x="164.362" y="815" type="curve" smooth="yes"/>
      <point x="146.362" y="815"/>
      <point x="132.938" y="830"/>
      <point x="134.83" y="848" type="curve" smooth="yes"/>
      <point x="136.722" y="866"/>
      <point x="153.298" y="881"/>
      <point x="171.298" y="881" type="curve"/>
    </contour>
    <contour>
      <point x="264.298" y="881" type="line"/>
      <point x="282.298" y="881"/>
      <point x="295.722" y="866"/>
      <point x="293.83" y="848" type="curve" smooth="yes"/>
      <point x="291.938" y="830"/>
      <point x="275.362" y="815"/>
      <point x="257.362" y="815" type="curve" smooth="yes"/>
      <point x="238.362" y="815"/>
      <point x="225.938" y="830"/>
      <point x="227.83" y="848" type="curve" smooth="yes"/>
      <point x="229.722" y="866"/>
      <point x="245.298" y="881"/>
      <point x="264.298" y="881" type="curve"/>
    </contour>
  </outline>
</glyph>
<glyph name="Eth" format="2">
  <advance width="630"/>
  <unicode hex="00D0"/>
  <outline>
    <contour>
      <point x="34.2099" y="703" type="line"/>
      <point x="37.6784" y="736" type="line"/>
      <point x="305.678" y="736" type="line"/>
      <point x="479.573" y="735"/>
      <point x="605.754" y="594"/>
      <point x="587.571" y="421" type="curve" smooth="yes"/>
      <point x="576.429" y="315" type="line" smooth="yes"/>
      <point x="558.141" y="141"/>
      <point x="402.322" y="0"/>
      <point x="228.322" y="0" type="curve" smooth="yes"/>
      <point x="19.3216" y="0" type="line"/>
      <point x="56.2132" y="351" type="line"/>
      <point x="-2.78677" y="351" type="line"/>
      <point x="0.681668" y="384" type="line"/>
      <point x="59.6817" y="384" type="line"/>
      <point x="93.2099" y="703" type="line"/>
      <point x="34.2099" y="703" type="line"/>
    </contour>
    <contour>
      <point x="169.21" y="703" type="line"/>
      <point x="135.682" y="384" type="line"/>
      <point x="298.682" y="384" type="line"/>
      <point x="295.213" y="351" type="line"/>
      <point x="132.213" y="351" type="line"/>
      <point x="98.8952" y="34" type="line"/>
      <point x="220.895" y="34" type="line" smooth="yes"/>
      <point x="358.895" y="34"/>
      <point x="482.667" y="146"/>
      <point x="497.171" y="284" type="curve" smooth="yes"/>
      <point x="514.934" y="453" type="line" smooth="yes"/>
      <point x="529.438" y="591"/>
      <point x="429.21" y="703"/>
      <point x="291.21" y="703" type="curve" smooth="yes"/>
      <point x="169.21" y="703" type="line"/>
    </contour>
  </outline>
</glyph>
<glyph name="Ntilde" format="2">
  <advance width="628"/>
  <unicode hex="00D1"/>
  <outline>
    <contour>
      <point x="612.32" y="736" type="line"/>
      <point x="534.963" y="0" type="line"/>
      <point x="484.963" y="0" type="line"/>
      <point x="111.863" y="627" type="line"/>
      <point x="45.9628" y="0" type="line"/>
      <point x="12.9628" y="0" type="line"/>
      <point x="86.8511" y="703" type="line"/>
      <point x="27.8511" y="703" type="line"/>
      <point x="31.3196" y="736" type="line"/>
      <point x="140.32" y="736" type="line"/>
      <point x="513.314" y="108" type="line"/>
      <point x="579.32" y="736" type="line"/>
      <point x="612.32" y="736" type="line"/>
    </contour>
    <contour>
      <point x="259.202" y="811" type="line"/>
      <point x="238.31" y="793" type="line"/>
      <point x="228.467" y="804" type="line"/>
      <point x="248.464" y="823" type="line"/>
      <point x="269.461" y="842"/>
      <point x="294.512" y="852"/>
      <point x="319.512" y="852" type="curve" smooth="yes"/>
      <point x="329.512" y="852"/>
      <point x="339.301" y="850"/>
      <point x="348.986" y="847" type="curve" smooth="yes"/>
      <point x="409.989" y="828" type="line"/>
      <point x="413.756" y="826.967"/>
      <point x="417.578" y="826.467"/>
      <point x="421.384" y="826.467" type="curve" smooth="yes"/>
      <point x="432.311" y="826.467"/>
      <point x="443.102" y="830.583"/>
      <point x="452.04" y="838" type="curve"/>
      <point x="473.037" y="857" type="line"/>
      <point x="482.776" y="845" type="line"/>
      <point x="462.779" y="826" type="line"/>
      <point x="441.887" y="808"/>
      <point x="415.836" y="798"/>
      <point x="389.836" y="798" type="curve" smooth="yes"/>
      <point x="380.836" y="798"/>
      <point x="370.941" y="799"/>
      <point x="362.256" y="802" type="curve" smooth="yes"/>
      <point x="301.359" y="822" type="line"/>
      <point x="297.655" y="823.016"/>
      <point x="293.832" y="823.516"/>
      <point x="290.008" y="823.516" type="curve" smooth="yes"/>
      <point x="278.776" y="823.516"/>
      <point x="267.525" y="819.206"/>
      <point x="259.202" y="811" type="curve"/>
    </contour>
  </outline>
</glyph>
<glyph name="Ograve" format="2">
  <advance width="748"/>
  <unicode hex="00D2"/>
  <outline>
    <contour>
      <point x="32.7599" y="315" type="line"/>
      <point x="43.9009" y="421" type="line" smooth="yes"/>
      <point x="62.084" y="594"/>
      <point x="218.009" y="736"/>
      <point x="392.009" y="736" type="curve" smooth="yes"/>
      <point x="414.009" y="736" type="line" smooth="yes"/>
      <point x="588.009" y="736"/>
      <point x="714.084" y="594"/>
      <point x="695.901" y="421" type="curve" smooth="yes"/>
      <point x="684.76" y="315" type="line" smooth="yes"/>
      <point x="666.472" y="141"/>
      <point x="510.652" y="0"/>
      <point x="336.652" y="0" type="curve" smooth="yes"/>
      <point x="314.652" y="0" type="line" smooth="yes"/>
      <point x="140.652" y="0"/>
      <point x="14.4717" y="141"/>
      <point x="32.7599" y="315" type="curve"/>
    </contour>
    <contour>
      <point x="335.348" y="920" type="line"/>
      <point x="401.348" y="920" type="line"/>
      <point x="444.624" y="837" type="line"/>
      <point x="411.312" y="815" type="line"/>
    </contour>
    <contour>
      <point x="123.264" y="453" type="line"/>
      <point x="105.397" y="283" type="line" smooth="yes"/>
      <point x="90.8922" y="145"/>
      <point x="190.12" y="33"/>
      <point x="329.12" y="33" type="curve" smooth="yes"/>
      <point x="468.12" y="33"/>
      <point x="590.892" y="145"/>
      <point x="605.397" y="283" type="curve" smooth="yes"/>
      <point x="623.264" y="453" type="line" smooth="yes"/>
      <point x="637.769" y="591"/>
      <point x="538.54" y="703"/>
      <point x="399.54" y="703" type="curve" smooth="yes"/>
      <point x="260.54" y="703"/>
      <point x="137.769" y="591"/>
      <point x="123.264" y="453" type="curve"/>
    </contour>
  </outline>
</glyph>
<glyph name="Ocircumflex" format="2">
  <advance width="748"/>
  <unicode hex="00D4"/>
  <outline>
    <contour>
      <point x="33.1278" y="315" type="line"/>
      <point x="44.2688" y="421" type="line" smooth="yes"/>
      <point x="62.4518" y="594"/>
      <point x="218.377" y="736"/>
      <point x="392.377" y="736" type="curve" smooth="yes"/>
      <point x="414.377" y="736" type="line" smooth="yes"/>
      <point x="588.377" y="736"/>
      <point x="714.452" y="594"/>
      <point x="696.269" y="421" type="curve" smooth="yes"/>
      <point x="685.128" y="315" type="line" smooth="yes"/>
      <point x="666.84" y="141"/>
      <point x="511.02" y="0"/>
      <point x="337.02" y="0" type="curve" smooth="yes"/>
      <point x="315.02" y="0" type="line" smooth="yes"/>
      <point x="141.02" y="0"/>
      <point x="14.8396" y="141"/>
      <point x="33.1278" y="315" type="curve"/>
    </contour>
    <contour>
      <point x="390.98" y="913" type="line"/>
      <point x="452.98" y="913" type="line"/>
      <point x="493.887" y="836" type="line"/>
      <point x="462.68" y="815" type="line"/>
      <point x="418.091" y="876" type="line"/>
      <point x="360.68" y="815" type="line"/>
      <point x="333.887" y="836" type="line"/>
    </contour>
    <contour>
      <point x="123.632" y="453" type="line"/>
      <point x="105.764" y="283" type="line" smooth="yes"/>
      <point x="91.26" y="145"/>
      <point x="190.488" y="33"/>
      <point x="329.488" y="33" type="curve" smooth="yes"/>
      <point x="468.488" y="33"/>
      <point x="591.26" y="145"/>
      <point x="605.764" y="283" type="curve" smooth="yes"/>
      <point x="623.632" y="453" type="line" smooth="yes"/>
      <point x="638.137" y="591"/>
      <point x="538.908" y="703"/>
      <point x="399.908" y="703" type="curve" smooth="yes"/>
      <point x="260.908" y="703"/>
      <point x="138.137" y="591"/>
      <point x="123.632" y="453" type="curve"/>
    </contour>
  </outline>
</glyph>
<glyph name="Otilde" format="2">
  <advance width="748"/>
  <unicode hex="00D5"/>
  <outline>
    <contour>
      <point x="36.0707" y="315" type="line"/>
      <point x="47.2117" y="421" type="line" smooth="yes"/>
      <point x="65.3948" y="594"/>
      <point x="221.32" y="736"/>
      <point x="395.32" y="736" type="curve" smooth="yes"/>
      <point x="417.32" y="736" type="line" smooth="yes"/>
      <point x="591.32" y="736"/>
      <point x="717.395" y="594"/>
      <point x="699.212" y="421" type="curve" smooth="yes"/>
      <point x="688.071" y="315" type="line" smooth="yes"/>
      <point x="669.783" y="141"/>
      <point x="513.963" y="0"/>
      <point x="339.963" y="0" type="curve" smooth="yes"/>
      <point x="317.963" y="0" type="line" smooth="yes"/>
      <point x="143.963" y="0"/>
      <point x="17.7825" y="141"/>
      <point x="36.0707" y="315" type="curve"/>
    </contour>
    <contour>
      <point x="319.202" y="811" type="line"/>
      <point x="298.31" y="793" type="line"/>
      <point x="288.467" y="804" type="line"/>
      <point x="308.464" y="823" type="line"/>
      <point x="329.461" y="842"/>
      <point x="354.512" y="852"/>
      <point x="379.512" y="852" type="curve" smooth="yes"/>
      <point x="389.512" y="852"/>
      <point x="399.301" y="850"/>
      <point x="408.986" y="847" type="curve" smooth="yes"/>
      <point x="469.989" y="828" type="line"/>
      <point x="473.756" y="826.967"/>
      <point x="477.578" y="826.467"/>
      <point x="481.384" y="826.467" type="curve" smooth="yes"/>
      <point x="492.311" y="826.467"/>
      <point x="503.102" y="830.583"/>
      <point x="512.04" y="838" type="curve"/>
      <point x="533.037" y="857" type="line"/>
      <point x="542.776" y="845" type="line"/>
      <point x="522.779" y="826" type="line"/>
      <point x="501.887" y="808"/>
      <point x="475.836" y="798"/>
      <point x="449.836" y="798" type="curve" smooth="yes"/>
      <point x="440.836" y="798"/>
      <point x="430.941" y="799"/>
      <point x="422.256" y="802" type="curve" smooth="yes"/>
      <point x="361.359" y="822" type="line"/>
      <point x="357.655" y="823.016"/>
      <point x="353.832" y="823.516"/>
      <point x="350.008" y="823.516" type="curve" smooth="yes"/>
      <point x="338.776" y="823.516"/>
      <point x="327.525" y="819.206"/>
      <point x="319.202" y="811" type="curve"/>
    </contour>
    <contour>
      <point x="126.575" y="453" type="line"/>
      <point x="108.707" y="283" type="line" smooth="yes"/>
      <point x="94.2029" y="145"/>
      <point x="193.431" y="33"/>
      <point x="332.431" y="33" type="curve" smooth="yes"/>
      <point x="471.431" y="33"/>
      <point x="594.203" y="145"/>
      <point x="608.707" y="283" type="curve" smooth="yes"/>
      <point x="626.575" y="453" type="line" smooth="yes"/>
      <point x="641.079" y="591"/>
      <point x="541.851" y="703"/>
      <point x="402.851" y="703" type="curve" smooth="yes"/>
      <point x="263.851" y="703"/>
      <point x="141.079" y="591"/>
      <point x="126.575" y="453" type="curve"/>
    </contour>
  </outline>
</glyph>
<glyph name="Odieresis" format="2">
  <advance width="748"/>
  <unicode hex="00D6"/>
  <outline>
    <contour>
      <point x="35.7554" y="315" type="line"/>
      <point x="46.8964" y="421" type="line" smooth="yes"/>
      <point x="65.0794" y="594"/>
      <point x="221.004" y="736"/>
      <point x="395.004" y="736" type="curve" smooth="yes"/>
      <point x="417.004" y="736" type="line" smooth="yes"/>
      <point x="591.004" y="736"/>
      <point x="717.079" y="594"/>
      <point x="698.896" y="421" type="curve" smooth="yes"/>
      <point x="687.755" y="315" type="line" smooth="yes"/>
      <point x="669.467" y="141"/>
      <point x="513.648" y="0"/>
      <point x="339.648" y="0" type="curve" smooth="yes"/>
      <point x="317.648" y="0" type="line" smooth="yes"/>
      <point x="143.648" y="0"/>
      <point x="17.4672" y="141"/>
      <point x="35.7554" y="315" type="curve"/>
    </contour>
    <contour>
      <point x="373.352" y="863" type="line"/>
      <point x="391.352" y="863"/>
      <point x="404.776" y="848"/>
      <point x="402.779" y="829" type="curve" smooth="yes"/>
      <point x="400.887" y="811"/>
      <point x="384.31" y="796"/>
      <point x="366.31" y="796" type="curve" smooth="yes"/>
      <point x="347.31" y="796"/>
      <point x="334.887" y="811"/>
      <point x="336.779" y="829" type="curve" smooth="yes"/>
      <point x="338.776" y="848"/>
      <point x="354.352" y="863"/>
      <point x="373.352" y="863" type="curve"/>
    </contour>
    <contour>
      <point x="465.352" y="863" type="line"/>
      <point x="484.352" y="863"/>
      <point x="496.776" y="848"/>
      <point x="494.779" y="829" type="curve" smooth="yes"/>
      <point x="492.887" y="811"/>
      <point x="477.31" y="796"/>
      <point x="458.31" y="796" type="curve" smooth="yes"/>
      <point x="440.31" y="796"/>
      <point x="426.887" y="811"/>
      <point x="428.779" y="829" type="curve" smooth="yes"/>
      <point x="430.776" y="848"/>
      <point x="447.352" y="863"/>
      <point x="465.352" y="863" type="curve"/>
    </contour>
    <contour>
      <point x="126.26" y="453" type="line"/>
      <point x="108.392" y="283" type="line" smooth="yes"/>
      <point x="93.8876" y="145"/>
      <point x="193.116" y="33"/>
      <point x="332.116" y="33" type="curve" smooth="yes"/>
      <point x="471.116" y="33"/>
      <point x="593.888" y="145"/>
      <point x="608.392" y="283" type="curve" smooth="yes"/>
      <point x="626.26" y="453" type="line" smooth="yes"/>
      <point x="640.764" y="591"/>
      <point x="541.536" y="703"/>
      <point x="402.536" y="703" type="curve" smooth="yes"/>
      <point x="263.536" y="703"/>
      <point x="140.764" y="591"/>
      <point x="126.26" y="453" type="curve"/>
    </contour>
  </outline>
</glyph>
<glyph name="multiply" format="2">
  <advance width="475"/>
  <unicode hex="00D7"/>
  <outline>
    <contour>
      <point x="451.962" y="513" type="line"/>
      <point x="284.986" y="361" type="line"/>
      <point x="420.116" y="210" type="line"/>
      <point x="378.017" y="171" type="line"/>
      <point x="241.992" y="323" type="line"/>
      <point x="75.0166" y="171" type="line"/>
      <point x="40.1157" y="210" type="line"/>
      <point x="207.986" y="361" type="line"/>
      <point x="71.9623" y="513" type="line"/>
      <point x="114.956" y="551" type="line"/>
      <point x="250.085" y="400" type="line"/>
      <point x="417.956" y="551" type="line"/>
    </contour>
  </outline>
</glyph>
<glyph name="Oslash" format="2">
  <advance width="748"/>
  <unicode hex="00D8"/>
  <outline>
    <contour>
      <point x="125.322" y="0" type="line"/>
      <point x="63.3216" y="0" type="line"/>
      <point x="123.625" y="79" type="line"/>
      <point x="64.7209" y="137"/>
      <point x="32.5497" y="221"/>
      <point x="42.4295" y="315" type="curve" smooth="yes"/>
      <point x="53.5705" y="421" type="line" smooth="yes"/>
      <point x="71.7536" y="594"/>
      <point x="227.678" y="736"/>
      <point x="401.678" y="736" type="curve" smooth="yes"/>
      <point x="423.678" y="736" type="line" smooth="yes"/>
      <point x="485.678" y="736"/>
      <point x="540.786" y="718"/>
      <point x="586.528" y="687" type="curve"/>
      <point x="622.573" y="735" type="line"/>
      <point x="684.573" y="735" type="line"/>
      <point x="624.27" y="656" type="line"/>
      <point x="683.174" y="598"/>
      <point x="715.345" y="514"/>
      <point x="705.571" y="421" type="curve" smooth="yes"/>
      <point x="694.429" y="315" type="line" smooth="yes"/>
      <point x="676.141" y="141"/>
      <point x="520.322" y="0"/>
      <point x="346.322" y="0" type="curve" smooth="yes"/>
      <point x="324.322" y="0" type="line" smooth="yes"/>
      <point x="262.322" y="0"/>
      <point x="207.214" y="18"/>
      <point x="161.367" y="48" type="curve"/>
    </contour>
    <contour>
      <point x="132.934" y="453" type="line"/>
      <point x="115.066" y="283" type="line" smooth="yes"/>
      <point x="108.655" y="222"/>
      <point x="123.769" y="166"/>
      <point x="156.144" y="122" type="curve"/>
      <point x="557.639" y="650" type="line"/>
      <point x="519.108" y="683"/>
      <point x="467.21" y="703"/>
      <point x="409.21" y="703" type="curve" smooth="yes"/>
      <point x="270.21" y="703"/>
      <point x="147.438" y="591"/>
      <point x="132.934" y="453" type="curve"/>
    </contour>
    <contour>
      <point x="632.934" y="453" type="line"/>
      <point x="639.345" y="514"/>
      <point x="624.231" y="570"/>
      <point x="591.751" y="613" type="curve"/>
      <point x="190.361" y="86" type="line"/>
      <point x="228.892" y="53"/>
      <point x="280.79" y="33"/>
      <point x="338.79" y="33" type="curve" smooth="yes"/>
      <point x="477.79" y="33"/>
      <point x="600.562" y="145"/>
      <point x="615.066" y="283" type="curve" smooth="yes"/>
      <point x="632.934" y="453" type="line"/>
    </contour>
  </outline>
</glyph>
<glyph name="Uacute" format="2">
  <advance width="607"/>
  <unicode hex="00DA"/>
  <outline>
    <contour>
      <point x="456.409" y="207" type="line"/>
      <point x="512.009" y="736" type="line"/>
      <point x="588.009" y="736" type="line"/>
      <point x="536.928" y="250" type="line" smooth="yes"/>
      <point x="522.424" y="112"/>
      <point x="398.652" y="0"/>
      <point x="260.652" y="0" type="curve" smooth="yes"/>
      <point x="122.652" y="0"/>
      <point x="22.4237" y="112"/>
      <point x="36.9281" y="250" type="curve" smooth="yes"/>
      <point x="84.5403" y="703" type="line"/>
      <point x="25.5403" y="703" type="line"/>
      <point x="29.0088" y="736" type="line"/>
      <point x="164.009" y="736" type="line"/>
      <point x="108.409" y="207" type="line" smooth="yes"/>
      <point x="98.3186" y="111"/>
      <point x="168.12" y="33"/>
      <point x="264.12" y="33" type="curve" smooth="yes"/>
      <point x="360.12" y="33"/>
      <point x="446.319" y="111"/>
      <point x="456.409" y="207" type="curve"/>
    </contour>
    <contour>
      <point x="378.348" y="920" type="line"/>
      <point x="445.348" y="920" type="line"/>
      <point x="346.312" y="815" type="line"/>
      <point x="317.624" y="837" type="line"/>
    </contour>
  </outline>
</glyph>
<glyph name="Ucircumflex" format="2">
  <advance width="607"/>
  <unicode hex="00DB"/>
  <outline>
    <contour>
      <point x="456.776" y="207" type="line"/>
      <point x="512.377" y="736" type="line"/>
      <point x="588.377" y="736" type="line"/>
      <point x="537.296" y="250" type="line" smooth="yes"/>
      <point x="522.792" y="112"/>
      <point x="399.02" y="0"/>
      <point x="261.02" y="0" type="curve" smooth="yes"/>
      <point x="123.02" y="0"/>
      <point x="22.7916" y="112"/>
      <point x="37.296" y="250" type="curve" smooth="yes"/>
      <point x="84.9082" y="703" type="line"/>
      <point x="25.9082" y="703" type="line"/>
      <point x="29.3766" y="736" type="line"/>
      <point x="164.377" y="736" type="line"/>
      <point x="108.776" y="207" type="line" smooth="yes"/>
      <point x="98.6865" y="111"/>
      <point x="168.488" y="33"/>
      <point x="264.488" y="33" type="curve" smooth="yes"/>
      <point x="360.488" y="33"/>
      <point x="446.686" y="111"/>
      <point x="456.776" y="207" type="curve"/>
    </contour>
    <contour>
      <point x="324.98" y="913" type="line"/>
      <point x="386.98" y="913" type="line"/>
      <point x="427.887" y="836" type="line"/>
      <point x="396.68" y="815" type="line"/>
      <point x="352.091" y="876" type="line"/>
      <point x="294.68" y="815" type="line"/>
      <point x="267.887" y="836" type="line"/>
    </contour>
  </outline>
</glyph>
<glyph name="Udieresis" format="2">
  <advance width="607"/>
  <unicode hex="00DC"/>
  <outline>
    <contour>
      <point x="458.458" y="207" type="line"/>
      <point x="514.058" y="736" type="line"/>
      <point x="590.058" y="736" type="line"/>
      <point x="538.978" y="250" type="line" smooth="yes"/>
      <point x="524.473" y="112"/>
      <point x="400.702" y="0"/>
      <point x="262.702" y="0" type="curve" smooth="yes"/>
      <point x="124.702" y="0"/>
      <point x="24.4733" y="112"/>
      <point x="38.9776" y="250" type="curve" smooth="yes"/>
      <point x="86.5899" y="703" type="line"/>
      <point x="27.5899" y="703" type="line"/>
      <point x="31.0583" y="736" type="line"/>
      <point x="166.058" y="736" type="line"/>
      <point x="110.458" y="207" type="line" smooth="yes"/>
      <point x="100.368" y="111"/>
      <point x="170.17" y="33"/>
      <point x="266.17" y="33" type="curve" smooth="yes"/>
      <point x="362.17" y="33"/>
      <point x="448.368" y="111"/>
      <point x="458.458" y="207" type="curve"/>
    </contour>
    <contour>
      <point x="308.298" y="881" type="line"/>
      <point x="326.298" y="881"/>
      <point x="339.722" y="866"/>
      <point x="337.83" y="848" type="curve" smooth="yes"/>
      <point x="335.938" y="830"/>
      <point x="319.362" y="815"/>
      <point x="301.362" y="815" type="curve" smooth="yes"/>
      <point x="282.362" y="815"/>
      <point x="269.938" y="830"/>
      <point x="271.83" y="848" type="curve" smooth="yes"/>
      <point x="273.722" y="866"/>
      <point x="289.298" y="881"/>
      <point x="308.298" y="881" type="curve"/>
    </contour>
    <contour>
      <point x="400.298" y="881" type="line"/>
      <point x="419.298" y="881"/>
      <point x="431.722" y="866"/>
      <point x="429.83" y="848" type="curve" smooth="yes"/>
      <point x="427.938" y="830"/>
      <point x="412.362" y="815"/>
      <point x="393.362" y="815" type="curve" smooth="yes"/>
      <point x="375.362" y="815"/>
      <point x="361.938" y="830"/>
      <point x="363.83" y="848" type="curve" smooth="yes"/>
      <point x="365.722" y="866"/>
      <point x="382.298" y="881"/>
      <point x="400.298" y="881" type="curve"/>
    </contour>
  </outline>
</glyph>
<glyph name="Yacute" format="2">
  <advance width="611"/>
  <unicode hex="00DD"/>
  <outline>
    <contour>
      <point x="302.652" y="0" type="line"/>
      <point x="226.652" y="0" type="line"/>
      <point x="257.553" y="294" type="line"/>
      <point x="84.5403" y="703" type="line"/>
      <point x="25.5403" y="703" type="line"/>
      <point x="29.0088" y="736" type="line"/>
      <point x="156.009" y="736" type="line"/>
      <point x="324.177" y="338" type="line"/>
      <point x="575.009" y="736" type="line"/>
      <point x="612.009" y="736" type="line"/>
      <point x="333.553" y="294" type="line"/>
      <point x="302.652" y="0" type="line"/>
    </contour>
    <contour>
      <point x="406.348" y="920" type="line"/>
      <point x="472.348" y="920" type="line"/>
      <point x="374.312" y="815" type="line"/>
      <point x="345.624" y="837" type="line"/>
    </contour>
  </outline>
</glyph>
